G75*
%MOIN*%
%OFA0B0*%
%FSLAX25Y25*%
%IPPOS*%
%LPD*%
%AMOC8*
5,1,8,0,0,1.08239X$1,22.5*
%
%ADD10R,0.02769X0.06706*%
%ADD11R,0.06706X0.02769*%
%ADD12R,0.04934X0.05052*%
%ADD13C,0.06800*%
%ADD14R,0.06706X0.05918*%
%ADD15R,0.04737X0.02769*%
%ADD16R,0.05918X0.07099*%
%ADD17R,0.07099X0.05918*%
%ADD18R,0.03400X0.08800*%
%ADD19R,0.22454X0.15957*%
%ADD20R,0.07099X0.14580*%
%ADD21R,0.10643X0.13792*%
%ADD22R,0.41784X0.43320*%
%ADD23R,0.09300X0.05000*%
%ADD24R,0.10643X0.14580*%
%ADD25R,0.04737X0.05131*%
%ADD26C,0.08674*%
%ADD27R,0.09540X0.05524*%
%ADD28C,0.09068*%
%ADD29C,0.06343*%
%ADD30C,0.08477*%
%ADD31R,0.07493X0.07887*%
%ADD32R,0.06706X0.08674*%
%ADD33R,0.15761X0.08674*%
%ADD34R,0.07099X0.12611*%
%ADD35R,0.05918X0.06706*%
%ADD36C,0.06737*%
%ADD37C,0.06883*%
%ADD38C,0.13792*%
%ADD39C,0.10839*%
%ADD40R,0.06706X0.08477*%
%ADD41R,0.06312X0.04737*%
%ADD42OC8,0.06000*%
%ADD43R,0.30328X0.40170*%
%ADD44R,0.12611X0.06706*%
%ADD45R,0.14580X0.10643*%
%ADD46R,0.05524X0.05524*%
%ADD47C,0.08674*%
%ADD48R,0.05052X0.04934*%
%ADD49OC8,0.06400*%
%ADD50R,0.05131X0.04737*%
%ADD51R,0.21800X0.08400*%
%ADD52C,0.03975*%
D10*
X0484857Y0321412D03*
X0488007Y0321412D03*
X0491156Y0321412D03*
X0494306Y0321412D03*
X0497456Y0321412D03*
X0500605Y0321412D03*
X0503755Y0321412D03*
X0506904Y0321412D03*
X0510054Y0321412D03*
X0513204Y0321412D03*
X0516353Y0321412D03*
X0516353Y0367082D03*
X0513204Y0367082D03*
X0510054Y0367082D03*
X0506904Y0367082D03*
X0503755Y0367082D03*
X0500605Y0367082D03*
X0497456Y0367082D03*
X0494306Y0367082D03*
X0491156Y0367082D03*
X0488007Y0367082D03*
X0484857Y0367082D03*
D11*
X0477771Y0359995D03*
X0477771Y0356845D03*
X0477771Y0353696D03*
X0477771Y0350546D03*
X0477771Y0347397D03*
X0477771Y0344247D03*
X0477771Y0341097D03*
X0477771Y0337948D03*
X0477771Y0334798D03*
X0477771Y0331649D03*
X0477771Y0328499D03*
X0523440Y0328499D03*
X0523440Y0331649D03*
X0523440Y0334798D03*
X0523440Y0337948D03*
X0523440Y0341097D03*
X0523440Y0344247D03*
X0523440Y0347397D03*
X0523440Y0350546D03*
X0523440Y0353696D03*
X0523440Y0356845D03*
X0523440Y0359995D03*
D12*
X0507495Y0374562D03*
X0500605Y0374562D03*
X0502574Y0313538D03*
X0495684Y0313538D03*
D13*
X0551050Y0339089D02*
X0557050Y0339089D01*
X0557050Y0349089D02*
X0551050Y0349089D01*
X0551050Y0359089D02*
X0557050Y0359089D01*
X0557050Y0369089D02*
X0551050Y0369089D01*
X0551050Y0379089D02*
X0557050Y0379089D01*
D14*
X0539483Y0356649D03*
X0539483Y0349168D03*
X0530625Y0288735D03*
X0530625Y0281255D03*
X0510940Y0412160D03*
X0510940Y0419641D03*
X0471570Y0419641D03*
X0471570Y0412160D03*
D15*
X0546412Y0262889D03*
X0546412Y0257889D03*
X0571924Y0257889D03*
X0571924Y0262889D03*
X0571176Y0230999D03*
X0571176Y0225999D03*
X0545664Y0225999D03*
X0545664Y0230999D03*
X0545428Y0199897D03*
X0545428Y0194897D03*
X0570940Y0194897D03*
X0570940Y0199897D03*
X0570940Y0167416D03*
X0570940Y0162416D03*
X0545428Y0162416D03*
X0545428Y0167416D03*
X0545428Y0136904D03*
X0545428Y0131904D03*
X0570940Y0131904D03*
X0570940Y0136904D03*
D16*
X0515664Y0146215D03*
X0508184Y0146215D03*
X0508184Y0115704D03*
X0515664Y0115704D03*
X0515664Y0178696D03*
X0508184Y0178696D03*
X0508184Y0210192D03*
X0515664Y0210192D03*
X0515664Y0241688D03*
X0508184Y0241688D03*
X0563302Y0272200D03*
X0570782Y0272200D03*
X0176097Y0332239D03*
X0168617Y0332239D03*
D17*
X0168420Y0320231D03*
X0168420Y0312751D03*
X0096570Y0288735D03*
X0096570Y0281255D03*
X0085743Y0274956D03*
X0085743Y0267475D03*
X0530625Y0253302D03*
X0530625Y0245822D03*
X0530625Y0220822D03*
X0530625Y0213341D03*
X0530625Y0189326D03*
X0530625Y0181845D03*
X0530625Y0157830D03*
X0530625Y0150349D03*
X0530625Y0126334D03*
X0530625Y0118853D03*
X0570979Y0145428D03*
X0570979Y0152908D03*
X0570979Y0176924D03*
X0570979Y0184404D03*
X0570979Y0209404D03*
X0570979Y0216885D03*
X0570979Y0238932D03*
X0570979Y0246412D03*
D18*
X0450290Y0277619D03*
X0445290Y0277619D03*
X0440290Y0277619D03*
X0435290Y0277619D03*
X0430290Y0277619D03*
X0425290Y0277619D03*
X0420290Y0277619D03*
X0415290Y0277619D03*
X0415290Y0301819D03*
X0420290Y0301819D03*
X0425290Y0301819D03*
X0430290Y0301819D03*
X0435290Y0301819D03*
X0440290Y0301819D03*
X0445290Y0301819D03*
X0450290Y0301819D03*
D19*
X0136097Y0307416D03*
X0136097Y0346589D03*
D20*
X0188105Y0324168D03*
X0188105Y0302908D03*
D21*
X0155861Y0368263D03*
X0129089Y0368263D03*
D22*
X0202082Y0355822D03*
D23*
X0169282Y0355822D03*
X0169282Y0349122D03*
X0169282Y0342422D03*
X0169282Y0362522D03*
X0169282Y0369222D03*
D24*
X0185152Y0389641D03*
X0185152Y0415231D03*
D25*
X0162515Y0398578D03*
X0162515Y0391885D03*
X0184168Y0196806D03*
X0184168Y0190113D03*
X0178263Y0083617D03*
X0178263Y0076924D03*
D26*
X0057676Y0248125D02*
X0049802Y0248125D01*
X0049802Y0268125D02*
X0057676Y0268125D01*
X0057510Y0389070D02*
X0049636Y0389070D01*
X0049636Y0409070D02*
X0057510Y0409070D01*
D27*
X0116255Y0410979D03*
X0116255Y0390822D03*
X0150625Y0390822D03*
X0150625Y0410979D03*
D28*
X0052278Y0362042D02*
X0052278Y0353774D01*
X0052278Y0302790D02*
X0052278Y0294523D01*
D29*
X0097003Y0378050D02*
X0097003Y0383593D01*
X0102121Y0407814D02*
X0102121Y0413357D01*
D30*
X0219050Y0307869D02*
X0226727Y0307869D01*
X0226727Y0277869D02*
X0219050Y0277869D01*
X0219050Y0261609D02*
X0226727Y0261609D01*
X0255212Y0277869D02*
X0262889Y0277869D01*
X0275212Y0261609D02*
X0282889Y0261609D01*
X0285212Y0277869D02*
X0292889Y0277869D01*
X0282889Y0307869D02*
X0275212Y0307869D01*
X0285212Y0231609D02*
X0292889Y0231609D01*
X0282889Y0215349D02*
X0275212Y0215349D01*
X0262889Y0231609D02*
X0255212Y0231609D01*
X0226727Y0231609D02*
X0219050Y0231609D01*
X0219050Y0215349D02*
X0226727Y0215349D01*
X0226727Y0185349D02*
X0219050Y0185349D01*
X0219050Y0169089D02*
X0226727Y0169089D01*
X0255212Y0185349D02*
X0262889Y0185349D01*
X0275212Y0169089D02*
X0282889Y0169089D01*
X0285212Y0185349D02*
X0292889Y0185349D01*
X0292889Y0139089D02*
X0285212Y0139089D01*
X0282889Y0122830D02*
X0275212Y0122830D01*
X0262889Y0139089D02*
X0255212Y0139089D01*
X0226727Y0139089D02*
X0219050Y0139089D01*
X0219050Y0122830D02*
X0226727Y0122830D01*
X0226727Y0092830D02*
X0219050Y0092830D01*
X0255212Y0092830D02*
X0262889Y0092830D01*
X0285212Y0092830D02*
X0292889Y0092830D01*
D31*
X0205822Y0099759D03*
X0205822Y0115900D03*
X0205822Y0146019D03*
X0205822Y0162160D03*
X0205822Y0192278D03*
X0205822Y0208420D03*
X0205822Y0238538D03*
X0205822Y0254680D03*
X0205822Y0284798D03*
X0205822Y0300940D03*
X0096570Y0266491D03*
X0096570Y0250349D03*
D32*
X0105231Y0208814D03*
X0114286Y0208814D03*
X0123341Y0208814D03*
X0133774Y0208814D03*
X0142830Y0208814D03*
X0151885Y0208814D03*
D33*
X0142830Y0184011D03*
X0114286Y0184011D03*
D34*
X0168420Y0185782D03*
X0168420Y0203105D03*
D35*
X0121963Y0249562D03*
X0114483Y0249562D03*
X0427475Y0337160D03*
X0434956Y0337160D03*
X0434956Y0346019D03*
X0427475Y0346019D03*
X0427475Y0355861D03*
X0434956Y0355861D03*
X0434956Y0364719D03*
X0427475Y0364719D03*
X0485546Y0302712D03*
X0493026Y0302712D03*
X0493026Y0273184D03*
X0485546Y0273184D03*
X0485546Y0241688D03*
X0493026Y0241688D03*
X0493026Y0210192D03*
X0485546Y0210192D03*
X0485546Y0178696D03*
X0493026Y0178696D03*
X0493026Y0147200D03*
X0485546Y0147200D03*
X0499326Y0074365D03*
X0506806Y0074365D03*
X0507003Y0064168D03*
X0499523Y0064168D03*
D36*
X0148460Y0058460D03*
X0148460Y0050467D03*
X0148460Y0042475D03*
X0138460Y0046491D03*
X0138460Y0054483D03*
X0138460Y0062475D03*
X0138460Y0070467D03*
X0138460Y0078460D03*
X0138460Y0086452D03*
X0148460Y0090428D03*
X0148460Y0082436D03*
X0148460Y0074444D03*
D37*
X0158460Y0080428D03*
X0158460Y0090428D03*
X0158460Y0052475D03*
X0158460Y0042475D03*
D38*
X0078460Y0041491D03*
X0078460Y0091452D03*
D39*
X0065940Y0098204D03*
X0065940Y0034739D03*
D40*
X0170389Y0071904D03*
X0170389Y0082731D03*
D41*
X0418814Y0336373D03*
X0418814Y0343853D03*
X0410152Y0340113D03*
X0418814Y0356058D03*
X0418814Y0363538D03*
X0410152Y0359798D03*
D42*
X0475428Y0288932D03*
X0485428Y0288932D03*
X0506924Y0288932D03*
X0516924Y0288932D03*
X0511924Y0263420D03*
X0511924Y0253420D03*
X0511924Y0230940D03*
X0511924Y0220940D03*
X0511924Y0199444D03*
X0511924Y0189444D03*
X0511924Y0167948D03*
X0511924Y0157948D03*
X0511924Y0136452D03*
X0511924Y0126452D03*
X0485428Y0132436D03*
X0475428Y0132436D03*
X0475428Y0162948D03*
X0485428Y0162948D03*
X0485428Y0194444D03*
X0475428Y0194444D03*
X0475428Y0225940D03*
X0485428Y0225940D03*
X0485428Y0258420D03*
X0475428Y0258420D03*
D43*
X0176097Y0270231D03*
D44*
X0132003Y0260389D03*
X0132003Y0280074D03*
D45*
X0130034Y0231845D03*
X0155625Y0231845D03*
D46*
X0105428Y0250349D03*
X0105428Y0258617D03*
D47*
X0053755Y0204094D03*
X0053755Y0184094D03*
X0053755Y0164094D03*
X0053755Y0144094D03*
X0053755Y0124094D03*
X0351589Y0123818D03*
X0351589Y0103818D03*
X0351589Y0083739D03*
X0351589Y0063739D03*
X0351589Y0043739D03*
X0351589Y0143818D03*
X0351589Y0163858D03*
X0351589Y0183858D03*
X0351589Y0203858D03*
X0351589Y0249291D03*
X0351589Y0269291D03*
X0351589Y0289291D03*
X0351589Y0309527D03*
X0351589Y0329527D03*
X0351589Y0349527D03*
D48*
X0532593Y0348479D03*
X0532593Y0355369D03*
D49*
X0529857Y0047869D03*
X0539857Y0047869D03*
X0549857Y0047869D03*
X0559857Y0047869D03*
X0569857Y0047869D03*
X0579857Y0047869D03*
X0579857Y0037869D03*
X0569857Y0037869D03*
X0559857Y0037869D03*
X0549857Y0037869D03*
X0539857Y0037869D03*
X0529857Y0037869D03*
X0519857Y0037869D03*
X0509857Y0037869D03*
X0499857Y0037869D03*
X0489857Y0037869D03*
X0489857Y0047869D03*
X0499857Y0047869D03*
X0509857Y0047869D03*
X0519857Y0047869D03*
X0284778Y0047869D03*
X0274778Y0047869D03*
X0264778Y0047869D03*
X0254778Y0047869D03*
X0244778Y0047869D03*
X0234778Y0047869D03*
X0224778Y0047869D03*
X0214778Y0047869D03*
X0204778Y0047869D03*
X0194778Y0047869D03*
X0194778Y0037869D03*
X0204778Y0037869D03*
X0214778Y0037869D03*
X0224778Y0037869D03*
X0234778Y0037869D03*
X0244778Y0037869D03*
X0254778Y0037869D03*
X0264778Y0037869D03*
X0274778Y0037869D03*
X0284778Y0037869D03*
D50*
X0121570Y0260389D03*
X0114877Y0260389D03*
X0114877Y0280074D03*
X0121570Y0280074D03*
D51*
X0473239Y0393263D03*
X0511239Y0393263D03*
D52*
X0047357Y0039916D03*
X0047357Y0071412D03*
X0047357Y0102908D03*
X0094601Y0102908D03*
X0110349Y0102908D03*
X0110349Y0112751D03*
X0094601Y0112751D03*
X0126097Y0112751D03*
X0126097Y0102908D03*
X0141845Y0102908D03*
X0157593Y0102908D03*
X0157593Y0112751D03*
X0141845Y0112751D03*
X0178263Y0090113D03*
X0179247Y0069444D03*
X0185152Y0069444D03*
X0181215Y0051727D03*
X0181215Y0039916D03*
X0110349Y0039916D03*
X0094601Y0039916D03*
X0094601Y0146215D03*
X0086727Y0146215D03*
X0086727Y0154089D03*
X0094601Y0154089D03*
X0102475Y0154089D03*
X0110349Y0154089D03*
X0110349Y0146215D03*
X0102475Y0146215D03*
X0118223Y0146215D03*
X0126097Y0146215D03*
X0133971Y0146215D03*
X0141845Y0146215D03*
X0149719Y0146215D03*
X0157593Y0146215D03*
X0165467Y0146215D03*
X0173341Y0146215D03*
X0181215Y0146215D03*
X0181215Y0154089D03*
X0173341Y0154089D03*
X0165467Y0154089D03*
X0157593Y0154089D03*
X0149719Y0154089D03*
X0141845Y0154089D03*
X0133971Y0154089D03*
X0126097Y0154089D03*
X0118223Y0154089D03*
X0118223Y0161963D03*
X0126097Y0161963D03*
X0133971Y0161963D03*
X0141845Y0161963D03*
X0149719Y0161963D03*
X0157593Y0161963D03*
X0165467Y0161963D03*
X0173341Y0161963D03*
X0181215Y0161963D03*
X0181215Y0169837D03*
X0173341Y0169837D03*
X0165467Y0169837D03*
X0157593Y0169837D03*
X0149719Y0169837D03*
X0141845Y0169837D03*
X0133971Y0169837D03*
X0126097Y0169837D03*
X0118223Y0169837D03*
X0110349Y0169837D03*
X0102475Y0169837D03*
X0094601Y0169837D03*
X0086727Y0169837D03*
X0086727Y0161963D03*
X0094601Y0161963D03*
X0102475Y0161963D03*
X0110349Y0161963D03*
X0094601Y0177712D03*
X0086727Y0177712D03*
X0086727Y0185586D03*
X0094601Y0185586D03*
X0094601Y0197397D03*
X0094601Y0213145D03*
X0094601Y0228893D03*
X0110349Y0228893D03*
X0063105Y0228893D03*
X0047357Y0228893D03*
X0112318Y0270231D03*
X0118223Y0270231D03*
X0124129Y0270231D03*
X0130034Y0270231D03*
X0135940Y0270231D03*
X0173341Y0244641D03*
X0173341Y0236767D03*
X0181215Y0236767D03*
X0181215Y0244641D03*
X0189089Y0244641D03*
X0189089Y0236767D03*
X0189089Y0228893D03*
X0181215Y0228893D03*
X0173341Y0228893D03*
X0173341Y0221019D03*
X0181215Y0221019D03*
X0189089Y0221019D03*
X0189089Y0213145D03*
X0181215Y0213145D03*
X0173341Y0213145D03*
X0130034Y0185586D03*
X0130034Y0177712D03*
X0157593Y0177712D03*
X0181215Y0177712D03*
X0087712Y0287948D03*
X0082790Y0287948D03*
X0112318Y0362751D03*
X0118223Y0362751D03*
X0118223Y0368656D03*
X0112318Y0368656D03*
X0112318Y0374562D03*
X0118223Y0374562D03*
X0149719Y0404089D03*
X0149719Y0417869D03*
X0143814Y0417869D03*
X0143814Y0423774D03*
X0149719Y0423774D03*
X0157593Y0423774D03*
X0157593Y0417869D03*
X0173341Y0417869D03*
X0204837Y0417869D03*
X0204837Y0402121D03*
X0204837Y0394247D03*
X0212712Y0394247D03*
X0220586Y0394247D03*
X0228460Y0394247D03*
X0236334Y0394247D03*
X0244208Y0394247D03*
X0252082Y0394247D03*
X0252082Y0402121D03*
X0236334Y0402121D03*
X0220586Y0402121D03*
X0220586Y0386373D03*
X0212712Y0386373D03*
X0204837Y0386373D03*
X0228460Y0386373D03*
X0236334Y0386373D03*
X0244208Y0386373D03*
X0252082Y0386373D03*
X0252082Y0378499D03*
X0252082Y0370625D03*
X0244208Y0370625D03*
X0244208Y0378499D03*
X0236334Y0378499D03*
X0236334Y0370625D03*
X0236334Y0362751D03*
X0244208Y0362751D03*
X0252082Y0362751D03*
X0252082Y0354877D03*
X0244208Y0354877D03*
X0236334Y0354877D03*
X0236334Y0347003D03*
X0244208Y0347003D03*
X0252082Y0347003D03*
X0252082Y0339129D03*
X0244208Y0339129D03*
X0236334Y0339129D03*
X0236334Y0327318D03*
X0244208Y0327318D03*
X0252082Y0327318D03*
X0228460Y0327318D03*
X0220586Y0327318D03*
X0212712Y0327318D03*
X0204837Y0327318D03*
X0283578Y0339129D03*
X0283578Y0370625D03*
X0315074Y0370625D03*
X0315074Y0402121D03*
X0315074Y0417869D03*
X0299326Y0417869D03*
X0283578Y0417869D03*
X0267830Y0417869D03*
X0252082Y0417869D03*
X0236334Y0417869D03*
X0283578Y0402121D03*
X0362318Y0402121D03*
X0362318Y0417869D03*
X0393814Y0402121D03*
X0393814Y0370625D03*
X0393814Y0339129D03*
X0421373Y0323381D03*
X0448932Y0343066D03*
X0473538Y0317475D03*
X0483381Y0311570D03*
X0492239Y0335192D03*
X0503755Y0334639D03*
X0511924Y0350940D03*
X0492239Y0350940D03*
X0456806Y0370625D03*
X0456806Y0417869D03*
X0535546Y0386373D03*
X0539483Y0367672D03*
X0551294Y0323381D03*
X0523735Y0319444D03*
X0563105Y0297790D03*
X0543420Y0287948D03*
X0539483Y0256452D03*
X0555231Y0252515D03*
X0568026Y0253499D03*
X0572948Y0253499D03*
X0598538Y0244641D03*
X0577869Y0230861D03*
X0577869Y0225940D03*
X0598538Y0213145D03*
X0577869Y0201334D03*
X0577869Y0195428D03*
X0598538Y0181649D03*
X0577869Y0168853D03*
X0577869Y0163932D03*
X0598538Y0150152D03*
X0579837Y0137357D03*
X0579837Y0132436D03*
X0598538Y0118656D03*
X0598538Y0087160D03*
X0563105Y0080271D03*
X0598538Y0055664D03*
X0519798Y0079286D03*
X0519798Y0095034D03*
X0511924Y0095034D03*
X0511924Y0102908D03*
X0519798Y0102908D03*
X0504050Y0102908D03*
X0504050Y0095034D03*
X0495192Y0086176D03*
X0472554Y0102908D03*
X0450290Y0134030D03*
X0472554Y0150152D03*
X0445290Y0165212D03*
X0472554Y0181649D03*
X0440290Y0197180D03*
X0472554Y0213145D03*
X0435290Y0228755D03*
X0472554Y0244641D03*
X0430290Y0261314D03*
X0393814Y0276137D03*
X0393814Y0307633D03*
X0472554Y0276137D03*
X0539483Y0224956D03*
X0551294Y0221019D03*
X0547357Y0205271D03*
X0539483Y0193460D03*
X0547357Y0173774D03*
X0539483Y0160979D03*
X0539483Y0130467D03*
X0413499Y0079286D03*
X0413499Y0071412D03*
X0413499Y0063538D03*
X0413499Y0055664D03*
X0413499Y0047790D03*
X0393814Y0055664D03*
X0393814Y0087160D03*
X0393814Y0118656D03*
X0393814Y0150152D03*
X0393814Y0181649D03*
X0598538Y0276137D03*
X0598538Y0307633D03*
X0598538Y0339129D03*
X0598538Y0370625D03*
X0598538Y0402121D03*
X0582790Y0417869D03*
X0551294Y0417869D03*
M02*
