G75*
%MOIN*%
%OFA0B0*%
%FSLAX25Y25*%
%IPPOS*%
%LPD*%
%AMOC8*
5,1,8,0,0,1.08239X$1,22.5*
%
%ADD10C,0.06000*%
%ADD11C,0.07874*%
%ADD12C,0.08268*%
%ADD13C,0.05543*%
%ADD14C,0.07677*%
%ADD15C,0.05937*%
%ADD16C,0.06083*%
%ADD17C,0.10039*%
%ADD18OC8,0.05200*%
%ADD19C,0.07874*%
%ADD20OC8,0.05600*%
%ADD21C,0.01000*%
%ADD22C,0.03175*%
%ADD23C,0.02400*%
%ADD24C,0.01600*%
%ADD25C,0.04000*%
%ADD26C,0.01200*%
%ADD27C,0.07000*%
%ADD28C,0.05000*%
D10*
X0551050Y0339089D02*
X0557050Y0339089D01*
X0557050Y0349089D02*
X0551050Y0349089D01*
X0551050Y0359089D02*
X0557050Y0359089D01*
X0557050Y0369089D02*
X0551050Y0369089D01*
X0551050Y0379089D02*
X0557050Y0379089D01*
D11*
X0057510Y0389070D02*
X0049636Y0389070D01*
X0049636Y0409070D02*
X0057510Y0409070D01*
X0057676Y0268125D02*
X0049802Y0268125D01*
X0049802Y0248125D02*
X0057676Y0248125D01*
D12*
X0052278Y0294523D02*
X0052278Y0302790D01*
X0052278Y0353774D02*
X0052278Y0362042D01*
D13*
X0097003Y0378050D02*
X0097003Y0383593D01*
X0102121Y0407814D02*
X0102121Y0413357D01*
D14*
X0219050Y0307869D02*
X0226727Y0307869D01*
X0226727Y0277869D02*
X0219050Y0277869D01*
X0219050Y0261609D02*
X0226727Y0261609D01*
X0255212Y0277869D02*
X0262889Y0277869D01*
X0275212Y0261609D02*
X0282889Y0261609D01*
X0285212Y0277869D02*
X0292889Y0277869D01*
X0282889Y0307869D02*
X0275212Y0307869D01*
X0285212Y0231609D02*
X0292889Y0231609D01*
X0282889Y0215349D02*
X0275212Y0215349D01*
X0262889Y0231609D02*
X0255212Y0231609D01*
X0226727Y0231609D02*
X0219050Y0231609D01*
X0219050Y0215349D02*
X0226727Y0215349D01*
X0226727Y0185349D02*
X0219050Y0185349D01*
X0219050Y0169089D02*
X0226727Y0169089D01*
X0255212Y0185349D02*
X0262889Y0185349D01*
X0275212Y0169089D02*
X0282889Y0169089D01*
X0285212Y0185349D02*
X0292889Y0185349D01*
X0292889Y0139089D02*
X0285212Y0139089D01*
X0282889Y0122830D02*
X0275212Y0122830D01*
X0262889Y0139089D02*
X0255212Y0139089D01*
X0226727Y0139089D02*
X0219050Y0139089D01*
X0219050Y0122830D02*
X0226727Y0122830D01*
X0226727Y0092830D02*
X0219050Y0092830D01*
X0255212Y0092830D02*
X0262889Y0092830D01*
X0285212Y0092830D02*
X0292889Y0092830D01*
D15*
X0148460Y0090428D03*
X0148460Y0082436D03*
X0148460Y0074444D03*
X0138460Y0070467D03*
X0138460Y0062475D03*
X0138460Y0054483D03*
X0138460Y0046491D03*
X0148460Y0050467D03*
X0148460Y0042475D03*
X0148460Y0058460D03*
X0138460Y0078460D03*
X0138460Y0086452D03*
D16*
X0158460Y0090428D03*
X0158460Y0080428D03*
X0158460Y0052475D03*
X0158460Y0042475D03*
D17*
X0065940Y0034739D03*
X0065940Y0098204D03*
D18*
X0475428Y0132436D03*
X0485428Y0132436D03*
X0511924Y0136452D03*
X0511924Y0126452D03*
X0511924Y0157948D03*
X0511924Y0167948D03*
X0511924Y0189444D03*
X0511924Y0199444D03*
X0511924Y0220940D03*
X0511924Y0230940D03*
X0511924Y0253420D03*
X0511924Y0263420D03*
X0485428Y0258420D03*
X0475428Y0258420D03*
X0475428Y0288932D03*
X0485428Y0288932D03*
X0506924Y0288932D03*
X0516924Y0288932D03*
X0485428Y0225940D03*
X0475428Y0225940D03*
X0475428Y0194444D03*
X0485428Y0194444D03*
X0485428Y0162948D03*
X0475428Y0162948D03*
D19*
X0351589Y0163858D03*
X0351589Y0183858D03*
X0351589Y0203858D03*
X0351589Y0249291D03*
X0351589Y0269291D03*
X0351589Y0289291D03*
X0351589Y0309527D03*
X0351589Y0329527D03*
X0351589Y0349527D03*
X0351589Y0143818D03*
X0351589Y0123818D03*
X0351589Y0103818D03*
X0351589Y0083739D03*
X0351589Y0063739D03*
X0351589Y0043739D03*
X0053755Y0124094D03*
X0053755Y0144094D03*
X0053755Y0164094D03*
X0053755Y0184094D03*
X0053755Y0204094D03*
D20*
X0194778Y0047869D03*
X0204778Y0047869D03*
X0214778Y0047869D03*
X0224778Y0047869D03*
X0234778Y0047869D03*
X0244778Y0047869D03*
X0254778Y0047869D03*
X0264778Y0047869D03*
X0274778Y0047869D03*
X0284778Y0047869D03*
X0284778Y0037869D03*
X0274778Y0037869D03*
X0264778Y0037869D03*
X0254778Y0037869D03*
X0244778Y0037869D03*
X0234778Y0037869D03*
X0224778Y0037869D03*
X0214778Y0037869D03*
X0204778Y0037869D03*
X0194778Y0037869D03*
X0489857Y0037869D03*
X0499857Y0037869D03*
X0509857Y0037869D03*
X0519857Y0037869D03*
X0529857Y0037869D03*
X0539857Y0037869D03*
X0549857Y0037869D03*
X0559857Y0037869D03*
X0569857Y0037869D03*
X0579857Y0037869D03*
X0579857Y0047869D03*
X0569857Y0047869D03*
X0559857Y0047869D03*
X0549857Y0047869D03*
X0539857Y0047869D03*
X0529857Y0047869D03*
X0519857Y0047869D03*
X0509857Y0047869D03*
X0499857Y0047869D03*
X0489857Y0047869D03*
D21*
X0036109Y0028668D02*
X0036109Y0257436D01*
X0075569Y0257436D01*
X0075569Y0122625D01*
X0076916Y0121278D01*
X0078885Y0119309D01*
X0169436Y0119309D01*
X0170057Y0118688D01*
X0170057Y0031090D01*
X0171404Y0029742D01*
X0172479Y0028668D01*
X0068320Y0028668D01*
X0069633Y0029212D01*
X0071467Y0031046D01*
X0072064Y0032487D01*
X0074215Y0031244D01*
X0077012Y0030495D01*
X0079907Y0030495D01*
X0082704Y0031244D01*
X0085211Y0032692D01*
X0087259Y0034739D01*
X0088706Y0037247D01*
X0089456Y0040043D01*
X0089456Y0042939D01*
X0088706Y0045735D01*
X0087259Y0048243D01*
X0085211Y0050290D01*
X0082704Y0051738D01*
X0079907Y0052487D01*
X0077012Y0052487D01*
X0074215Y0051738D01*
X0071708Y0050290D01*
X0069660Y0048243D01*
X0068213Y0045735D01*
X0067463Y0042939D01*
X0067463Y0041165D01*
X0067237Y0041259D01*
X0064643Y0041259D01*
X0062247Y0040266D01*
X0060413Y0038432D01*
X0059420Y0036036D01*
X0059420Y0033442D01*
X0060413Y0031046D01*
X0062247Y0029212D01*
X0063560Y0028668D01*
X0036109Y0028668D01*
X0036109Y0029161D02*
X0062370Y0029161D01*
X0061299Y0030159D02*
X0036109Y0030159D01*
X0036109Y0031158D02*
X0060366Y0031158D01*
X0059953Y0032156D02*
X0036109Y0032156D01*
X0036109Y0033155D02*
X0059539Y0033155D01*
X0059420Y0034153D02*
X0036109Y0034153D01*
X0036109Y0035152D02*
X0059420Y0035152D01*
X0059468Y0036150D02*
X0036109Y0036150D01*
X0036109Y0037149D02*
X0059881Y0037149D01*
X0060295Y0038147D02*
X0036109Y0038147D01*
X0036109Y0039146D02*
X0061126Y0039146D01*
X0062125Y0040144D02*
X0036109Y0040144D01*
X0036109Y0041143D02*
X0064363Y0041143D01*
X0067463Y0042141D02*
X0036109Y0042141D01*
X0036109Y0043140D02*
X0067517Y0043140D01*
X0067785Y0044138D02*
X0036109Y0044138D01*
X0036109Y0045137D02*
X0068052Y0045137D01*
X0068444Y0046135D02*
X0036109Y0046135D01*
X0036109Y0047134D02*
X0069020Y0047134D01*
X0069597Y0048132D02*
X0036109Y0048132D01*
X0036109Y0049131D02*
X0070549Y0049131D01*
X0071547Y0050129D02*
X0036109Y0050129D01*
X0036109Y0051128D02*
X0073159Y0051128D01*
X0075666Y0052127D02*
X0036109Y0052127D01*
X0036109Y0053125D02*
X0134185Y0053125D01*
X0133991Y0053594D02*
X0134671Y0051952D01*
X0135928Y0050695D01*
X0136430Y0050487D01*
X0135928Y0050279D01*
X0134671Y0049022D01*
X0133991Y0047380D01*
X0133991Y0045602D01*
X0134671Y0043960D01*
X0135928Y0042703D01*
X0137571Y0042023D01*
X0139348Y0042023D01*
X0140991Y0042703D01*
X0142248Y0043960D01*
X0142928Y0045602D01*
X0142928Y0047380D01*
X0142248Y0049022D01*
X0140991Y0050279D01*
X0140489Y0050487D01*
X0140991Y0050695D01*
X0142248Y0051952D01*
X0142928Y0053594D01*
X0142928Y0055372D01*
X0142248Y0057014D01*
X0140991Y0058271D01*
X0140489Y0058479D01*
X0140991Y0058687D01*
X0142248Y0059944D01*
X0142928Y0061586D01*
X0142928Y0063364D01*
X0142248Y0065006D01*
X0140991Y0066263D01*
X0140489Y0066471D01*
X0140991Y0066679D01*
X0142248Y0067936D01*
X0142928Y0069579D01*
X0142928Y0071356D01*
X0142248Y0072999D01*
X0140991Y0074256D01*
X0140489Y0074463D01*
X0140991Y0074671D01*
X0142248Y0075928D01*
X0142928Y0077571D01*
X0142928Y0079348D01*
X0142248Y0080991D01*
X0140991Y0082248D01*
X0140489Y0082456D01*
X0140991Y0082663D01*
X0142248Y0083920D01*
X0142928Y0085563D01*
X0142928Y0087341D01*
X0142248Y0088983D01*
X0140991Y0090240D01*
X0139348Y0090920D01*
X0137571Y0090920D01*
X0135928Y0090240D01*
X0134671Y0088983D01*
X0133991Y0087341D01*
X0133991Y0085563D01*
X0134671Y0083920D01*
X0135928Y0082663D01*
X0136430Y0082456D01*
X0135928Y0082248D01*
X0134671Y0080991D01*
X0133991Y0079348D01*
X0133991Y0077571D01*
X0134671Y0075928D01*
X0135928Y0074671D01*
X0136430Y0074463D01*
X0135928Y0074256D01*
X0134671Y0072999D01*
X0133991Y0071356D01*
X0133991Y0069579D01*
X0134671Y0067936D01*
X0135928Y0066679D01*
X0136430Y0066471D01*
X0135928Y0066263D01*
X0134671Y0065006D01*
X0133991Y0063364D01*
X0133991Y0061586D01*
X0134671Y0059944D01*
X0135928Y0058687D01*
X0136430Y0058479D01*
X0135928Y0058271D01*
X0134671Y0057014D01*
X0133991Y0055372D01*
X0133991Y0053594D01*
X0133991Y0054124D02*
X0036109Y0054124D01*
X0036109Y0055122D02*
X0133991Y0055122D01*
X0134301Y0056121D02*
X0036109Y0056121D01*
X0036109Y0057119D02*
X0134776Y0057119D01*
X0135775Y0058118D02*
X0036109Y0058118D01*
X0036109Y0059116D02*
X0135499Y0059116D01*
X0134601Y0060115D02*
X0036109Y0060115D01*
X0036109Y0061113D02*
X0134187Y0061113D01*
X0133991Y0062112D02*
X0036109Y0062112D01*
X0036109Y0063110D02*
X0133991Y0063110D01*
X0134299Y0064109D02*
X0036109Y0064109D01*
X0036109Y0065107D02*
X0134772Y0065107D01*
X0135771Y0066106D02*
X0036109Y0066106D01*
X0036109Y0067104D02*
X0135503Y0067104D01*
X0134602Y0068103D02*
X0036109Y0068103D01*
X0036109Y0069101D02*
X0134189Y0069101D01*
X0133991Y0070100D02*
X0036109Y0070100D01*
X0036109Y0071098D02*
X0133991Y0071098D01*
X0134298Y0072097D02*
X0036109Y0072097D01*
X0036109Y0073095D02*
X0134768Y0073095D01*
X0135766Y0074094D02*
X0036109Y0074094D01*
X0036109Y0075092D02*
X0135507Y0075092D01*
X0134604Y0076091D02*
X0036109Y0076091D01*
X0036109Y0077089D02*
X0134190Y0077089D01*
X0133991Y0078088D02*
X0036109Y0078088D01*
X0036109Y0079086D02*
X0133991Y0079086D01*
X0134296Y0080085D02*
X0036109Y0080085D01*
X0036109Y0081083D02*
X0074669Y0081083D01*
X0074215Y0081205D02*
X0077012Y0080456D01*
X0079907Y0080456D01*
X0082704Y0081205D01*
X0085211Y0082653D01*
X0087259Y0084700D01*
X0088706Y0087207D01*
X0089456Y0090004D01*
X0089456Y0092899D01*
X0088706Y0095696D01*
X0087259Y0098203D01*
X0085211Y0100251D01*
X0082704Y0101698D01*
X0079907Y0102448D01*
X0077012Y0102448D01*
X0074215Y0101698D01*
X0072064Y0100456D01*
X0071467Y0101897D01*
X0069633Y0103731D01*
X0067237Y0104723D01*
X0064643Y0104723D01*
X0062247Y0103731D01*
X0060413Y0101897D01*
X0059420Y0099500D01*
X0059420Y0096907D01*
X0060413Y0094511D01*
X0062247Y0092677D01*
X0064643Y0091684D01*
X0067237Y0091684D01*
X0067463Y0091778D01*
X0067463Y0090004D01*
X0068213Y0087207D01*
X0069660Y0084700D01*
X0071708Y0082653D01*
X0074215Y0081205D01*
X0072696Y0082082D02*
X0036109Y0082082D01*
X0036109Y0083080D02*
X0071280Y0083080D01*
X0070282Y0084079D02*
X0036109Y0084079D01*
X0036109Y0085077D02*
X0069443Y0085077D01*
X0068866Y0086076D02*
X0036109Y0086076D01*
X0036109Y0087074D02*
X0068290Y0087074D01*
X0067981Y0088073D02*
X0036109Y0088073D01*
X0036109Y0089071D02*
X0067713Y0089071D01*
X0067463Y0090070D02*
X0036109Y0090070D01*
X0036109Y0091068D02*
X0067463Y0091068D01*
X0063718Y0092067D02*
X0036109Y0092067D01*
X0036109Y0093065D02*
X0061858Y0093065D01*
X0060859Y0094064D02*
X0036109Y0094064D01*
X0036109Y0095062D02*
X0060184Y0095062D01*
X0059770Y0096061D02*
X0036109Y0096061D01*
X0036109Y0097060D02*
X0059420Y0097060D01*
X0059420Y0098058D02*
X0036109Y0098058D01*
X0036109Y0099057D02*
X0059420Y0099057D01*
X0059650Y0100055D02*
X0036109Y0100055D01*
X0036109Y0101054D02*
X0060063Y0101054D01*
X0060568Y0102052D02*
X0036109Y0102052D01*
X0036109Y0103051D02*
X0061567Y0103051D01*
X0063015Y0104049D02*
X0036109Y0104049D01*
X0036109Y0105048D02*
X0170057Y0105048D01*
X0170057Y0106046D02*
X0036109Y0106046D01*
X0036109Y0107045D02*
X0170057Y0107045D01*
X0170057Y0108043D02*
X0036109Y0108043D01*
X0036109Y0109042D02*
X0170057Y0109042D01*
X0170057Y0110040D02*
X0036109Y0110040D01*
X0036109Y0111039D02*
X0170057Y0111039D01*
X0170057Y0112037D02*
X0036109Y0112037D01*
X0036109Y0113036D02*
X0170057Y0113036D01*
X0170057Y0114034D02*
X0036109Y0114034D01*
X0036109Y0115033D02*
X0170057Y0115033D01*
X0170057Y0116031D02*
X0036109Y0116031D01*
X0036109Y0117030D02*
X0170057Y0117030D01*
X0170057Y0118028D02*
X0036109Y0118028D01*
X0036109Y0119027D02*
X0051780Y0119027D01*
X0052673Y0118657D02*
X0054836Y0118657D01*
X0056835Y0119485D01*
X0058364Y0121014D01*
X0059192Y0123012D01*
X0059192Y0125175D01*
X0058364Y0127174D01*
X0056835Y0128703D01*
X0054836Y0129531D01*
X0052673Y0129531D01*
X0050675Y0128703D01*
X0049146Y0127174D01*
X0048318Y0125175D01*
X0048318Y0123012D01*
X0049146Y0121014D01*
X0050675Y0119485D01*
X0052673Y0118657D01*
X0050134Y0120025D02*
X0036109Y0120025D01*
X0036109Y0121024D02*
X0049141Y0121024D01*
X0048728Y0122022D02*
X0036109Y0122022D01*
X0036109Y0123021D02*
X0048318Y0123021D01*
X0048318Y0124019D02*
X0036109Y0124019D01*
X0036109Y0125018D02*
X0048318Y0125018D01*
X0048666Y0126016D02*
X0036109Y0126016D01*
X0036109Y0127015D02*
X0049080Y0127015D01*
X0049985Y0128013D02*
X0036109Y0128013D01*
X0036109Y0129012D02*
X0051421Y0129012D01*
X0056089Y0129012D02*
X0075569Y0129012D01*
X0075569Y0130010D02*
X0036109Y0130010D01*
X0036109Y0131009D02*
X0075569Y0131009D01*
X0075569Y0132007D02*
X0036109Y0132007D01*
X0036109Y0133006D02*
X0075569Y0133006D01*
X0075569Y0134004D02*
X0036109Y0134004D01*
X0036109Y0135003D02*
X0075569Y0135003D01*
X0075569Y0136001D02*
X0036109Y0136001D01*
X0036109Y0137000D02*
X0075569Y0137000D01*
X0075569Y0137998D02*
X0036109Y0137998D01*
X0036109Y0138997D02*
X0051852Y0138997D01*
X0052673Y0138657D02*
X0054836Y0138657D01*
X0056835Y0139485D01*
X0058364Y0141014D01*
X0059192Y0143012D01*
X0059192Y0145175D01*
X0058364Y0147174D01*
X0056835Y0148703D01*
X0054836Y0149531D01*
X0052673Y0149531D01*
X0050675Y0148703D01*
X0049146Y0147174D01*
X0048318Y0145175D01*
X0048318Y0143012D01*
X0049146Y0141014D01*
X0050675Y0139485D01*
X0052673Y0138657D01*
X0050164Y0139996D02*
X0036109Y0139996D01*
X0036109Y0140994D02*
X0049165Y0140994D01*
X0048740Y0141993D02*
X0036109Y0141993D01*
X0036109Y0142991D02*
X0048327Y0142991D01*
X0048318Y0143990D02*
X0036109Y0143990D01*
X0036109Y0144988D02*
X0048318Y0144988D01*
X0048654Y0145987D02*
X0036109Y0145987D01*
X0036109Y0146985D02*
X0049067Y0146985D01*
X0049956Y0147984D02*
X0036109Y0147984D01*
X0036109Y0148982D02*
X0051349Y0148982D01*
X0056161Y0148982D02*
X0075569Y0148982D01*
X0075569Y0147984D02*
X0057554Y0147984D01*
X0058442Y0146985D02*
X0075569Y0146985D01*
X0075569Y0145987D02*
X0058856Y0145987D01*
X0059192Y0144988D02*
X0075569Y0144988D01*
X0075569Y0143990D02*
X0059192Y0143990D01*
X0059183Y0142991D02*
X0075569Y0142991D01*
X0075569Y0141993D02*
X0058769Y0141993D01*
X0058344Y0140994D02*
X0075569Y0140994D01*
X0075569Y0139996D02*
X0057346Y0139996D01*
X0055658Y0138997D02*
X0075569Y0138997D01*
X0080169Y0136166D02*
X0080978Y0135357D01*
X0175563Y0135357D01*
X0175563Y0091662D01*
X0175175Y0090727D01*
X0175175Y0089499D01*
X0175645Y0088364D01*
X0176514Y0087496D01*
X0177649Y0087026D01*
X0178877Y0087026D01*
X0180012Y0087496D01*
X0180880Y0088364D01*
X0181350Y0089499D01*
X0181350Y0090727D01*
X0180963Y0091662D01*
X0180963Y0135357D01*
X0190902Y0135357D01*
X0192074Y0136529D01*
X0192074Y0142366D01*
X0193279Y0141160D01*
X0193279Y0061033D01*
X0193690Y0060040D01*
X0202279Y0051451D01*
X0200478Y0049650D01*
X0200478Y0046088D01*
X0202997Y0043569D01*
X0206560Y0043569D01*
X0209078Y0046088D01*
X0209078Y0049650D01*
X0207733Y0050996D01*
X0211824Y0050996D01*
X0210478Y0049650D01*
X0210478Y0046088D01*
X0212997Y0043569D01*
X0216560Y0043569D01*
X0219078Y0046088D01*
X0219078Y0049650D01*
X0217478Y0051250D01*
X0217478Y0053150D01*
X0217067Y0054142D01*
X0215985Y0055225D01*
X0215785Y0055425D01*
X0221928Y0055425D01*
X0222078Y0055274D01*
X0222078Y0051250D01*
X0220478Y0049650D01*
X0220478Y0046088D01*
X0222997Y0043569D01*
X0226560Y0043569D01*
X0229078Y0046088D01*
X0229078Y0049650D01*
X0227478Y0051250D01*
X0227478Y0056930D01*
X0227067Y0057922D01*
X0225627Y0059362D01*
X0231278Y0059362D01*
X0232078Y0058562D01*
X0232078Y0051250D01*
X0230478Y0049650D01*
X0230478Y0046088D01*
X0232997Y0043569D01*
X0235349Y0043569D01*
X0235349Y0042169D01*
X0232997Y0042169D01*
X0230478Y0039650D01*
X0230478Y0036088D01*
X0232478Y0034088D01*
X0232478Y0032424D01*
X0232428Y0032374D01*
X0175278Y0032374D01*
X0174657Y0032995D01*
X0174657Y0120593D01*
X0172689Y0122562D01*
X0171341Y0123909D01*
X0080790Y0123909D01*
X0080169Y0124530D01*
X0080169Y0136166D01*
X0080169Y0136001D02*
X0080333Y0136001D01*
X0080169Y0135003D02*
X0175563Y0135003D01*
X0175563Y0134004D02*
X0080169Y0134004D01*
X0080169Y0133006D02*
X0175563Y0133006D01*
X0175563Y0132007D02*
X0080169Y0132007D01*
X0080169Y0131009D02*
X0175563Y0131009D01*
X0175563Y0130010D02*
X0080169Y0130010D01*
X0080169Y0129012D02*
X0175563Y0129012D01*
X0175563Y0128013D02*
X0080169Y0128013D01*
X0080169Y0127015D02*
X0175563Y0127015D01*
X0175563Y0126016D02*
X0080169Y0126016D01*
X0080169Y0125018D02*
X0175563Y0125018D01*
X0175563Y0124019D02*
X0080680Y0124019D01*
X0077170Y0121024D02*
X0058368Y0121024D01*
X0058782Y0122022D02*
X0076172Y0122022D01*
X0075569Y0123021D02*
X0059192Y0123021D01*
X0059192Y0124019D02*
X0075569Y0124019D01*
X0075569Y0125018D02*
X0059192Y0125018D01*
X0058843Y0126016D02*
X0075569Y0126016D01*
X0075569Y0127015D02*
X0058430Y0127015D01*
X0057524Y0128013D02*
X0075569Y0128013D01*
X0078169Y0120025D02*
X0057375Y0120025D01*
X0055730Y0119027D02*
X0169718Y0119027D01*
X0173228Y0122022D02*
X0175563Y0122022D01*
X0175563Y0121024D02*
X0174227Y0121024D01*
X0174657Y0120025D02*
X0175563Y0120025D01*
X0175563Y0119027D02*
X0174657Y0119027D01*
X0174657Y0118028D02*
X0175563Y0118028D01*
X0175563Y0117030D02*
X0174657Y0117030D01*
X0174657Y0116031D02*
X0175563Y0116031D01*
X0175563Y0115033D02*
X0174657Y0115033D01*
X0174657Y0114034D02*
X0175563Y0114034D01*
X0175563Y0113036D02*
X0174657Y0113036D01*
X0174657Y0112037D02*
X0175563Y0112037D01*
X0175563Y0111039D02*
X0174657Y0111039D01*
X0174657Y0110040D02*
X0175563Y0110040D01*
X0175563Y0109042D02*
X0174657Y0109042D01*
X0174657Y0108043D02*
X0175563Y0108043D01*
X0175563Y0107045D02*
X0174657Y0107045D01*
X0174657Y0106046D02*
X0175563Y0106046D01*
X0175563Y0105048D02*
X0174657Y0105048D01*
X0174657Y0104049D02*
X0175563Y0104049D01*
X0175563Y0103051D02*
X0174657Y0103051D01*
X0174657Y0102052D02*
X0175563Y0102052D01*
X0175563Y0101054D02*
X0174657Y0101054D01*
X0174657Y0100055D02*
X0175563Y0100055D01*
X0175563Y0099057D02*
X0174657Y0099057D01*
X0174657Y0098058D02*
X0175563Y0098058D01*
X0175563Y0097060D02*
X0174657Y0097060D01*
X0174657Y0096061D02*
X0175563Y0096061D01*
X0175563Y0095062D02*
X0174657Y0095062D01*
X0174657Y0094064D02*
X0175563Y0094064D01*
X0175563Y0093065D02*
X0174657Y0093065D01*
X0174657Y0092067D02*
X0175563Y0092067D01*
X0175317Y0091068D02*
X0174657Y0091068D01*
X0174657Y0090070D02*
X0175175Y0090070D01*
X0175352Y0089071D02*
X0174657Y0089071D01*
X0174657Y0088073D02*
X0175937Y0088073D01*
X0174657Y0087074D02*
X0177531Y0087074D01*
X0178994Y0087074D02*
X0193279Y0087074D01*
X0193279Y0086076D02*
X0174657Y0086076D01*
X0174657Y0085077D02*
X0193279Y0085077D01*
X0193279Y0084079D02*
X0174657Y0084079D01*
X0174657Y0083080D02*
X0193279Y0083080D01*
X0193279Y0082082D02*
X0174657Y0082082D01*
X0174657Y0081083D02*
X0193279Y0081083D01*
X0193279Y0080085D02*
X0174657Y0080085D01*
X0174657Y0079086D02*
X0193279Y0079086D01*
X0193279Y0078088D02*
X0174657Y0078088D01*
X0174657Y0077089D02*
X0193279Y0077089D01*
X0193279Y0076091D02*
X0174657Y0076091D01*
X0174657Y0075092D02*
X0193279Y0075092D01*
X0193279Y0074094D02*
X0174657Y0074094D01*
X0174657Y0073095D02*
X0193279Y0073095D01*
X0193279Y0072097D02*
X0174657Y0072097D01*
X0174657Y0071098D02*
X0193279Y0071098D01*
X0193279Y0070100D02*
X0174657Y0070100D01*
X0174657Y0069101D02*
X0193279Y0069101D01*
X0193279Y0068103D02*
X0174657Y0068103D01*
X0174657Y0067104D02*
X0193279Y0067104D01*
X0193279Y0066106D02*
X0174657Y0066106D01*
X0174657Y0065107D02*
X0193279Y0065107D01*
X0193279Y0064109D02*
X0174657Y0064109D01*
X0174657Y0063110D02*
X0193279Y0063110D01*
X0193279Y0062112D02*
X0174657Y0062112D01*
X0174657Y0061113D02*
X0193279Y0061113D01*
X0193659Y0060115D02*
X0174657Y0060115D01*
X0174657Y0059116D02*
X0194615Y0059116D01*
X0195613Y0058118D02*
X0174657Y0058118D01*
X0174657Y0057119D02*
X0196612Y0057119D01*
X0197610Y0056121D02*
X0174657Y0056121D01*
X0174657Y0055122D02*
X0198609Y0055122D01*
X0199607Y0054124D02*
X0174657Y0054124D01*
X0174657Y0053125D02*
X0200606Y0053125D01*
X0201604Y0052127D02*
X0196602Y0052127D01*
X0196560Y0052169D02*
X0192997Y0052169D01*
X0190478Y0049650D01*
X0190478Y0046088D01*
X0192997Y0043569D01*
X0196560Y0043569D01*
X0199078Y0046088D01*
X0199078Y0049650D01*
X0196560Y0052169D01*
X0197601Y0051128D02*
X0201956Y0051128D01*
X0200958Y0050129D02*
X0198599Y0050129D01*
X0199078Y0049131D02*
X0200478Y0049131D01*
X0200478Y0048132D02*
X0199078Y0048132D01*
X0199078Y0047134D02*
X0200478Y0047134D01*
X0200478Y0046135D02*
X0199078Y0046135D01*
X0198127Y0045137D02*
X0201429Y0045137D01*
X0202428Y0044138D02*
X0197129Y0044138D01*
X0196560Y0042169D02*
X0192997Y0042169D01*
X0190478Y0039650D01*
X0190478Y0036088D01*
X0192997Y0033569D01*
X0196560Y0033569D01*
X0199078Y0036088D01*
X0199078Y0039650D01*
X0196560Y0042169D01*
X0196587Y0042141D02*
X0202970Y0042141D01*
X0202997Y0042169D02*
X0200478Y0039650D01*
X0200478Y0036088D01*
X0202997Y0033569D01*
X0206560Y0033569D01*
X0209078Y0036088D01*
X0209078Y0039650D01*
X0206560Y0042169D01*
X0202997Y0042169D01*
X0201971Y0041143D02*
X0197586Y0041143D01*
X0198584Y0040144D02*
X0200973Y0040144D01*
X0200478Y0039146D02*
X0199078Y0039146D01*
X0199078Y0038147D02*
X0200478Y0038147D01*
X0200478Y0037149D02*
X0199078Y0037149D01*
X0199078Y0036150D02*
X0200478Y0036150D01*
X0201414Y0035152D02*
X0198142Y0035152D01*
X0197144Y0034153D02*
X0202413Y0034153D01*
X0207144Y0034153D02*
X0232413Y0034153D01*
X0232478Y0033155D02*
X0174657Y0033155D01*
X0174657Y0034153D02*
X0192413Y0034153D01*
X0191414Y0035152D02*
X0174657Y0035152D01*
X0174657Y0036150D02*
X0190478Y0036150D01*
X0190478Y0037149D02*
X0174657Y0037149D01*
X0174657Y0038147D02*
X0190478Y0038147D01*
X0190478Y0039146D02*
X0174657Y0039146D01*
X0174657Y0040144D02*
X0190973Y0040144D01*
X0191971Y0041143D02*
X0174657Y0041143D01*
X0174657Y0042141D02*
X0192970Y0042141D01*
X0192428Y0044138D02*
X0174657Y0044138D01*
X0174657Y0043140D02*
X0235349Y0043140D01*
X0232970Y0042141D02*
X0206587Y0042141D01*
X0207586Y0041143D02*
X0231971Y0041143D01*
X0230973Y0040144D02*
X0208584Y0040144D01*
X0209078Y0039146D02*
X0230478Y0039146D01*
X0230478Y0038147D02*
X0209078Y0038147D01*
X0209078Y0037149D02*
X0230478Y0037149D01*
X0230478Y0036150D02*
X0209078Y0036150D01*
X0208142Y0035152D02*
X0231414Y0035152D01*
X0235349Y0028790D02*
X0235349Y0028668D01*
X0235228Y0028668D01*
X0235349Y0028790D01*
X0232428Y0044138D02*
X0227129Y0044138D01*
X0228127Y0045137D02*
X0231429Y0045137D01*
X0230478Y0046135D02*
X0229078Y0046135D01*
X0229078Y0047134D02*
X0230478Y0047134D01*
X0230478Y0048132D02*
X0229078Y0048132D01*
X0229078Y0049131D02*
X0230478Y0049131D01*
X0230958Y0050129D02*
X0228599Y0050129D01*
X0227601Y0051128D02*
X0231956Y0051128D01*
X0232078Y0052127D02*
X0227478Y0052127D01*
X0227478Y0053125D02*
X0232078Y0053125D01*
X0232078Y0054124D02*
X0227478Y0054124D01*
X0227478Y0055122D02*
X0232078Y0055122D01*
X0232078Y0056121D02*
X0227478Y0056121D01*
X0227400Y0057119D02*
X0232078Y0057119D01*
X0232078Y0058118D02*
X0226872Y0058118D01*
X0225873Y0059116D02*
X0231524Y0059116D01*
X0235349Y0062927D02*
X0234978Y0063299D01*
X0235349Y0063299D01*
X0235349Y0062927D01*
X0235349Y0063110D02*
X0235167Y0063110D01*
X0222078Y0055122D02*
X0216088Y0055122D01*
X0217075Y0054124D02*
X0222078Y0054124D01*
X0222078Y0053125D02*
X0217478Y0053125D01*
X0217478Y0052127D02*
X0222078Y0052127D01*
X0221956Y0051128D02*
X0217601Y0051128D01*
X0218599Y0050129D02*
X0220958Y0050129D01*
X0220478Y0049131D02*
X0219078Y0049131D01*
X0219078Y0048132D02*
X0220478Y0048132D01*
X0220478Y0047134D02*
X0219078Y0047134D01*
X0219078Y0046135D02*
X0220478Y0046135D01*
X0221429Y0045137D02*
X0218127Y0045137D01*
X0217129Y0044138D02*
X0222428Y0044138D01*
X0212428Y0044138D02*
X0207129Y0044138D01*
X0208127Y0045137D02*
X0211429Y0045137D01*
X0210478Y0046135D02*
X0209078Y0046135D01*
X0209078Y0047134D02*
X0210478Y0047134D01*
X0210478Y0048132D02*
X0209078Y0048132D01*
X0209078Y0049131D02*
X0210478Y0049131D01*
X0210958Y0050129D02*
X0208599Y0050129D01*
X0192955Y0052127D02*
X0174657Y0052127D01*
X0174657Y0051128D02*
X0191956Y0051128D01*
X0190958Y0050129D02*
X0174657Y0050129D01*
X0174657Y0049131D02*
X0190478Y0049131D01*
X0190478Y0048132D02*
X0174657Y0048132D01*
X0174657Y0047134D02*
X0190478Y0047134D01*
X0190478Y0046135D02*
X0174657Y0046135D01*
X0174657Y0045137D02*
X0191429Y0045137D01*
X0170057Y0045137D02*
X0162220Y0045137D01*
X0162309Y0045048D02*
X0161032Y0046325D01*
X0159363Y0047017D01*
X0157556Y0047017D01*
X0155887Y0046325D01*
X0154610Y0045048D01*
X0154414Y0044575D01*
X0152426Y0044575D01*
X0152248Y0045006D01*
X0150991Y0046263D01*
X0150489Y0046471D01*
X0150991Y0046679D01*
X0152248Y0047936D01*
X0152928Y0049579D01*
X0152928Y0051356D01*
X0152248Y0052999D01*
X0150991Y0054256D01*
X0150489Y0054463D01*
X0150991Y0054671D01*
X0152248Y0055928D01*
X0152928Y0057571D01*
X0152928Y0059348D01*
X0152248Y0060991D01*
X0150991Y0062248D01*
X0149348Y0062928D01*
X0147571Y0062928D01*
X0145928Y0062248D01*
X0144671Y0060991D01*
X0143991Y0059348D01*
X0143991Y0057571D01*
X0144671Y0055928D01*
X0145928Y0054671D01*
X0146430Y0054463D01*
X0145928Y0054256D01*
X0144671Y0052999D01*
X0143991Y0051356D01*
X0143991Y0049579D01*
X0144671Y0047936D01*
X0145928Y0046679D01*
X0146430Y0046471D01*
X0145928Y0046263D01*
X0144671Y0045006D01*
X0143991Y0043364D01*
X0143991Y0041586D01*
X0144671Y0039944D01*
X0145928Y0038687D01*
X0147571Y0038007D01*
X0149348Y0038007D01*
X0150991Y0038687D01*
X0152248Y0039944D01*
X0152426Y0040375D01*
X0154414Y0040375D01*
X0154610Y0039903D01*
X0155887Y0038625D01*
X0157556Y0037934D01*
X0159363Y0037934D01*
X0161032Y0038625D01*
X0162309Y0039903D01*
X0163001Y0041572D01*
X0163001Y0043379D01*
X0162309Y0045048D01*
X0162686Y0044138D02*
X0170057Y0044138D01*
X0170057Y0043140D02*
X0163001Y0043140D01*
X0163001Y0042141D02*
X0170057Y0042141D01*
X0170057Y0041143D02*
X0162823Y0041143D01*
X0162410Y0040144D02*
X0170057Y0040144D01*
X0170057Y0039146D02*
X0161553Y0039146D01*
X0159878Y0038147D02*
X0170057Y0038147D01*
X0170057Y0037149D02*
X0088650Y0037149D01*
X0088948Y0038147D02*
X0147231Y0038147D01*
X0145470Y0039146D02*
X0089215Y0039146D01*
X0089456Y0040144D02*
X0144588Y0040144D01*
X0144175Y0041143D02*
X0089456Y0041143D01*
X0089456Y0042141D02*
X0137284Y0042141D01*
X0135491Y0043140D02*
X0089402Y0043140D01*
X0089134Y0044138D02*
X0134597Y0044138D01*
X0134184Y0045137D02*
X0088867Y0045137D01*
X0088475Y0046135D02*
X0133991Y0046135D01*
X0133991Y0047134D02*
X0087899Y0047134D01*
X0087322Y0048132D02*
X0134303Y0048132D01*
X0134780Y0049131D02*
X0086370Y0049131D01*
X0085372Y0050129D02*
X0135779Y0050129D01*
X0135495Y0051128D02*
X0083760Y0051128D01*
X0081253Y0052127D02*
X0134599Y0052127D01*
X0141140Y0050129D02*
X0143991Y0050129D01*
X0143991Y0051128D02*
X0141424Y0051128D01*
X0142320Y0052127D02*
X0144310Y0052127D01*
X0144798Y0053125D02*
X0142734Y0053125D01*
X0142928Y0054124D02*
X0145796Y0054124D01*
X0145478Y0055122D02*
X0142928Y0055122D01*
X0142618Y0056121D02*
X0144592Y0056121D01*
X0144178Y0057119D02*
X0142143Y0057119D01*
X0141145Y0058118D02*
X0143991Y0058118D01*
X0143991Y0059116D02*
X0141420Y0059116D01*
X0142318Y0060115D02*
X0144308Y0060115D01*
X0144794Y0061113D02*
X0142732Y0061113D01*
X0142928Y0062112D02*
X0145792Y0062112D01*
X0142928Y0063110D02*
X0155760Y0063110D01*
X0155760Y0062112D02*
X0151127Y0062112D01*
X0152125Y0061113D02*
X0155760Y0061113D01*
X0155760Y0060115D02*
X0152611Y0060115D01*
X0152928Y0059116D02*
X0155760Y0059116D01*
X0155760Y0058118D02*
X0152928Y0058118D01*
X0152741Y0057119D02*
X0155760Y0057119D01*
X0155760Y0056198D02*
X0154610Y0055048D01*
X0153918Y0053379D01*
X0153918Y0051572D01*
X0154610Y0049903D01*
X0155887Y0048625D01*
X0157556Y0047934D01*
X0159363Y0047934D01*
X0161032Y0048625D01*
X0162309Y0049903D01*
X0163001Y0051572D01*
X0163001Y0053379D01*
X0162309Y0055048D01*
X0161160Y0056198D01*
X0161160Y0076706D01*
X0162309Y0077856D01*
X0163001Y0079525D01*
X0163001Y0081331D01*
X0162309Y0083000D01*
X0161032Y0084278D01*
X0159363Y0084969D01*
X0157556Y0084969D01*
X0155887Y0084278D01*
X0154610Y0083000D01*
X0153918Y0081331D01*
X0153918Y0079525D01*
X0154610Y0077856D01*
X0155760Y0076706D01*
X0155760Y0056198D01*
X0155682Y0056121D02*
X0152327Y0056121D01*
X0151441Y0055122D02*
X0154684Y0055122D01*
X0154227Y0054124D02*
X0151123Y0054124D01*
X0152121Y0053125D02*
X0153918Y0053125D01*
X0153918Y0052127D02*
X0152609Y0052127D01*
X0152928Y0051128D02*
X0154102Y0051128D01*
X0154516Y0050129D02*
X0152928Y0050129D01*
X0152743Y0049131D02*
X0155381Y0049131D01*
X0157077Y0048132D02*
X0152329Y0048132D01*
X0151445Y0047134D02*
X0170057Y0047134D01*
X0170057Y0048132D02*
X0159842Y0048132D01*
X0161538Y0049131D02*
X0170057Y0049131D01*
X0170057Y0050129D02*
X0162403Y0050129D01*
X0162817Y0051128D02*
X0170057Y0051128D01*
X0170057Y0052127D02*
X0163001Y0052127D01*
X0163001Y0053125D02*
X0170057Y0053125D01*
X0170057Y0054124D02*
X0162692Y0054124D01*
X0162235Y0055122D02*
X0170057Y0055122D01*
X0170057Y0056121D02*
X0161237Y0056121D01*
X0161160Y0057119D02*
X0170057Y0057119D01*
X0170057Y0058118D02*
X0161160Y0058118D01*
X0161160Y0059116D02*
X0170057Y0059116D01*
X0170057Y0060115D02*
X0161160Y0060115D01*
X0161160Y0061113D02*
X0170057Y0061113D01*
X0170057Y0062112D02*
X0161160Y0062112D01*
X0161160Y0063110D02*
X0170057Y0063110D01*
X0170057Y0064109D02*
X0161160Y0064109D01*
X0161160Y0065107D02*
X0170057Y0065107D01*
X0170057Y0066106D02*
X0161160Y0066106D01*
X0161160Y0067104D02*
X0170057Y0067104D01*
X0170057Y0068103D02*
X0161160Y0068103D01*
X0161160Y0069101D02*
X0170057Y0069101D01*
X0170057Y0070100D02*
X0161160Y0070100D01*
X0161160Y0071098D02*
X0170057Y0071098D01*
X0170057Y0072097D02*
X0161160Y0072097D01*
X0161160Y0073095D02*
X0170057Y0073095D01*
X0170057Y0074094D02*
X0161160Y0074094D01*
X0161160Y0075092D02*
X0170057Y0075092D01*
X0170057Y0076091D02*
X0161160Y0076091D01*
X0161543Y0077089D02*
X0170057Y0077089D01*
X0170057Y0078088D02*
X0162406Y0078088D01*
X0162819Y0079086D02*
X0170057Y0079086D01*
X0170057Y0080085D02*
X0163001Y0080085D01*
X0163001Y0081083D02*
X0170057Y0081083D01*
X0170057Y0082082D02*
X0162690Y0082082D01*
X0162230Y0083080D02*
X0170057Y0083080D01*
X0170057Y0084079D02*
X0161231Y0084079D01*
X0159820Y0086076D02*
X0170057Y0086076D01*
X0170057Y0087074D02*
X0161528Y0087074D01*
X0161032Y0086578D02*
X0162309Y0087856D01*
X0163001Y0089525D01*
X0163001Y0091331D01*
X0162309Y0093000D01*
X0161032Y0094278D01*
X0159363Y0094969D01*
X0157556Y0094969D01*
X0155887Y0094278D01*
X0154610Y0093000D01*
X0154414Y0092528D01*
X0152426Y0092528D01*
X0152248Y0092959D01*
X0150991Y0094216D01*
X0149348Y0094897D01*
X0147571Y0094897D01*
X0145928Y0094216D01*
X0144671Y0092959D01*
X0143991Y0091317D01*
X0143991Y0089539D01*
X0144671Y0087897D01*
X0145928Y0086640D01*
X0146430Y0086432D01*
X0145928Y0086224D01*
X0144671Y0084967D01*
X0143991Y0083325D01*
X0143991Y0081547D01*
X0144671Y0079905D01*
X0145928Y0078648D01*
X0147571Y0077967D01*
X0149348Y0077967D01*
X0150991Y0078648D01*
X0152248Y0079905D01*
X0152928Y0081547D01*
X0152928Y0083325D01*
X0152248Y0084967D01*
X0150991Y0086224D01*
X0150489Y0086432D01*
X0150991Y0086640D01*
X0152248Y0087897D01*
X0152426Y0088328D01*
X0154414Y0088328D01*
X0154610Y0087856D01*
X0155887Y0086578D01*
X0157556Y0085887D01*
X0159363Y0085887D01*
X0161032Y0086578D01*
X0162400Y0088073D02*
X0170057Y0088073D01*
X0170057Y0089071D02*
X0162813Y0089071D01*
X0163001Y0090070D02*
X0170057Y0090070D01*
X0170057Y0091068D02*
X0163001Y0091068D01*
X0162696Y0092067D02*
X0170057Y0092067D01*
X0170057Y0093065D02*
X0162245Y0093065D01*
X0161246Y0094064D02*
X0170057Y0094064D01*
X0170057Y0095062D02*
X0088876Y0095062D01*
X0089144Y0094064D02*
X0145776Y0094064D01*
X0144778Y0093065D02*
X0089411Y0093065D01*
X0089456Y0092067D02*
X0144302Y0092067D01*
X0143991Y0091068D02*
X0089456Y0091068D01*
X0089456Y0090070D02*
X0135758Y0090070D01*
X0134760Y0089071D02*
X0089206Y0089071D01*
X0088938Y0088073D02*
X0134294Y0088073D01*
X0133991Y0087074D02*
X0088629Y0087074D01*
X0088053Y0086076D02*
X0133991Y0086076D01*
X0134192Y0085077D02*
X0087476Y0085077D01*
X0086638Y0084079D02*
X0134606Y0084079D01*
X0135511Y0083080D02*
X0085639Y0083080D01*
X0084223Y0082082D02*
X0135762Y0082082D01*
X0134764Y0081083D02*
X0082250Y0081083D01*
X0088495Y0096061D02*
X0170057Y0096061D01*
X0170057Y0097060D02*
X0087919Y0097060D01*
X0087342Y0098058D02*
X0170057Y0098058D01*
X0170057Y0099057D02*
X0086405Y0099057D01*
X0085407Y0100055D02*
X0170057Y0100055D01*
X0170057Y0101054D02*
X0083821Y0101054D01*
X0081384Y0102052D02*
X0170057Y0102052D01*
X0170057Y0103051D02*
X0070313Y0103051D01*
X0071312Y0102052D02*
X0075535Y0102052D01*
X0073098Y0101054D02*
X0071816Y0101054D01*
X0068864Y0104049D02*
X0170057Y0104049D01*
X0180963Y0104049D02*
X0193279Y0104049D01*
X0193279Y0103051D02*
X0180963Y0103051D01*
X0180963Y0102052D02*
X0193279Y0102052D01*
X0193279Y0101054D02*
X0180963Y0101054D01*
X0180963Y0100055D02*
X0193279Y0100055D01*
X0193279Y0099057D02*
X0180963Y0099057D01*
X0180963Y0098058D02*
X0193279Y0098058D01*
X0193279Y0097060D02*
X0180963Y0097060D01*
X0180963Y0096061D02*
X0193279Y0096061D01*
X0193279Y0095062D02*
X0180963Y0095062D01*
X0180963Y0094064D02*
X0193279Y0094064D01*
X0193279Y0093065D02*
X0180963Y0093065D01*
X0180963Y0092067D02*
X0193279Y0092067D01*
X0193279Y0091068D02*
X0181209Y0091068D01*
X0181350Y0090070D02*
X0193279Y0090070D01*
X0193279Y0089071D02*
X0181173Y0089071D01*
X0180589Y0088073D02*
X0193279Y0088073D01*
X0214427Y0080271D02*
X0216350Y0080271D01*
X0216350Y0075856D01*
X0216761Y0074863D01*
X0217521Y0074104D01*
X0218988Y0072636D01*
X0214814Y0072636D01*
X0214427Y0073023D01*
X0214427Y0080271D01*
X0214427Y0080085D02*
X0216350Y0080085D01*
X0216350Y0079086D02*
X0214427Y0079086D01*
X0214427Y0078088D02*
X0216350Y0078088D01*
X0216350Y0077089D02*
X0214427Y0077089D01*
X0214427Y0076091D02*
X0216350Y0076091D01*
X0216666Y0075092D02*
X0214427Y0075092D01*
X0214427Y0074094D02*
X0217531Y0074094D01*
X0217521Y0074104D02*
X0217521Y0074104D01*
X0218529Y0073095D02*
X0214427Y0073095D01*
X0221750Y0077511D02*
X0222688Y0076573D01*
X0235349Y0076573D01*
X0235349Y0078551D01*
X0234911Y0078989D01*
X0234380Y0080271D01*
X0221750Y0080271D01*
X0221750Y0077511D01*
X0221750Y0078088D02*
X0235349Y0078088D01*
X0235349Y0077089D02*
X0222172Y0077089D01*
X0221750Y0079086D02*
X0234871Y0079086D01*
X0234457Y0080085D02*
X0221750Y0080085D01*
X0193279Y0105048D02*
X0180963Y0105048D01*
X0180963Y0106046D02*
X0193279Y0106046D01*
X0193279Y0107045D02*
X0180963Y0107045D01*
X0180963Y0108043D02*
X0193279Y0108043D01*
X0193279Y0109042D02*
X0180963Y0109042D01*
X0180963Y0110040D02*
X0193279Y0110040D01*
X0193279Y0111039D02*
X0180963Y0111039D01*
X0180963Y0112037D02*
X0193279Y0112037D01*
X0193279Y0113036D02*
X0180963Y0113036D01*
X0180963Y0114034D02*
X0193279Y0114034D01*
X0193279Y0115033D02*
X0180963Y0115033D01*
X0180963Y0116031D02*
X0193279Y0116031D01*
X0193279Y0117030D02*
X0180963Y0117030D01*
X0180963Y0118028D02*
X0193279Y0118028D01*
X0193279Y0119027D02*
X0180963Y0119027D01*
X0180963Y0120025D02*
X0193279Y0120025D01*
X0193279Y0121024D02*
X0180963Y0121024D01*
X0180963Y0122022D02*
X0193279Y0122022D01*
X0193279Y0123021D02*
X0180963Y0123021D01*
X0180963Y0124019D02*
X0193279Y0124019D01*
X0193279Y0125018D02*
X0180963Y0125018D01*
X0180963Y0126016D02*
X0193279Y0126016D01*
X0193279Y0127015D02*
X0180963Y0127015D01*
X0180963Y0128013D02*
X0193279Y0128013D01*
X0193279Y0129012D02*
X0180963Y0129012D01*
X0180963Y0130010D02*
X0193279Y0130010D01*
X0193279Y0131009D02*
X0180963Y0131009D01*
X0180963Y0132007D02*
X0193279Y0132007D01*
X0193279Y0133006D02*
X0180963Y0133006D01*
X0180963Y0134004D02*
X0193279Y0134004D01*
X0193279Y0135003D02*
X0180963Y0135003D01*
X0190074Y0137357D02*
X0081806Y0137357D01*
X0081806Y0191491D01*
X0190074Y0191491D01*
X0190074Y0137357D01*
X0190074Y0137998D02*
X0081806Y0137998D01*
X0081806Y0138997D02*
X0190074Y0138997D01*
X0190074Y0139996D02*
X0081806Y0139996D01*
X0081806Y0140994D02*
X0190074Y0140994D01*
X0190074Y0141993D02*
X0081806Y0141993D01*
X0081806Y0142991D02*
X0190074Y0142991D01*
X0190074Y0143990D02*
X0081806Y0143990D01*
X0081806Y0144988D02*
X0190074Y0144988D01*
X0190074Y0145987D02*
X0081806Y0145987D01*
X0081806Y0146985D02*
X0190074Y0146985D01*
X0190074Y0147984D02*
X0081806Y0147984D01*
X0081806Y0148982D02*
X0190074Y0148982D01*
X0190074Y0149981D02*
X0081806Y0149981D01*
X0081806Y0150979D02*
X0190074Y0150979D01*
X0190074Y0151978D02*
X0081806Y0151978D01*
X0081806Y0152976D02*
X0190074Y0152976D01*
X0190074Y0153975D02*
X0081806Y0153975D01*
X0081806Y0154973D02*
X0190074Y0154973D01*
X0190074Y0155972D02*
X0081806Y0155972D01*
X0081806Y0156970D02*
X0190074Y0156970D01*
X0190074Y0157969D02*
X0081806Y0157969D01*
X0081806Y0158967D02*
X0190074Y0158967D01*
X0190074Y0159966D02*
X0081806Y0159966D01*
X0081806Y0160964D02*
X0190074Y0160964D01*
X0190074Y0161963D02*
X0081806Y0161963D01*
X0081806Y0162961D02*
X0190074Y0162961D01*
X0190074Y0163960D02*
X0081806Y0163960D01*
X0081806Y0164958D02*
X0190074Y0164958D01*
X0190074Y0165957D02*
X0081806Y0165957D01*
X0081806Y0166955D02*
X0190074Y0166955D01*
X0190074Y0167954D02*
X0081806Y0167954D01*
X0081806Y0168952D02*
X0190074Y0168952D01*
X0190074Y0169951D02*
X0081806Y0169951D01*
X0081806Y0170949D02*
X0190074Y0170949D01*
X0190074Y0171948D02*
X0081806Y0171948D01*
X0081806Y0172946D02*
X0190074Y0172946D01*
X0190074Y0173945D02*
X0081806Y0173945D01*
X0081806Y0174943D02*
X0190074Y0174943D01*
X0190074Y0175942D02*
X0081806Y0175942D01*
X0081806Y0176940D02*
X0190074Y0176940D01*
X0190074Y0177939D02*
X0081806Y0177939D01*
X0081806Y0178937D02*
X0190074Y0178937D01*
X0190074Y0179936D02*
X0081806Y0179936D01*
X0081806Y0180934D02*
X0190074Y0180934D01*
X0190074Y0181933D02*
X0081806Y0181933D01*
X0081806Y0182931D02*
X0190074Y0182931D01*
X0190074Y0183930D02*
X0081806Y0183930D01*
X0081806Y0184929D02*
X0190074Y0184929D01*
X0190074Y0185927D02*
X0081806Y0185927D01*
X0081806Y0186926D02*
X0190074Y0186926D01*
X0190074Y0187924D02*
X0081806Y0187924D01*
X0081806Y0188923D02*
X0190074Y0188923D01*
X0190074Y0189921D02*
X0081806Y0189921D01*
X0081806Y0190920D02*
X0190074Y0190920D01*
X0192074Y0190920D02*
X0197216Y0190920D01*
X0197216Y0191918D02*
X0192074Y0191918D01*
X0192074Y0192319D02*
X0190902Y0193491D01*
X0080978Y0193491D01*
X0080169Y0192682D01*
X0080169Y0266263D01*
X0077869Y0268563D01*
X0077869Y0291885D01*
X0079837Y0293853D01*
X0108381Y0293853D01*
X0108381Y0380467D01*
X0137908Y0380467D01*
X0137908Y0424393D01*
X0369235Y0424393D01*
X0369235Y0364719D01*
X0362534Y0364719D01*
X0360638Y0366615D01*
X0357896Y0367751D01*
X0328843Y0367751D01*
X0327005Y0366990D01*
X0284459Y0324444D01*
X0268314Y0324444D01*
X0265572Y0323308D01*
X0263676Y0321412D01*
X0249530Y0321412D01*
X0248152Y0321983D01*
X0245184Y0321983D01*
X0243806Y0321412D01*
X0201885Y0321412D01*
X0201885Y0280482D01*
X0201103Y0280158D01*
X0200344Y0279398D01*
X0197627Y0276682D01*
X0197216Y0275690D01*
X0197216Y0144860D01*
X0193572Y0148504D01*
X0192579Y0148915D01*
X0192074Y0148915D01*
X0192074Y0192319D01*
X0191477Y0192917D02*
X0197216Y0192917D01*
X0197216Y0193915D02*
X0080169Y0193915D01*
X0080169Y0192917D02*
X0080403Y0192917D01*
X0080169Y0194914D02*
X0197216Y0194914D01*
X0197216Y0195912D02*
X0080169Y0195912D01*
X0080169Y0196911D02*
X0197216Y0196911D01*
X0197216Y0197909D02*
X0080169Y0197909D01*
X0080169Y0198908D02*
X0197216Y0198908D01*
X0197216Y0199906D02*
X0080169Y0199906D01*
X0080169Y0200905D02*
X0197216Y0200905D01*
X0197216Y0201903D02*
X0080169Y0201903D01*
X0080169Y0202902D02*
X0197216Y0202902D01*
X0197216Y0203900D02*
X0080169Y0203900D01*
X0080169Y0204899D02*
X0197216Y0204899D01*
X0197216Y0205897D02*
X0080169Y0205897D01*
X0080169Y0206896D02*
X0197216Y0206896D01*
X0197216Y0207894D02*
X0080169Y0207894D01*
X0080169Y0208893D02*
X0197216Y0208893D01*
X0197216Y0209891D02*
X0080169Y0209891D01*
X0080169Y0210890D02*
X0197216Y0210890D01*
X0197216Y0211888D02*
X0080169Y0211888D01*
X0080169Y0212887D02*
X0197216Y0212887D01*
X0197216Y0213885D02*
X0080169Y0213885D01*
X0080169Y0214884D02*
X0197216Y0214884D01*
X0197216Y0215882D02*
X0080169Y0215882D01*
X0080169Y0216881D02*
X0197216Y0216881D01*
X0197216Y0217879D02*
X0080169Y0217879D01*
X0080169Y0218878D02*
X0197216Y0218878D01*
X0197216Y0219876D02*
X0080169Y0219876D01*
X0080169Y0220875D02*
X0197216Y0220875D01*
X0197216Y0221873D02*
X0080169Y0221873D01*
X0080169Y0222872D02*
X0197216Y0222872D01*
X0197216Y0223870D02*
X0080169Y0223870D01*
X0080169Y0224869D02*
X0197216Y0224869D01*
X0197216Y0225867D02*
X0080169Y0225867D01*
X0080169Y0226866D02*
X0197216Y0226866D01*
X0197216Y0227865D02*
X0080169Y0227865D01*
X0080169Y0228863D02*
X0197216Y0228863D01*
X0197216Y0229862D02*
X0080169Y0229862D01*
X0080169Y0230860D02*
X0197216Y0230860D01*
X0197216Y0231859D02*
X0080169Y0231859D01*
X0080169Y0232857D02*
X0197216Y0232857D01*
X0197216Y0233856D02*
X0080169Y0233856D01*
X0080169Y0234854D02*
X0197216Y0234854D01*
X0197216Y0235853D02*
X0080169Y0235853D01*
X0080169Y0236851D02*
X0197216Y0236851D01*
X0197216Y0237850D02*
X0080169Y0237850D01*
X0080169Y0238848D02*
X0197216Y0238848D01*
X0197216Y0239847D02*
X0080169Y0239847D01*
X0080169Y0240845D02*
X0197216Y0240845D01*
X0197216Y0241844D02*
X0080169Y0241844D01*
X0080169Y0242842D02*
X0197216Y0242842D01*
X0197216Y0243841D02*
X0080169Y0243841D01*
X0080169Y0244839D02*
X0197216Y0244839D01*
X0197216Y0245838D02*
X0080169Y0245838D01*
X0080169Y0246836D02*
X0197216Y0246836D01*
X0197216Y0247835D02*
X0080169Y0247835D01*
X0080169Y0248833D02*
X0197216Y0248833D01*
X0197216Y0249832D02*
X0080169Y0249832D01*
X0080169Y0250830D02*
X0197216Y0250830D01*
X0197216Y0251829D02*
X0080169Y0251829D01*
X0080169Y0252827D02*
X0197216Y0252827D01*
X0197216Y0253826D02*
X0080169Y0253826D01*
X0080169Y0254824D02*
X0197216Y0254824D01*
X0197216Y0255823D02*
X0080169Y0255823D01*
X0080169Y0256821D02*
X0197216Y0256821D01*
X0197216Y0257820D02*
X0080169Y0257820D01*
X0080169Y0258818D02*
X0197216Y0258818D01*
X0197216Y0259817D02*
X0080169Y0259817D01*
X0080169Y0260815D02*
X0197216Y0260815D01*
X0197216Y0261814D02*
X0080169Y0261814D01*
X0080169Y0262812D02*
X0197216Y0262812D01*
X0197216Y0263811D02*
X0080169Y0263811D01*
X0080169Y0264809D02*
X0197216Y0264809D01*
X0197216Y0265808D02*
X0080169Y0265808D01*
X0079625Y0266806D02*
X0197216Y0266806D01*
X0197216Y0267805D02*
X0078627Y0267805D01*
X0077869Y0268803D02*
X0197216Y0268803D01*
X0197216Y0269802D02*
X0077869Y0269802D01*
X0077869Y0270800D02*
X0197216Y0270800D01*
X0197216Y0271799D02*
X0077869Y0271799D01*
X0077869Y0272798D02*
X0197216Y0272798D01*
X0197216Y0273796D02*
X0077869Y0273796D01*
X0077869Y0274795D02*
X0197216Y0274795D01*
X0197259Y0275793D02*
X0077869Y0275793D01*
X0077869Y0276792D02*
X0197737Y0276792D01*
X0198735Y0277790D02*
X0077869Y0277790D01*
X0077869Y0278789D02*
X0199734Y0278789D01*
X0200733Y0279787D02*
X0077869Y0279787D01*
X0077869Y0280786D02*
X0201885Y0280786D01*
X0201885Y0281784D02*
X0077869Y0281784D01*
X0077869Y0282783D02*
X0201885Y0282783D01*
X0201885Y0283781D02*
X0077869Y0283781D01*
X0077869Y0284780D02*
X0201885Y0284780D01*
X0201885Y0285778D02*
X0077869Y0285778D01*
X0077869Y0286777D02*
X0201885Y0286777D01*
X0201885Y0287775D02*
X0077869Y0287775D01*
X0077869Y0288774D02*
X0201885Y0288774D01*
X0201885Y0289772D02*
X0077869Y0289772D01*
X0077869Y0290771D02*
X0201885Y0290771D01*
X0201885Y0291769D02*
X0077869Y0291769D01*
X0078752Y0292768D02*
X0201885Y0292768D01*
X0201885Y0293766D02*
X0079751Y0293766D01*
X0108381Y0294765D02*
X0201885Y0294765D01*
X0201885Y0295763D02*
X0108381Y0295763D01*
X0108381Y0296762D02*
X0201885Y0296762D01*
X0201885Y0297760D02*
X0108381Y0297760D01*
X0108381Y0298759D02*
X0201885Y0298759D01*
X0201885Y0299757D02*
X0108381Y0299757D01*
X0108381Y0300756D02*
X0201885Y0300756D01*
X0201885Y0301754D02*
X0108381Y0301754D01*
X0108381Y0302753D02*
X0201885Y0302753D01*
X0201885Y0303751D02*
X0108381Y0303751D01*
X0108381Y0304750D02*
X0201885Y0304750D01*
X0201885Y0305748D02*
X0108381Y0305748D01*
X0108381Y0306747D02*
X0201885Y0306747D01*
X0201885Y0307745D02*
X0108381Y0307745D01*
X0108381Y0308744D02*
X0201885Y0308744D01*
X0201885Y0309742D02*
X0108381Y0309742D01*
X0108381Y0310741D02*
X0201885Y0310741D01*
X0201885Y0311739D02*
X0108381Y0311739D01*
X0108381Y0312738D02*
X0201885Y0312738D01*
X0201885Y0313736D02*
X0108381Y0313736D01*
X0108381Y0314735D02*
X0201885Y0314735D01*
X0201885Y0315734D02*
X0108381Y0315734D01*
X0108381Y0316732D02*
X0201885Y0316732D01*
X0201885Y0317731D02*
X0108381Y0317731D01*
X0108381Y0318729D02*
X0201885Y0318729D01*
X0201885Y0319728D02*
X0108381Y0319728D01*
X0108381Y0320726D02*
X0201885Y0320726D01*
X0244560Y0321725D02*
X0108381Y0321725D01*
X0108381Y0322723D02*
X0264987Y0322723D01*
X0265572Y0323308D02*
X0265572Y0323308D01*
X0266571Y0323722D02*
X0108381Y0323722D01*
X0108381Y0324720D02*
X0284736Y0324720D01*
X0285734Y0325719D02*
X0108381Y0325719D01*
X0108381Y0326717D02*
X0286733Y0326717D01*
X0287731Y0327716D02*
X0108381Y0327716D01*
X0108381Y0328714D02*
X0288730Y0328714D01*
X0289728Y0329713D02*
X0108381Y0329713D01*
X0108381Y0330711D02*
X0290727Y0330711D01*
X0291725Y0331710D02*
X0108381Y0331710D01*
X0108381Y0332708D02*
X0292724Y0332708D01*
X0293722Y0333707D02*
X0108381Y0333707D01*
X0108381Y0334705D02*
X0294721Y0334705D01*
X0295719Y0335704D02*
X0108381Y0335704D01*
X0108381Y0336702D02*
X0296718Y0336702D01*
X0297716Y0337701D02*
X0108381Y0337701D01*
X0108381Y0338699D02*
X0298715Y0338699D01*
X0299713Y0339698D02*
X0108381Y0339698D01*
X0108381Y0340696D02*
X0300712Y0340696D01*
X0301710Y0341695D02*
X0108381Y0341695D01*
X0108381Y0342693D02*
X0302709Y0342693D01*
X0303707Y0343692D02*
X0108381Y0343692D01*
X0108381Y0344690D02*
X0304706Y0344690D01*
X0305704Y0345689D02*
X0108381Y0345689D01*
X0108381Y0346687D02*
X0306703Y0346687D01*
X0307701Y0347686D02*
X0108381Y0347686D01*
X0108381Y0348684D02*
X0308700Y0348684D01*
X0309698Y0349683D02*
X0108381Y0349683D01*
X0108381Y0350681D02*
X0310697Y0350681D01*
X0311695Y0351680D02*
X0108381Y0351680D01*
X0108381Y0352678D02*
X0312694Y0352678D01*
X0313692Y0353677D02*
X0108381Y0353677D01*
X0108381Y0354675D02*
X0314691Y0354675D01*
X0315690Y0355674D02*
X0108381Y0355674D01*
X0108381Y0356672D02*
X0316688Y0356672D01*
X0317687Y0357671D02*
X0108381Y0357671D01*
X0108381Y0358669D02*
X0318685Y0358669D01*
X0319684Y0359668D02*
X0108381Y0359668D01*
X0108381Y0360667D02*
X0320682Y0360667D01*
X0321681Y0361665D02*
X0108381Y0361665D01*
X0108381Y0362664D02*
X0322679Y0362664D01*
X0323678Y0363662D02*
X0108381Y0363662D01*
X0108381Y0364661D02*
X0324676Y0364661D01*
X0325675Y0365659D02*
X0108381Y0365659D01*
X0108381Y0366658D02*
X0326673Y0366658D01*
X0328614Y0367656D02*
X0108381Y0367656D01*
X0108381Y0368655D02*
X0369235Y0368655D01*
X0369235Y0369653D02*
X0108381Y0369653D01*
X0108381Y0370652D02*
X0369235Y0370652D01*
X0369235Y0371650D02*
X0108381Y0371650D01*
X0108381Y0372649D02*
X0369235Y0372649D01*
X0369235Y0373647D02*
X0108381Y0373647D01*
X0108381Y0374646D02*
X0369235Y0374646D01*
X0369235Y0375644D02*
X0108381Y0375644D01*
X0108381Y0376643D02*
X0369235Y0376643D01*
X0369235Y0377641D02*
X0108381Y0377641D01*
X0108381Y0378640D02*
X0369235Y0378640D01*
X0369235Y0379638D02*
X0108381Y0379638D01*
X0137908Y0380637D02*
X0369235Y0380637D01*
X0369235Y0381635D02*
X0137908Y0381635D01*
X0137908Y0382634D02*
X0369235Y0382634D01*
X0369235Y0383632D02*
X0137908Y0383632D01*
X0137908Y0384631D02*
X0369235Y0384631D01*
X0369235Y0385629D02*
X0137908Y0385629D01*
X0137908Y0386628D02*
X0369235Y0386628D01*
X0369235Y0387626D02*
X0137908Y0387626D01*
X0137908Y0388625D02*
X0369235Y0388625D01*
X0369235Y0389623D02*
X0137908Y0389623D01*
X0137908Y0390622D02*
X0369235Y0390622D01*
X0369235Y0391620D02*
X0137908Y0391620D01*
X0137908Y0392619D02*
X0369235Y0392619D01*
X0369235Y0393617D02*
X0137908Y0393617D01*
X0137908Y0394616D02*
X0369235Y0394616D01*
X0369235Y0395614D02*
X0137908Y0395614D01*
X0137908Y0396613D02*
X0369235Y0396613D01*
X0369235Y0397611D02*
X0137908Y0397611D01*
X0137908Y0398610D02*
X0369235Y0398610D01*
X0369235Y0399608D02*
X0137908Y0399608D01*
X0137908Y0400607D02*
X0369235Y0400607D01*
X0369235Y0401605D02*
X0137908Y0401605D01*
X0137908Y0402604D02*
X0369235Y0402604D01*
X0369235Y0403602D02*
X0137908Y0403602D01*
X0137908Y0404601D02*
X0369235Y0404601D01*
X0369235Y0405600D02*
X0137908Y0405600D01*
X0137908Y0406598D02*
X0369235Y0406598D01*
X0369235Y0407597D02*
X0137908Y0407597D01*
X0137908Y0408595D02*
X0369235Y0408595D01*
X0369235Y0409594D02*
X0137908Y0409594D01*
X0137908Y0410592D02*
X0369235Y0410592D01*
X0369235Y0411591D02*
X0137908Y0411591D01*
X0137908Y0412589D02*
X0369235Y0412589D01*
X0369235Y0413588D02*
X0137908Y0413588D01*
X0137908Y0414586D02*
X0369235Y0414586D01*
X0369235Y0415585D02*
X0137908Y0415585D01*
X0137908Y0416583D02*
X0369235Y0416583D01*
X0369235Y0417582D02*
X0137908Y0417582D01*
X0137908Y0418580D02*
X0369235Y0418580D01*
X0369235Y0419579D02*
X0137908Y0419579D01*
X0137908Y0420577D02*
X0369235Y0420577D01*
X0369235Y0421576D02*
X0137908Y0421576D01*
X0137908Y0422574D02*
X0369235Y0422574D01*
X0369235Y0423573D02*
X0137908Y0423573D01*
X0248776Y0321725D02*
X0263989Y0321725D01*
X0358125Y0367656D02*
X0369235Y0367656D01*
X0369235Y0366658D02*
X0360536Y0366658D01*
X0360638Y0366615D02*
X0360638Y0366615D01*
X0361594Y0365659D02*
X0369235Y0365659D01*
X0386503Y0365659D02*
X0537130Y0365659D01*
X0536866Y0365923D02*
X0537734Y0365055D01*
X0538869Y0364585D01*
X0540097Y0364585D01*
X0541232Y0365055D01*
X0542101Y0365923D01*
X0542459Y0366789D01*
X0547132Y0366789D01*
X0547235Y0366540D01*
X0548501Y0365275D01*
X0550155Y0364589D01*
X0557945Y0364589D01*
X0559599Y0365275D01*
X0560805Y0366481D01*
X0560805Y0351698D01*
X0559599Y0352904D01*
X0557945Y0353589D01*
X0550155Y0353589D01*
X0548501Y0352904D01*
X0547235Y0351638D01*
X0546550Y0349985D01*
X0546550Y0348194D01*
X0547235Y0346540D01*
X0548501Y0345275D01*
X0550155Y0344589D01*
X0557945Y0344589D01*
X0559599Y0345275D01*
X0560805Y0346481D01*
X0560805Y0341698D01*
X0559599Y0342904D01*
X0557945Y0343589D01*
X0550155Y0343589D01*
X0548501Y0342904D01*
X0547235Y0341638D01*
X0546550Y0339985D01*
X0546550Y0338194D01*
X0547235Y0336540D01*
X0548252Y0335523D01*
X0506730Y0335523D01*
X0506372Y0336388D01*
X0505504Y0337256D01*
X0504369Y0337726D01*
X0503141Y0337726D01*
X0502006Y0337256D01*
X0501137Y0336388D01*
X0500667Y0335253D01*
X0500667Y0334025D01*
X0501137Y0332890D01*
X0502006Y0332022D01*
X0503141Y0331552D01*
X0503453Y0331552D01*
X0504082Y0330923D01*
X0560184Y0330923D01*
X0560805Y0330302D01*
X0560805Y0299856D01*
X0560488Y0299539D01*
X0560018Y0298404D01*
X0560018Y0297176D01*
X0560488Y0296041D01*
X0561356Y0295173D01*
X0562491Y0294703D01*
X0563719Y0294703D01*
X0564854Y0295173D01*
X0565723Y0296041D01*
X0566193Y0297176D01*
X0566193Y0298404D01*
X0565723Y0299539D01*
X0565405Y0299856D01*
X0565405Y0368625D01*
X0563988Y0370042D01*
X0562641Y0371389D01*
X0560968Y0371389D01*
X0560865Y0371638D01*
X0559599Y0372904D01*
X0557945Y0373589D01*
X0550155Y0373589D01*
X0548501Y0372904D01*
X0547235Y0371638D01*
X0547132Y0371389D01*
X0539948Y0371389D01*
X0539318Y0370760D01*
X0538869Y0370760D01*
X0537734Y0370289D01*
X0536866Y0369421D01*
X0536396Y0368286D01*
X0536396Y0367058D01*
X0536866Y0365923D01*
X0536562Y0366658D02*
X0386503Y0366658D01*
X0386503Y0367656D02*
X0536396Y0367656D01*
X0536548Y0368655D02*
X0386503Y0368655D01*
X0386503Y0369653D02*
X0537098Y0369653D01*
X0538609Y0370652D02*
X0386503Y0370652D01*
X0386503Y0371650D02*
X0547247Y0371650D01*
X0548245Y0372649D02*
X0386503Y0372649D01*
X0386503Y0373647D02*
X0608605Y0373647D01*
X0608605Y0372649D02*
X0559855Y0372649D01*
X0560853Y0371650D02*
X0608605Y0371650D01*
X0608605Y0370652D02*
X0563378Y0370652D01*
X0564377Y0369653D02*
X0608605Y0369653D01*
X0608605Y0368655D02*
X0565375Y0368655D01*
X0565405Y0367656D02*
X0608605Y0367656D01*
X0608605Y0366658D02*
X0565405Y0366658D01*
X0565405Y0365659D02*
X0608605Y0365659D01*
X0608605Y0364661D02*
X0565405Y0364661D01*
X0565405Y0363662D02*
X0608605Y0363662D01*
X0608605Y0362664D02*
X0565405Y0362664D01*
X0565405Y0361665D02*
X0608605Y0361665D01*
X0608605Y0360667D02*
X0565405Y0360667D01*
X0565405Y0359668D02*
X0608605Y0359668D01*
X0608605Y0358669D02*
X0565405Y0358669D01*
X0565405Y0357671D02*
X0608605Y0357671D01*
X0608605Y0356672D02*
X0565405Y0356672D01*
X0565405Y0355674D02*
X0608605Y0355674D01*
X0608605Y0354675D02*
X0565405Y0354675D01*
X0565405Y0353677D02*
X0608605Y0353677D01*
X0608605Y0352678D02*
X0565405Y0352678D01*
X0565405Y0351680D02*
X0608605Y0351680D01*
X0608605Y0350681D02*
X0565405Y0350681D01*
X0565405Y0349683D02*
X0608605Y0349683D01*
X0608605Y0348684D02*
X0565405Y0348684D01*
X0565405Y0347686D02*
X0608605Y0347686D01*
X0608605Y0346687D02*
X0565405Y0346687D01*
X0565405Y0345689D02*
X0608605Y0345689D01*
X0608605Y0344690D02*
X0565405Y0344690D01*
X0565405Y0343692D02*
X0608605Y0343692D01*
X0608605Y0342693D02*
X0565405Y0342693D01*
X0565405Y0341695D02*
X0608605Y0341695D01*
X0608605Y0340696D02*
X0565405Y0340696D01*
X0565405Y0339698D02*
X0608605Y0339698D01*
X0608605Y0338699D02*
X0565405Y0338699D01*
X0565405Y0337701D02*
X0608605Y0337701D01*
X0608605Y0336702D02*
X0565405Y0336702D01*
X0565405Y0335704D02*
X0608605Y0335704D01*
X0608605Y0334705D02*
X0565405Y0334705D01*
X0565405Y0333707D02*
X0608605Y0333707D01*
X0608605Y0332708D02*
X0565405Y0332708D01*
X0565405Y0331710D02*
X0608605Y0331710D01*
X0608605Y0330711D02*
X0565405Y0330711D01*
X0565405Y0329713D02*
X0608605Y0329713D01*
X0608605Y0328714D02*
X0565405Y0328714D01*
X0565405Y0327716D02*
X0608605Y0327716D01*
X0608605Y0326717D02*
X0565405Y0326717D01*
X0565405Y0325719D02*
X0608605Y0325719D01*
X0608605Y0324720D02*
X0565405Y0324720D01*
X0565405Y0323722D02*
X0608605Y0323722D01*
X0608605Y0322723D02*
X0565405Y0322723D01*
X0565405Y0321725D02*
X0608605Y0321725D01*
X0608605Y0320726D02*
X0565405Y0320726D01*
X0565405Y0319728D02*
X0608605Y0319728D01*
X0608605Y0318729D02*
X0565405Y0318729D01*
X0565405Y0317731D02*
X0608605Y0317731D01*
X0608605Y0316732D02*
X0565405Y0316732D01*
X0565405Y0315734D02*
X0608605Y0315734D01*
X0608605Y0314735D02*
X0565405Y0314735D01*
X0565405Y0313736D02*
X0608605Y0313736D01*
X0608605Y0312738D02*
X0565405Y0312738D01*
X0565405Y0311739D02*
X0608605Y0311739D01*
X0608605Y0310741D02*
X0565405Y0310741D01*
X0565405Y0309742D02*
X0608605Y0309742D01*
X0608605Y0308744D02*
X0565405Y0308744D01*
X0565405Y0307745D02*
X0608605Y0307745D01*
X0608605Y0306747D02*
X0565405Y0306747D01*
X0565405Y0305748D02*
X0608605Y0305748D01*
X0608605Y0304750D02*
X0565405Y0304750D01*
X0565405Y0303751D02*
X0608605Y0303751D01*
X0608605Y0302753D02*
X0565405Y0302753D01*
X0565405Y0301754D02*
X0608605Y0301754D01*
X0608605Y0300756D02*
X0565405Y0300756D01*
X0565504Y0299757D02*
X0608605Y0299757D01*
X0608605Y0298759D02*
X0566046Y0298759D01*
X0566193Y0297760D02*
X0608605Y0297760D01*
X0608605Y0296762D02*
X0566021Y0296762D01*
X0565444Y0295763D02*
X0608605Y0295763D01*
X0608605Y0294765D02*
X0563869Y0294765D01*
X0562342Y0294765D02*
X0427410Y0294765D01*
X0427410Y0295763D02*
X0560766Y0295763D01*
X0560189Y0296762D02*
X0427410Y0296762D01*
X0427410Y0297760D02*
X0560018Y0297760D01*
X0560165Y0298759D02*
X0427410Y0298759D01*
X0427410Y0299757D02*
X0560706Y0299757D01*
X0560805Y0300756D02*
X0427410Y0300756D01*
X0427410Y0301754D02*
X0560805Y0301754D01*
X0560805Y0302753D02*
X0427410Y0302753D01*
X0427410Y0303751D02*
X0560805Y0303751D01*
X0560805Y0304750D02*
X0427410Y0304750D01*
X0427410Y0305748D02*
X0560805Y0305748D01*
X0560805Y0306747D02*
X0481528Y0306747D01*
X0481298Y0306517D02*
X0483263Y0308482D01*
X0483995Y0308482D01*
X0485130Y0308952D01*
X0485998Y0309821D01*
X0486468Y0310956D01*
X0486468Y0312184D01*
X0485998Y0313319D01*
X0485130Y0314187D01*
X0483995Y0314657D01*
X0482767Y0314657D01*
X0481632Y0314187D01*
X0480763Y0313319D01*
X0480293Y0312184D01*
X0480293Y0311452D01*
X0479558Y0310717D01*
X0472703Y0310717D01*
X0474408Y0312423D01*
X0475638Y0313653D01*
X0475638Y0315209D01*
X0476156Y0315726D01*
X0476626Y0316861D01*
X0476626Y0318089D01*
X0476156Y0319224D01*
X0475287Y0320093D01*
X0474152Y0320563D01*
X0472924Y0320563D01*
X0471789Y0320093D01*
X0470921Y0319224D01*
X0470451Y0318089D01*
X0470451Y0316861D01*
X0470921Y0315726D01*
X0471347Y0315301D01*
X0470700Y0314654D01*
X0425424Y0314654D01*
X0424194Y0313424D01*
X0420257Y0309487D01*
X0420257Y0049873D01*
X0421487Y0048643D01*
X0424361Y0045769D01*
X0485876Y0045769D01*
X0488076Y0043569D01*
X0491638Y0043569D01*
X0494157Y0046088D01*
X0494157Y0049650D01*
X0492211Y0051596D01*
X0497275Y0051596D01*
X0497389Y0051482D01*
X0495557Y0049650D01*
X0495557Y0046088D01*
X0498076Y0043569D01*
X0501638Y0043569D01*
X0504157Y0046088D01*
X0504157Y0049650D01*
X0501957Y0051850D01*
X0501957Y0052853D01*
X0500245Y0054566D01*
X0499014Y0055796D01*
X0427410Y0055796D01*
X0427410Y0260200D01*
X0427590Y0259764D01*
X0427590Y0059989D01*
X0428001Y0058997D01*
X0428761Y0058238D01*
X0429911Y0057088D01*
X0430670Y0056328D01*
X0431663Y0055917D01*
X0516711Y0055917D01*
X0517157Y0055471D01*
X0517157Y0051250D01*
X0515557Y0049650D01*
X0515557Y0046088D01*
X0518076Y0043569D01*
X0521638Y0043569D01*
X0524157Y0046088D01*
X0524157Y0049650D01*
X0522557Y0051250D01*
X0522557Y0057127D01*
X0522146Y0058119D01*
X0520411Y0059854D01*
X0525570Y0059854D01*
X0527157Y0058266D01*
X0527157Y0051250D01*
X0525557Y0049650D01*
X0525557Y0046088D01*
X0528076Y0043569D01*
X0531638Y0043569D01*
X0534157Y0046088D01*
X0534157Y0049650D01*
X0532557Y0051250D01*
X0532557Y0059922D01*
X0532146Y0060914D01*
X0529269Y0063791D01*
X0535412Y0063791D01*
X0537157Y0062046D01*
X0537157Y0051250D01*
X0535557Y0049650D01*
X0535557Y0046088D01*
X0538076Y0043569D01*
X0541638Y0043569D01*
X0544157Y0046088D01*
X0544157Y0049650D01*
X0542557Y0051250D01*
X0542557Y0063701D01*
X0542146Y0064694D01*
X0541387Y0065453D01*
X0539112Y0067728D01*
X0545255Y0067728D01*
X0547157Y0065825D01*
X0547157Y0051250D01*
X0545557Y0049650D01*
X0545557Y0046088D01*
X0548076Y0043569D01*
X0551638Y0043569D01*
X0554157Y0046088D01*
X0554157Y0049650D01*
X0552557Y0051250D01*
X0552557Y0067481D01*
X0552146Y0068473D01*
X0551387Y0069233D01*
X0551387Y0069233D01*
X0548954Y0071665D01*
X0554113Y0071665D01*
X0557157Y0068621D01*
X0557157Y0051250D01*
X0555557Y0049650D01*
X0555557Y0046088D01*
X0558076Y0043569D01*
X0561638Y0043569D01*
X0564157Y0046088D01*
X0564157Y0049650D01*
X0562557Y0051250D01*
X0562557Y0070276D01*
X0562146Y0071268D01*
X0561387Y0072028D01*
X0556828Y0076586D01*
X0562658Y0076586D01*
X0563650Y0076997D01*
X0563919Y0077266D01*
X0564854Y0077653D01*
X0565723Y0078522D01*
X0566193Y0079656D01*
X0566193Y0080885D01*
X0566046Y0081238D01*
X0566357Y0080927D01*
X0566357Y0050450D01*
X0565557Y0049650D01*
X0565557Y0046088D01*
X0568076Y0043569D01*
X0571638Y0043569D01*
X0572438Y0044369D01*
X0577276Y0044369D01*
X0578076Y0043569D01*
X0581638Y0043569D01*
X0584027Y0045958D01*
X0584027Y0039780D01*
X0581638Y0042169D01*
X0578076Y0042169D01*
X0575557Y0039650D01*
X0575557Y0036088D01*
X0578076Y0033569D01*
X0581638Y0033569D01*
X0584027Y0035958D01*
X0584027Y0033161D01*
X0583640Y0032774D01*
X0533712Y0032774D01*
X0532557Y0033928D01*
X0532557Y0034488D01*
X0534157Y0036088D01*
X0534157Y0039650D01*
X0531638Y0042169D01*
X0528076Y0042169D01*
X0525557Y0039650D01*
X0525557Y0036088D01*
X0527157Y0034488D01*
X0527157Y0032273D01*
X0527568Y0031280D01*
X0529590Y0029259D01*
X0386503Y0029259D01*
X0386503Y0423802D01*
X0608605Y0423802D01*
X0608605Y0029259D01*
X0587762Y0029259D01*
X0588257Y0029753D01*
X0589016Y0030513D01*
X0589427Y0031505D01*
X0589427Y0091634D01*
X0589016Y0092627D01*
X0585079Y0096564D01*
X0584320Y0097323D01*
X0583327Y0097734D01*
X0542570Y0097734D01*
X0542183Y0098121D01*
X0542183Y0128918D01*
X0542571Y0129853D01*
X0542571Y0131082D01*
X0542183Y0132017D01*
X0542183Y0159430D01*
X0542571Y0160365D01*
X0542571Y0161593D01*
X0542183Y0162529D01*
X0542183Y0191910D01*
X0542571Y0192845D01*
X0542571Y0194074D01*
X0542183Y0195009D01*
X0542183Y0223406D01*
X0542571Y0224341D01*
X0542571Y0225570D01*
X0542183Y0226505D01*
X0542183Y0254902D01*
X0542571Y0255838D01*
X0542571Y0257066D01*
X0542101Y0258201D01*
X0541232Y0259069D01*
X0540097Y0259539D01*
X0538869Y0259539D01*
X0537734Y0259069D01*
X0536866Y0258201D01*
X0536396Y0257066D01*
X0536396Y0255838D01*
X0536783Y0254902D01*
X0536783Y0226505D01*
X0536396Y0225570D01*
X0536396Y0224341D01*
X0536783Y0223406D01*
X0536783Y0195009D01*
X0536396Y0194074D01*
X0536396Y0192845D01*
X0536783Y0191910D01*
X0536783Y0162529D01*
X0536396Y0161593D01*
X0536396Y0160365D01*
X0536783Y0159430D01*
X0536783Y0132017D01*
X0536396Y0131082D01*
X0536396Y0129853D01*
X0536783Y0128918D01*
X0536783Y0096466D01*
X0537194Y0095473D01*
X0537954Y0094714D01*
X0539922Y0092745D01*
X0540915Y0092334D01*
X0581672Y0092334D01*
X0584027Y0089979D01*
X0584027Y0049780D01*
X0581638Y0052169D01*
X0578076Y0052169D01*
X0577276Y0051369D01*
X0573357Y0051369D01*
X0573357Y0083073D01*
X0572824Y0084359D01*
X0569025Y0088159D01*
X0568041Y0089143D01*
X0566754Y0089676D01*
X0494496Y0089676D01*
X0493209Y0089143D01*
X0492225Y0088159D01*
X0491692Y0086872D01*
X0491692Y0085480D01*
X0492225Y0084193D01*
X0493209Y0083209D01*
X0494496Y0082676D01*
X0561144Y0082676D01*
X0560488Y0082019D01*
X0560474Y0081986D01*
X0521348Y0081986D01*
X0520412Y0082374D01*
X0519184Y0082374D01*
X0518049Y0081904D01*
X0517181Y0081035D01*
X0516711Y0079900D01*
X0516711Y0078672D01*
X0517181Y0077537D01*
X0517653Y0077065D01*
X0453003Y0077065D01*
X0452990Y0077078D01*
X0452990Y0132481D01*
X0453378Y0133416D01*
X0453378Y0134645D01*
X0452908Y0135779D01*
X0452039Y0136648D01*
X0450904Y0137118D01*
X0449676Y0137118D01*
X0448541Y0136648D01*
X0447990Y0136097D01*
X0447990Y0160848D01*
X0471730Y0160848D01*
X0473730Y0158848D01*
X0477126Y0158848D01*
X0479528Y0161249D01*
X0479528Y0164646D01*
X0477126Y0167048D01*
X0473730Y0167048D01*
X0471730Y0165048D01*
X0448424Y0165048D01*
X0448378Y0165094D01*
X0448378Y0165826D01*
X0447908Y0166960D01*
X0447039Y0167829D01*
X0445904Y0168299D01*
X0444676Y0168299D01*
X0443541Y0167829D01*
X0442990Y0167278D01*
X0442990Y0192344D01*
X0471730Y0192344D01*
X0473730Y0190344D01*
X0477126Y0190344D01*
X0479528Y0192746D01*
X0479528Y0196142D01*
X0477126Y0198544D01*
X0473730Y0198544D01*
X0471730Y0196544D01*
X0443896Y0196544D01*
X0443378Y0197062D01*
X0443378Y0197794D01*
X0442908Y0198929D01*
X0442039Y0199797D01*
X0440904Y0200267D01*
X0439676Y0200267D01*
X0438541Y0199797D01*
X0437990Y0199246D01*
X0437990Y0223840D01*
X0471730Y0223840D01*
X0473730Y0221840D01*
X0477126Y0221840D01*
X0479528Y0224242D01*
X0479528Y0227638D01*
X0477126Y0230040D01*
X0473730Y0230040D01*
X0471730Y0228040D01*
X0438975Y0228040D01*
X0438378Y0228637D01*
X0438378Y0229369D01*
X0437908Y0230504D01*
X0437039Y0231372D01*
X0435904Y0231842D01*
X0434676Y0231842D01*
X0433541Y0231372D01*
X0432990Y0230821D01*
X0432990Y0256320D01*
X0471730Y0256320D01*
X0473730Y0254320D01*
X0477126Y0254320D01*
X0479528Y0256722D01*
X0479528Y0260118D01*
X0477126Y0262520D01*
X0473730Y0262520D01*
X0471730Y0260520D01*
X0434054Y0260520D01*
X0433378Y0261196D01*
X0433378Y0261928D01*
X0432908Y0263063D01*
X0432039Y0263931D01*
X0430904Y0264401D01*
X0429676Y0264401D01*
X0428541Y0263931D01*
X0427673Y0263063D01*
X0427410Y0262428D01*
X0427410Y0305779D01*
X0428148Y0306517D01*
X0481298Y0306517D01*
X0482526Y0307745D02*
X0560805Y0307745D01*
X0560805Y0308744D02*
X0484626Y0308744D01*
X0485920Y0309742D02*
X0560805Y0309742D01*
X0560805Y0310741D02*
X0486379Y0310741D01*
X0486468Y0311739D02*
X0560805Y0311739D01*
X0560805Y0312738D02*
X0486239Y0312738D01*
X0485580Y0313736D02*
X0560805Y0313736D01*
X0560805Y0314735D02*
X0475638Y0314735D01*
X0475638Y0313736D02*
X0481181Y0313736D01*
X0480523Y0312738D02*
X0474724Y0312738D01*
X0473725Y0311739D02*
X0480293Y0311739D01*
X0479582Y0310741D02*
X0472727Y0310741D01*
X0470781Y0314735D02*
X0386503Y0314735D01*
X0386503Y0315734D02*
X0470918Y0315734D01*
X0470504Y0316732D02*
X0386503Y0316732D01*
X0386503Y0317731D02*
X0470451Y0317731D01*
X0470716Y0318729D02*
X0386503Y0318729D01*
X0386503Y0319728D02*
X0471424Y0319728D01*
X0475652Y0319728D02*
X0560805Y0319728D01*
X0560805Y0320726D02*
X0386503Y0320726D01*
X0386503Y0321725D02*
X0560805Y0321725D01*
X0560805Y0322723D02*
X0386503Y0322723D01*
X0386503Y0323722D02*
X0560805Y0323722D01*
X0560805Y0324720D02*
X0386503Y0324720D01*
X0386503Y0325719D02*
X0560805Y0325719D01*
X0560805Y0326717D02*
X0386503Y0326717D01*
X0386503Y0327716D02*
X0560805Y0327716D01*
X0560805Y0328714D02*
X0386503Y0328714D01*
X0386503Y0329713D02*
X0560805Y0329713D01*
X0560396Y0330711D02*
X0386503Y0330711D01*
X0386503Y0331710D02*
X0502759Y0331710D01*
X0501319Y0332708D02*
X0386503Y0332708D01*
X0386503Y0333707D02*
X0500799Y0333707D01*
X0500667Y0334705D02*
X0386503Y0334705D01*
X0386503Y0335704D02*
X0500854Y0335704D01*
X0501452Y0336702D02*
X0386503Y0336702D01*
X0386503Y0337701D02*
X0503079Y0337701D01*
X0504431Y0337701D02*
X0546755Y0337701D01*
X0546550Y0338699D02*
X0386503Y0338699D01*
X0386503Y0339698D02*
X0546550Y0339698D01*
X0546845Y0340696D02*
X0386503Y0340696D01*
X0386503Y0341695D02*
X0547291Y0341695D01*
X0548290Y0342693D02*
X0386503Y0342693D01*
X0386503Y0343692D02*
X0560805Y0343692D01*
X0560805Y0344690D02*
X0558189Y0344690D01*
X0560013Y0345689D02*
X0560805Y0345689D01*
X0560805Y0342693D02*
X0559810Y0342693D01*
X0560805Y0336481D02*
X0559848Y0335523D01*
X0560805Y0335523D01*
X0560805Y0336481D01*
X0560805Y0335704D02*
X0560028Y0335704D01*
X0548072Y0335704D02*
X0506656Y0335704D01*
X0506058Y0336702D02*
X0547168Y0336702D01*
X0549911Y0344690D02*
X0386503Y0344690D01*
X0386503Y0345689D02*
X0548087Y0345689D01*
X0547174Y0346687D02*
X0386503Y0346687D01*
X0386503Y0347686D02*
X0546761Y0347686D01*
X0546550Y0348684D02*
X0386503Y0348684D01*
X0386503Y0349683D02*
X0546550Y0349683D01*
X0546839Y0350681D02*
X0386503Y0350681D01*
X0386503Y0351680D02*
X0547277Y0351680D01*
X0548275Y0352678D02*
X0386503Y0352678D01*
X0386503Y0353677D02*
X0560805Y0353677D01*
X0560805Y0354675D02*
X0386503Y0354675D01*
X0386503Y0355674D02*
X0560805Y0355674D01*
X0560805Y0356672D02*
X0386503Y0356672D01*
X0386503Y0357671D02*
X0560805Y0357671D01*
X0560805Y0358669D02*
X0386503Y0358669D01*
X0386503Y0359668D02*
X0560805Y0359668D01*
X0560805Y0360667D02*
X0386503Y0360667D01*
X0386503Y0361665D02*
X0560805Y0361665D01*
X0560805Y0362664D02*
X0386503Y0362664D01*
X0386503Y0363662D02*
X0560805Y0363662D01*
X0560805Y0364661D02*
X0558117Y0364661D01*
X0559984Y0365659D02*
X0560805Y0365659D01*
X0549983Y0364661D02*
X0540280Y0364661D01*
X0538686Y0364661D02*
X0386503Y0364661D01*
X0386503Y0374646D02*
X0550019Y0374646D01*
X0550155Y0374589D02*
X0557945Y0374589D01*
X0559599Y0375275D01*
X0560865Y0376540D01*
X0561550Y0378194D01*
X0561550Y0379985D01*
X0560865Y0381638D01*
X0559599Y0382904D01*
X0557945Y0383589D01*
X0550155Y0383589D01*
X0548501Y0382904D01*
X0547235Y0381638D01*
X0546550Y0379985D01*
X0546550Y0378194D01*
X0547235Y0376540D01*
X0548501Y0375275D01*
X0550155Y0374589D01*
X0548131Y0375644D02*
X0386503Y0375644D01*
X0386503Y0376643D02*
X0547193Y0376643D01*
X0546779Y0377641D02*
X0386503Y0377641D01*
X0386503Y0378640D02*
X0546550Y0378640D01*
X0546550Y0379638D02*
X0386503Y0379638D01*
X0386503Y0380637D02*
X0546820Y0380637D01*
X0547234Y0381635D02*
X0386503Y0381635D01*
X0386503Y0382634D02*
X0548230Y0382634D01*
X0559870Y0382634D02*
X0608605Y0382634D01*
X0608605Y0383632D02*
X0386503Y0383632D01*
X0386503Y0384631D02*
X0608605Y0384631D01*
X0608605Y0385629D02*
X0386503Y0385629D01*
X0386503Y0386628D02*
X0608605Y0386628D01*
X0608605Y0387626D02*
X0386503Y0387626D01*
X0386503Y0388625D02*
X0608605Y0388625D01*
X0608605Y0389623D02*
X0386503Y0389623D01*
X0386503Y0390622D02*
X0608605Y0390622D01*
X0608605Y0391620D02*
X0386503Y0391620D01*
X0386503Y0392619D02*
X0608605Y0392619D01*
X0608605Y0393617D02*
X0386503Y0393617D01*
X0386503Y0394616D02*
X0608605Y0394616D01*
X0608605Y0395614D02*
X0386503Y0395614D01*
X0386503Y0396613D02*
X0608605Y0396613D01*
X0608605Y0397611D02*
X0386503Y0397611D01*
X0386503Y0398610D02*
X0608605Y0398610D01*
X0608605Y0399608D02*
X0386503Y0399608D01*
X0386503Y0400607D02*
X0608605Y0400607D01*
X0608605Y0401605D02*
X0386503Y0401605D01*
X0386503Y0402604D02*
X0608605Y0402604D01*
X0608605Y0403602D02*
X0386503Y0403602D01*
X0386503Y0404601D02*
X0608605Y0404601D01*
X0608605Y0405600D02*
X0386503Y0405600D01*
X0386503Y0406598D02*
X0608605Y0406598D01*
X0608605Y0407597D02*
X0386503Y0407597D01*
X0386503Y0408595D02*
X0608605Y0408595D01*
X0608605Y0409594D02*
X0386503Y0409594D01*
X0386503Y0410592D02*
X0608605Y0410592D01*
X0608605Y0411591D02*
X0386503Y0411591D01*
X0386503Y0412589D02*
X0608605Y0412589D01*
X0608605Y0413588D02*
X0386503Y0413588D01*
X0386503Y0414586D02*
X0608605Y0414586D01*
X0608605Y0415585D02*
X0386503Y0415585D01*
X0386503Y0416583D02*
X0608605Y0416583D01*
X0608605Y0417582D02*
X0386503Y0417582D01*
X0386503Y0418580D02*
X0608605Y0418580D01*
X0608605Y0419579D02*
X0386503Y0419579D01*
X0386503Y0420577D02*
X0608605Y0420577D01*
X0608605Y0421576D02*
X0386503Y0421576D01*
X0386503Y0422574D02*
X0608605Y0422574D01*
X0608605Y0423573D02*
X0386503Y0423573D01*
X0476361Y0318729D02*
X0560805Y0318729D01*
X0560805Y0317731D02*
X0476626Y0317731D01*
X0476572Y0316732D02*
X0560805Y0316732D01*
X0560805Y0315734D02*
X0476159Y0315734D01*
X0477126Y0293032D02*
X0473730Y0293032D01*
X0471328Y0290630D01*
X0471328Y0287234D01*
X0473730Y0284832D01*
X0477126Y0284832D01*
X0479528Y0287234D01*
X0479528Y0290630D01*
X0477126Y0293032D01*
X0477391Y0292768D02*
X0483466Y0292768D01*
X0483730Y0293032D02*
X0481328Y0290630D01*
X0481328Y0287234D01*
X0483730Y0284832D01*
X0487126Y0284832D01*
X0489528Y0287234D01*
X0489528Y0290630D01*
X0487126Y0293032D01*
X0483730Y0293032D01*
X0482467Y0291769D02*
X0478389Y0291769D01*
X0479388Y0290771D02*
X0481469Y0290771D01*
X0481328Y0289772D02*
X0479528Y0289772D01*
X0479528Y0288774D02*
X0481328Y0288774D01*
X0481328Y0287775D02*
X0479528Y0287775D01*
X0479071Y0286777D02*
X0481785Y0286777D01*
X0482784Y0285778D02*
X0478072Y0285778D01*
X0472784Y0285778D02*
X0427410Y0285778D01*
X0427410Y0284780D02*
X0608605Y0284780D01*
X0608605Y0285778D02*
X0519569Y0285778D01*
X0518622Y0284832D02*
X0521024Y0287234D01*
X0521024Y0290630D01*
X0518622Y0293032D01*
X0515226Y0293032D01*
X0512824Y0290630D01*
X0512824Y0287234D01*
X0515226Y0284832D01*
X0518622Y0284832D01*
X0520567Y0286777D02*
X0608605Y0286777D01*
X0608605Y0287775D02*
X0521024Y0287775D01*
X0521024Y0288774D02*
X0608605Y0288774D01*
X0608605Y0289772D02*
X0521024Y0289772D01*
X0520884Y0290771D02*
X0608605Y0290771D01*
X0608605Y0291769D02*
X0519885Y0291769D01*
X0518887Y0292768D02*
X0608605Y0292768D01*
X0608605Y0293766D02*
X0427410Y0293766D01*
X0427410Y0292768D02*
X0473466Y0292768D01*
X0472467Y0291769D02*
X0427410Y0291769D01*
X0427410Y0290771D02*
X0471469Y0290771D01*
X0471328Y0289772D02*
X0427410Y0289772D01*
X0427410Y0288774D02*
X0471328Y0288774D01*
X0471328Y0287775D02*
X0427410Y0287775D01*
X0427410Y0286777D02*
X0471785Y0286777D01*
X0488072Y0285778D02*
X0514280Y0285778D01*
X0513281Y0286777D02*
X0489071Y0286777D01*
X0489528Y0287775D02*
X0512824Y0287775D01*
X0512824Y0288774D02*
X0489528Y0288774D01*
X0489528Y0289772D02*
X0512824Y0289772D01*
X0512965Y0290771D02*
X0489388Y0290771D01*
X0488389Y0291769D02*
X0513963Y0291769D01*
X0514962Y0292768D02*
X0487391Y0292768D01*
X0510226Y0267520D02*
X0507824Y0265118D01*
X0507824Y0261722D01*
X0510226Y0259320D01*
X0513622Y0259320D01*
X0516024Y0261722D01*
X0516024Y0265118D01*
X0513622Y0267520D01*
X0510226Y0267520D01*
X0509512Y0266806D02*
X0427410Y0266806D01*
X0427410Y0265808D02*
X0508514Y0265808D01*
X0507824Y0264809D02*
X0427410Y0264809D01*
X0427410Y0263811D02*
X0428421Y0263811D01*
X0427569Y0262812D02*
X0427410Y0262812D01*
X0427410Y0259817D02*
X0427569Y0259817D01*
X0427590Y0258818D02*
X0427410Y0258818D01*
X0427410Y0257820D02*
X0427590Y0257820D01*
X0427590Y0256821D02*
X0427410Y0256821D01*
X0427410Y0255823D02*
X0427590Y0255823D01*
X0427590Y0254824D02*
X0427410Y0254824D01*
X0427410Y0253826D02*
X0427590Y0253826D01*
X0427590Y0252827D02*
X0427410Y0252827D01*
X0427410Y0251829D02*
X0427590Y0251829D01*
X0427590Y0250830D02*
X0427410Y0250830D01*
X0427410Y0249832D02*
X0427590Y0249832D01*
X0427590Y0248833D02*
X0427410Y0248833D01*
X0427410Y0247835D02*
X0427590Y0247835D01*
X0427590Y0246836D02*
X0427410Y0246836D01*
X0427410Y0245838D02*
X0427590Y0245838D01*
X0427590Y0244839D02*
X0427410Y0244839D01*
X0427410Y0243841D02*
X0427590Y0243841D01*
X0427590Y0242842D02*
X0427410Y0242842D01*
X0427410Y0241844D02*
X0427590Y0241844D01*
X0427590Y0240845D02*
X0427410Y0240845D01*
X0427410Y0239847D02*
X0427590Y0239847D01*
X0427590Y0238848D02*
X0427410Y0238848D01*
X0427410Y0237850D02*
X0427590Y0237850D01*
X0427590Y0236851D02*
X0427410Y0236851D01*
X0427410Y0235853D02*
X0427590Y0235853D01*
X0427590Y0234854D02*
X0427410Y0234854D01*
X0427410Y0233856D02*
X0427590Y0233856D01*
X0427590Y0232857D02*
X0427410Y0232857D01*
X0427410Y0231859D02*
X0427590Y0231859D01*
X0427590Y0230860D02*
X0427410Y0230860D01*
X0427410Y0229862D02*
X0427590Y0229862D01*
X0427590Y0228863D02*
X0427410Y0228863D01*
X0427410Y0227865D02*
X0427590Y0227865D01*
X0427590Y0226866D02*
X0427410Y0226866D01*
X0427410Y0225867D02*
X0427590Y0225867D01*
X0427590Y0224869D02*
X0427410Y0224869D01*
X0427410Y0223870D02*
X0427590Y0223870D01*
X0427590Y0222872D02*
X0427410Y0222872D01*
X0427410Y0221873D02*
X0427590Y0221873D01*
X0427590Y0220875D02*
X0427410Y0220875D01*
X0427410Y0219876D02*
X0427590Y0219876D01*
X0427590Y0218878D02*
X0427410Y0218878D01*
X0427410Y0217879D02*
X0427590Y0217879D01*
X0427590Y0216881D02*
X0427410Y0216881D01*
X0427410Y0215882D02*
X0427590Y0215882D01*
X0427590Y0214884D02*
X0427410Y0214884D01*
X0427410Y0213885D02*
X0427590Y0213885D01*
X0427590Y0212887D02*
X0427410Y0212887D01*
X0427410Y0211888D02*
X0427590Y0211888D01*
X0427590Y0210890D02*
X0427410Y0210890D01*
X0427410Y0209891D02*
X0427590Y0209891D01*
X0427590Y0208893D02*
X0427410Y0208893D01*
X0427410Y0207894D02*
X0427590Y0207894D01*
X0427590Y0206896D02*
X0427410Y0206896D01*
X0427410Y0205897D02*
X0427590Y0205897D01*
X0427590Y0204899D02*
X0427410Y0204899D01*
X0427410Y0203900D02*
X0427590Y0203900D01*
X0427590Y0202902D02*
X0427410Y0202902D01*
X0427410Y0201903D02*
X0427590Y0201903D01*
X0427590Y0200905D02*
X0427410Y0200905D01*
X0427410Y0199906D02*
X0427590Y0199906D01*
X0427590Y0198908D02*
X0427410Y0198908D01*
X0427410Y0197909D02*
X0427590Y0197909D01*
X0427590Y0196911D02*
X0427410Y0196911D01*
X0427410Y0195912D02*
X0427590Y0195912D01*
X0427590Y0194914D02*
X0427410Y0194914D01*
X0427410Y0193915D02*
X0427590Y0193915D01*
X0427590Y0192917D02*
X0427410Y0192917D01*
X0427410Y0191918D02*
X0427590Y0191918D01*
X0427590Y0190920D02*
X0427410Y0190920D01*
X0427410Y0189921D02*
X0427590Y0189921D01*
X0427590Y0188923D02*
X0427410Y0188923D01*
X0427410Y0187924D02*
X0427590Y0187924D01*
X0427590Y0186926D02*
X0427410Y0186926D01*
X0427410Y0185927D02*
X0427590Y0185927D01*
X0427590Y0184929D02*
X0427410Y0184929D01*
X0427410Y0183930D02*
X0427590Y0183930D01*
X0427590Y0182931D02*
X0427410Y0182931D01*
X0427410Y0181933D02*
X0427590Y0181933D01*
X0427590Y0180934D02*
X0427410Y0180934D01*
X0427410Y0179936D02*
X0427590Y0179936D01*
X0427590Y0178937D02*
X0427410Y0178937D01*
X0427410Y0177939D02*
X0427590Y0177939D01*
X0427590Y0176940D02*
X0427410Y0176940D01*
X0427410Y0175942D02*
X0427590Y0175942D01*
X0427590Y0174943D02*
X0427410Y0174943D01*
X0427410Y0173945D02*
X0427590Y0173945D01*
X0427590Y0172946D02*
X0427410Y0172946D01*
X0427410Y0171948D02*
X0427590Y0171948D01*
X0427590Y0170949D02*
X0427410Y0170949D01*
X0427410Y0169951D02*
X0427590Y0169951D01*
X0427590Y0168952D02*
X0427410Y0168952D01*
X0427410Y0167954D02*
X0427590Y0167954D01*
X0427590Y0166955D02*
X0427410Y0166955D01*
X0427410Y0165957D02*
X0427590Y0165957D01*
X0427590Y0164958D02*
X0427410Y0164958D01*
X0427410Y0163960D02*
X0427590Y0163960D01*
X0427590Y0162961D02*
X0427410Y0162961D01*
X0427410Y0161963D02*
X0427590Y0161963D01*
X0427590Y0160964D02*
X0427410Y0160964D01*
X0427410Y0159966D02*
X0427590Y0159966D01*
X0427590Y0158967D02*
X0427410Y0158967D01*
X0427410Y0157969D02*
X0427590Y0157969D01*
X0427590Y0156970D02*
X0427410Y0156970D01*
X0427410Y0155972D02*
X0427590Y0155972D01*
X0427590Y0154973D02*
X0427410Y0154973D01*
X0427410Y0153975D02*
X0427590Y0153975D01*
X0427590Y0152976D02*
X0427410Y0152976D01*
X0427410Y0151978D02*
X0427590Y0151978D01*
X0427590Y0150979D02*
X0427410Y0150979D01*
X0427410Y0149981D02*
X0427590Y0149981D01*
X0427590Y0148982D02*
X0427410Y0148982D01*
X0427410Y0147984D02*
X0427590Y0147984D01*
X0427590Y0146985D02*
X0427410Y0146985D01*
X0427410Y0145987D02*
X0427590Y0145987D01*
X0427590Y0144988D02*
X0427410Y0144988D01*
X0427410Y0143990D02*
X0427590Y0143990D01*
X0427590Y0142991D02*
X0427410Y0142991D01*
X0427410Y0141993D02*
X0427590Y0141993D01*
X0427590Y0140994D02*
X0427410Y0140994D01*
X0427410Y0139996D02*
X0427590Y0139996D01*
X0427590Y0138997D02*
X0427410Y0138997D01*
X0427410Y0137998D02*
X0427590Y0137998D01*
X0427590Y0137000D02*
X0427410Y0137000D01*
X0427410Y0136001D02*
X0427590Y0136001D01*
X0427590Y0135003D02*
X0427410Y0135003D01*
X0427410Y0134004D02*
X0427590Y0134004D01*
X0427590Y0133006D02*
X0427410Y0133006D01*
X0427410Y0132007D02*
X0427590Y0132007D01*
X0427590Y0131009D02*
X0427410Y0131009D01*
X0427410Y0130010D02*
X0427590Y0130010D01*
X0427590Y0129012D02*
X0427410Y0129012D01*
X0427410Y0128013D02*
X0427590Y0128013D01*
X0427590Y0127015D02*
X0427410Y0127015D01*
X0427410Y0126016D02*
X0427590Y0126016D01*
X0427590Y0125018D02*
X0427410Y0125018D01*
X0427410Y0124019D02*
X0427590Y0124019D01*
X0427590Y0123021D02*
X0427410Y0123021D01*
X0427410Y0122022D02*
X0427590Y0122022D01*
X0427590Y0121024D02*
X0427410Y0121024D01*
X0427410Y0120025D02*
X0427590Y0120025D01*
X0427590Y0119027D02*
X0427410Y0119027D01*
X0427410Y0118028D02*
X0427590Y0118028D01*
X0427590Y0117030D02*
X0427410Y0117030D01*
X0427410Y0116031D02*
X0427590Y0116031D01*
X0427590Y0115033D02*
X0427410Y0115033D01*
X0427410Y0114034D02*
X0427590Y0114034D01*
X0427590Y0113036D02*
X0427410Y0113036D01*
X0427410Y0112037D02*
X0427590Y0112037D01*
X0427590Y0111039D02*
X0427410Y0111039D01*
X0427410Y0110040D02*
X0427590Y0110040D01*
X0427590Y0109042D02*
X0427410Y0109042D01*
X0427410Y0108043D02*
X0427590Y0108043D01*
X0427590Y0107045D02*
X0427410Y0107045D01*
X0427410Y0106046D02*
X0427590Y0106046D01*
X0427590Y0105048D02*
X0427410Y0105048D01*
X0427410Y0104049D02*
X0427590Y0104049D01*
X0427590Y0103051D02*
X0427410Y0103051D01*
X0427410Y0102052D02*
X0427590Y0102052D01*
X0427590Y0101054D02*
X0427410Y0101054D01*
X0427410Y0100055D02*
X0427590Y0100055D01*
X0427590Y0099057D02*
X0427410Y0099057D01*
X0427410Y0098058D02*
X0427590Y0098058D01*
X0427590Y0097060D02*
X0427410Y0097060D01*
X0427410Y0096061D02*
X0427590Y0096061D01*
X0427590Y0095062D02*
X0427410Y0095062D01*
X0427410Y0094064D02*
X0427590Y0094064D01*
X0427590Y0093065D02*
X0427410Y0093065D01*
X0427410Y0092067D02*
X0427590Y0092067D01*
X0427590Y0091068D02*
X0427410Y0091068D01*
X0427410Y0090070D02*
X0427590Y0090070D01*
X0427590Y0089071D02*
X0427410Y0089071D01*
X0427410Y0088073D02*
X0427590Y0088073D01*
X0427590Y0087074D02*
X0427410Y0087074D01*
X0427410Y0086076D02*
X0427590Y0086076D01*
X0427590Y0085077D02*
X0427410Y0085077D01*
X0427410Y0084079D02*
X0427590Y0084079D01*
X0427590Y0083080D02*
X0427410Y0083080D01*
X0427410Y0082082D02*
X0427590Y0082082D01*
X0427590Y0081083D02*
X0427410Y0081083D01*
X0427410Y0080085D02*
X0427590Y0080085D01*
X0427590Y0079086D02*
X0427410Y0079086D01*
X0427410Y0078088D02*
X0427590Y0078088D01*
X0427590Y0077089D02*
X0427410Y0077089D01*
X0427410Y0076091D02*
X0427590Y0076091D01*
X0427590Y0075092D02*
X0427410Y0075092D01*
X0427410Y0074094D02*
X0427590Y0074094D01*
X0427590Y0073095D02*
X0427410Y0073095D01*
X0427410Y0072097D02*
X0427590Y0072097D01*
X0427590Y0071098D02*
X0427410Y0071098D01*
X0427410Y0070100D02*
X0427590Y0070100D01*
X0427590Y0069101D02*
X0427410Y0069101D01*
X0427410Y0068103D02*
X0427590Y0068103D01*
X0427590Y0067104D02*
X0427410Y0067104D01*
X0427410Y0066106D02*
X0427590Y0066106D01*
X0427590Y0065107D02*
X0427410Y0065107D01*
X0427410Y0064109D02*
X0427590Y0064109D01*
X0427590Y0063110D02*
X0427410Y0063110D01*
X0427410Y0062112D02*
X0427590Y0062112D01*
X0427590Y0061113D02*
X0427410Y0061113D01*
X0427410Y0060115D02*
X0427590Y0060115D01*
X0427410Y0059116D02*
X0427952Y0059116D01*
X0427410Y0058118D02*
X0428881Y0058118D01*
X0428761Y0058238D02*
X0428761Y0058238D01*
X0429879Y0057119D02*
X0427410Y0057119D01*
X0427410Y0056121D02*
X0431171Y0056121D01*
X0429911Y0057088D02*
X0429911Y0057088D01*
X0433318Y0061317D02*
X0432990Y0061645D01*
X0432990Y0062882D01*
X0433001Y0062855D01*
X0434540Y0061317D01*
X0433318Y0061317D01*
X0432990Y0062112D02*
X0433745Y0062112D01*
X0437990Y0065503D02*
X0437990Y0066740D01*
X0438001Y0066714D01*
X0439461Y0065254D01*
X0438239Y0065254D01*
X0437990Y0065503D01*
X0437990Y0066106D02*
X0438609Y0066106D01*
X0442990Y0069361D02*
X0443161Y0069191D01*
X0443398Y0069191D01*
X0443001Y0069588D01*
X0442990Y0069614D01*
X0442990Y0069361D01*
X0447990Y0073128D02*
X0447990Y0074457D01*
X0448001Y0074430D01*
X0449303Y0073128D01*
X0447990Y0073128D01*
X0447990Y0074094D02*
X0448338Y0074094D01*
X0452990Y0077089D02*
X0517629Y0077089D01*
X0516953Y0078088D02*
X0452990Y0078088D01*
X0452990Y0079086D02*
X0516711Y0079086D01*
X0516787Y0080085D02*
X0452990Y0080085D01*
X0452990Y0081083D02*
X0517229Y0081083D01*
X0518479Y0082082D02*
X0452990Y0082082D01*
X0452990Y0083080D02*
X0493520Y0083080D01*
X0492339Y0084079D02*
X0452990Y0084079D01*
X0452990Y0085077D02*
X0491859Y0085077D01*
X0491692Y0086076D02*
X0452990Y0086076D01*
X0452990Y0087074D02*
X0491776Y0087074D01*
X0492189Y0088073D02*
X0452990Y0088073D01*
X0452990Y0089071D02*
X0493137Y0089071D01*
X0521117Y0082082D02*
X0560550Y0082082D01*
X0566110Y0081083D02*
X0566201Y0081083D01*
X0566193Y0080085D02*
X0566357Y0080085D01*
X0566357Y0079086D02*
X0565956Y0079086D01*
X0566357Y0078088D02*
X0565289Y0078088D01*
X0566357Y0077089D02*
X0563742Y0077089D01*
X0566357Y0076091D02*
X0557324Y0076091D01*
X0558322Y0075092D02*
X0566357Y0075092D01*
X0566357Y0074094D02*
X0559321Y0074094D01*
X0560319Y0073095D02*
X0566357Y0073095D01*
X0566357Y0072097D02*
X0561318Y0072097D01*
X0562217Y0071098D02*
X0566357Y0071098D01*
X0566357Y0070100D02*
X0562557Y0070100D01*
X0562557Y0069101D02*
X0566357Y0069101D01*
X0566357Y0068103D02*
X0562557Y0068103D01*
X0562557Y0067104D02*
X0566357Y0067104D01*
X0566357Y0066106D02*
X0562557Y0066106D01*
X0562557Y0065107D02*
X0566357Y0065107D01*
X0566357Y0064109D02*
X0562557Y0064109D01*
X0562557Y0063110D02*
X0566357Y0063110D01*
X0566357Y0062112D02*
X0562557Y0062112D01*
X0562557Y0061113D02*
X0566357Y0061113D01*
X0566357Y0060115D02*
X0562557Y0060115D01*
X0562557Y0059116D02*
X0566357Y0059116D01*
X0566357Y0058118D02*
X0562557Y0058118D01*
X0562557Y0057119D02*
X0566357Y0057119D01*
X0566357Y0056121D02*
X0562557Y0056121D01*
X0562557Y0055122D02*
X0566357Y0055122D01*
X0566357Y0054124D02*
X0562557Y0054124D01*
X0562557Y0053125D02*
X0566357Y0053125D01*
X0566357Y0052127D02*
X0562557Y0052127D01*
X0562679Y0051128D02*
X0566357Y0051128D01*
X0566037Y0050129D02*
X0563678Y0050129D01*
X0564157Y0049131D02*
X0565557Y0049131D01*
X0565557Y0048132D02*
X0564157Y0048132D01*
X0564157Y0047134D02*
X0565557Y0047134D01*
X0565557Y0046135D02*
X0564157Y0046135D01*
X0563206Y0045137D02*
X0566508Y0045137D01*
X0567507Y0044138D02*
X0562208Y0044138D01*
X0561638Y0042169D02*
X0558076Y0042169D01*
X0555557Y0039650D01*
X0555557Y0036088D01*
X0558076Y0033569D01*
X0561638Y0033569D01*
X0564157Y0036088D01*
X0564157Y0039650D01*
X0561638Y0042169D01*
X0561666Y0042141D02*
X0568048Y0042141D01*
X0568076Y0042169D02*
X0565557Y0039650D01*
X0565557Y0036088D01*
X0568076Y0033569D01*
X0571638Y0033569D01*
X0574157Y0036088D01*
X0574157Y0039650D01*
X0571638Y0042169D01*
X0568076Y0042169D01*
X0567050Y0041143D02*
X0562664Y0041143D01*
X0563663Y0040144D02*
X0566051Y0040144D01*
X0565557Y0039146D02*
X0564157Y0039146D01*
X0564157Y0038147D02*
X0565557Y0038147D01*
X0565557Y0037149D02*
X0564157Y0037149D01*
X0564157Y0036150D02*
X0565557Y0036150D01*
X0566493Y0035152D02*
X0563221Y0035152D01*
X0562223Y0034153D02*
X0567492Y0034153D01*
X0572223Y0034153D02*
X0577492Y0034153D01*
X0576493Y0035152D02*
X0573221Y0035152D01*
X0574157Y0036150D02*
X0575557Y0036150D01*
X0575557Y0037149D02*
X0574157Y0037149D01*
X0574157Y0038147D02*
X0575557Y0038147D01*
X0575557Y0039146D02*
X0574157Y0039146D01*
X0573663Y0040144D02*
X0576051Y0040144D01*
X0577050Y0041143D02*
X0572664Y0041143D01*
X0571666Y0042141D02*
X0578048Y0042141D01*
X0577507Y0044138D02*
X0572208Y0044138D01*
X0573357Y0052127D02*
X0578034Y0052127D01*
X0581681Y0052127D02*
X0584027Y0052127D01*
X0584027Y0053125D02*
X0573357Y0053125D01*
X0573357Y0054124D02*
X0584027Y0054124D01*
X0584027Y0055122D02*
X0573357Y0055122D01*
X0573357Y0056121D02*
X0584027Y0056121D01*
X0584027Y0057119D02*
X0573357Y0057119D01*
X0573357Y0058118D02*
X0584027Y0058118D01*
X0584027Y0059116D02*
X0573357Y0059116D01*
X0573357Y0060115D02*
X0584027Y0060115D01*
X0584027Y0061113D02*
X0573357Y0061113D01*
X0573357Y0062112D02*
X0584027Y0062112D01*
X0584027Y0063110D02*
X0573357Y0063110D01*
X0573357Y0064109D02*
X0584027Y0064109D01*
X0584027Y0065107D02*
X0573357Y0065107D01*
X0573357Y0066106D02*
X0584027Y0066106D01*
X0584027Y0067104D02*
X0573357Y0067104D01*
X0573357Y0068103D02*
X0584027Y0068103D01*
X0584027Y0069101D02*
X0573357Y0069101D01*
X0573357Y0070100D02*
X0584027Y0070100D01*
X0584027Y0071098D02*
X0573357Y0071098D01*
X0573357Y0072097D02*
X0584027Y0072097D01*
X0584027Y0073095D02*
X0573357Y0073095D01*
X0573357Y0074094D02*
X0584027Y0074094D01*
X0584027Y0075092D02*
X0573357Y0075092D01*
X0573357Y0076091D02*
X0584027Y0076091D01*
X0584027Y0077089D02*
X0573357Y0077089D01*
X0573357Y0078088D02*
X0584027Y0078088D01*
X0584027Y0079086D02*
X0573357Y0079086D01*
X0573357Y0080085D02*
X0584027Y0080085D01*
X0584027Y0081083D02*
X0573357Y0081083D01*
X0573357Y0082082D02*
X0584027Y0082082D01*
X0584027Y0083080D02*
X0573354Y0083080D01*
X0572941Y0084079D02*
X0584027Y0084079D01*
X0584027Y0085077D02*
X0572106Y0085077D01*
X0571108Y0086076D02*
X0584027Y0086076D01*
X0584027Y0087074D02*
X0570109Y0087074D01*
X0569111Y0088073D02*
X0584027Y0088073D01*
X0584027Y0089071D02*
X0568112Y0089071D01*
X0569025Y0088159D02*
X0569025Y0088159D01*
X0581939Y0092067D02*
X0452990Y0092067D01*
X0452990Y0093065D02*
X0539602Y0093065D01*
X0538604Y0094064D02*
X0452990Y0094064D01*
X0452990Y0095062D02*
X0537605Y0095062D01*
X0536951Y0096061D02*
X0452990Y0096061D01*
X0452990Y0097060D02*
X0536783Y0097060D01*
X0536783Y0098058D02*
X0452990Y0098058D01*
X0452990Y0099057D02*
X0536783Y0099057D01*
X0536783Y0100055D02*
X0452990Y0100055D01*
X0452990Y0101054D02*
X0536783Y0101054D01*
X0536783Y0102052D02*
X0452990Y0102052D01*
X0452990Y0103051D02*
X0536783Y0103051D01*
X0536783Y0104049D02*
X0452990Y0104049D01*
X0452990Y0105048D02*
X0536783Y0105048D01*
X0536783Y0106046D02*
X0452990Y0106046D01*
X0452990Y0107045D02*
X0536783Y0107045D01*
X0536783Y0108043D02*
X0452990Y0108043D01*
X0452990Y0109042D02*
X0536783Y0109042D01*
X0536783Y0110040D02*
X0452990Y0110040D01*
X0452990Y0111039D02*
X0536783Y0111039D01*
X0536783Y0112037D02*
X0452990Y0112037D01*
X0452990Y0113036D02*
X0536783Y0113036D01*
X0536783Y0114034D02*
X0452990Y0114034D01*
X0452990Y0115033D02*
X0536783Y0115033D01*
X0536783Y0116031D02*
X0452990Y0116031D01*
X0452990Y0117030D02*
X0536783Y0117030D01*
X0536783Y0118028D02*
X0452990Y0118028D01*
X0452990Y0119027D02*
X0536783Y0119027D01*
X0536783Y0120025D02*
X0452990Y0120025D01*
X0452990Y0121024D02*
X0536783Y0121024D01*
X0536783Y0122022D02*
X0452990Y0122022D01*
X0452990Y0123021D02*
X0509557Y0123021D01*
X0510226Y0122352D02*
X0513622Y0122352D01*
X0516024Y0124753D01*
X0516024Y0128150D01*
X0513622Y0130552D01*
X0510226Y0130552D01*
X0507824Y0128150D01*
X0507824Y0124753D01*
X0510226Y0122352D01*
X0508558Y0124019D02*
X0452990Y0124019D01*
X0452990Y0125018D02*
X0507824Y0125018D01*
X0507824Y0126016D02*
X0452990Y0126016D01*
X0452990Y0127015D02*
X0507824Y0127015D01*
X0507824Y0128013D02*
X0452990Y0128013D01*
X0452990Y0129012D02*
X0473054Y0129012D01*
X0473730Y0128336D02*
X0477126Y0128336D01*
X0479528Y0130738D01*
X0479528Y0134134D01*
X0477126Y0136536D01*
X0473730Y0136536D01*
X0471328Y0134134D01*
X0471328Y0130738D01*
X0473730Y0128336D01*
X0472055Y0130010D02*
X0452990Y0130010D01*
X0452990Y0131009D02*
X0471328Y0131009D01*
X0471328Y0132007D02*
X0452990Y0132007D01*
X0453208Y0133006D02*
X0471328Y0133006D01*
X0471328Y0134004D02*
X0453378Y0134004D01*
X0453229Y0135003D02*
X0472197Y0135003D01*
X0473195Y0136001D02*
X0452685Y0136001D01*
X0451189Y0137000D02*
X0507824Y0137000D01*
X0507824Y0137998D02*
X0447990Y0137998D01*
X0447990Y0137000D02*
X0449392Y0137000D01*
X0447990Y0138997D02*
X0508671Y0138997D01*
X0507824Y0138150D02*
X0507824Y0134753D01*
X0510226Y0132352D01*
X0513622Y0132352D01*
X0516024Y0134753D01*
X0516024Y0138150D01*
X0513622Y0140552D01*
X0510226Y0140552D01*
X0507824Y0138150D01*
X0507824Y0136001D02*
X0487661Y0136001D01*
X0487126Y0136536D02*
X0483730Y0136536D01*
X0481328Y0134134D01*
X0481328Y0130738D01*
X0483730Y0128336D01*
X0487126Y0128336D01*
X0489528Y0130738D01*
X0489528Y0134134D01*
X0487126Y0136536D01*
X0488659Y0135003D02*
X0507824Y0135003D01*
X0508573Y0134004D02*
X0489528Y0134004D01*
X0489528Y0133006D02*
X0509572Y0133006D01*
X0509685Y0130010D02*
X0488801Y0130010D01*
X0489528Y0131009D02*
X0536396Y0131009D01*
X0536396Y0130010D02*
X0514164Y0130010D01*
X0515162Y0129012D02*
X0536744Y0129012D01*
X0536783Y0128013D02*
X0516024Y0128013D01*
X0516024Y0127015D02*
X0536783Y0127015D01*
X0536783Y0126016D02*
X0516024Y0126016D01*
X0516024Y0125018D02*
X0536783Y0125018D01*
X0536783Y0124019D02*
X0515290Y0124019D01*
X0514292Y0123021D02*
X0536783Y0123021D01*
X0542183Y0123021D02*
X0608605Y0123021D01*
X0608605Y0124019D02*
X0542183Y0124019D01*
X0542183Y0125018D02*
X0608605Y0125018D01*
X0608605Y0126016D02*
X0542183Y0126016D01*
X0542183Y0127015D02*
X0608605Y0127015D01*
X0608605Y0128013D02*
X0542183Y0128013D01*
X0542222Y0129012D02*
X0608605Y0129012D01*
X0608605Y0130010D02*
X0542571Y0130010D01*
X0542571Y0131009D02*
X0608605Y0131009D01*
X0608605Y0132007D02*
X0542187Y0132007D01*
X0542183Y0133006D02*
X0608605Y0133006D01*
X0608605Y0134004D02*
X0542183Y0134004D01*
X0542183Y0135003D02*
X0608605Y0135003D01*
X0608605Y0136001D02*
X0542183Y0136001D01*
X0542183Y0137000D02*
X0608605Y0137000D01*
X0608605Y0137998D02*
X0542183Y0137998D01*
X0542183Y0138997D02*
X0608605Y0138997D01*
X0608605Y0139996D02*
X0542183Y0139996D01*
X0542183Y0140994D02*
X0608605Y0140994D01*
X0608605Y0141993D02*
X0542183Y0141993D01*
X0542183Y0142991D02*
X0608605Y0142991D01*
X0608605Y0143990D02*
X0542183Y0143990D01*
X0542183Y0144988D02*
X0608605Y0144988D01*
X0608605Y0145987D02*
X0542183Y0145987D01*
X0542183Y0146985D02*
X0608605Y0146985D01*
X0608605Y0147984D02*
X0542183Y0147984D01*
X0542183Y0148982D02*
X0608605Y0148982D01*
X0608605Y0149981D02*
X0542183Y0149981D01*
X0542183Y0150979D02*
X0608605Y0150979D01*
X0608605Y0151978D02*
X0542183Y0151978D01*
X0542183Y0152976D02*
X0608605Y0152976D01*
X0608605Y0153975D02*
X0542183Y0153975D01*
X0542183Y0154973D02*
X0608605Y0154973D01*
X0608605Y0155972D02*
X0542183Y0155972D01*
X0542183Y0156970D02*
X0608605Y0156970D01*
X0608605Y0157969D02*
X0542183Y0157969D01*
X0542183Y0158967D02*
X0608605Y0158967D01*
X0608605Y0159966D02*
X0542405Y0159966D01*
X0542571Y0160964D02*
X0608605Y0160964D01*
X0608605Y0161963D02*
X0542418Y0161963D01*
X0542183Y0162961D02*
X0608605Y0162961D01*
X0608605Y0163960D02*
X0542183Y0163960D01*
X0542183Y0164958D02*
X0608605Y0164958D01*
X0608605Y0165957D02*
X0542183Y0165957D01*
X0542183Y0166955D02*
X0608605Y0166955D01*
X0608605Y0167954D02*
X0542183Y0167954D01*
X0542183Y0168952D02*
X0608605Y0168952D01*
X0608605Y0169951D02*
X0542183Y0169951D01*
X0542183Y0170949D02*
X0608605Y0170949D01*
X0608605Y0171948D02*
X0542183Y0171948D01*
X0542183Y0172946D02*
X0608605Y0172946D01*
X0608605Y0173945D02*
X0542183Y0173945D01*
X0542183Y0174943D02*
X0608605Y0174943D01*
X0608605Y0175942D02*
X0542183Y0175942D01*
X0542183Y0176940D02*
X0608605Y0176940D01*
X0608605Y0177939D02*
X0542183Y0177939D01*
X0542183Y0178937D02*
X0608605Y0178937D01*
X0608605Y0179936D02*
X0542183Y0179936D01*
X0542183Y0180934D02*
X0608605Y0180934D01*
X0608605Y0181933D02*
X0542183Y0181933D01*
X0542183Y0182931D02*
X0608605Y0182931D01*
X0608605Y0183930D02*
X0542183Y0183930D01*
X0542183Y0184929D02*
X0608605Y0184929D01*
X0608605Y0185927D02*
X0542183Y0185927D01*
X0542183Y0186926D02*
X0608605Y0186926D01*
X0608605Y0187924D02*
X0542183Y0187924D01*
X0542183Y0188923D02*
X0608605Y0188923D01*
X0608605Y0189921D02*
X0542183Y0189921D01*
X0542183Y0190920D02*
X0608605Y0190920D01*
X0608605Y0191918D02*
X0542186Y0191918D01*
X0542571Y0192917D02*
X0608605Y0192917D01*
X0608605Y0193915D02*
X0542571Y0193915D01*
X0542223Y0194914D02*
X0608605Y0194914D01*
X0608605Y0195912D02*
X0542183Y0195912D01*
X0542183Y0196911D02*
X0608605Y0196911D01*
X0608605Y0197909D02*
X0542183Y0197909D01*
X0542183Y0198908D02*
X0608605Y0198908D01*
X0608605Y0199906D02*
X0542183Y0199906D01*
X0542183Y0200905D02*
X0608605Y0200905D01*
X0608605Y0201903D02*
X0542183Y0201903D01*
X0542183Y0202902D02*
X0608605Y0202902D01*
X0608605Y0203900D02*
X0542183Y0203900D01*
X0542183Y0204899D02*
X0608605Y0204899D01*
X0608605Y0205897D02*
X0542183Y0205897D01*
X0542183Y0206896D02*
X0608605Y0206896D01*
X0608605Y0207894D02*
X0542183Y0207894D01*
X0542183Y0208893D02*
X0608605Y0208893D01*
X0608605Y0209891D02*
X0542183Y0209891D01*
X0542183Y0210890D02*
X0608605Y0210890D01*
X0608605Y0211888D02*
X0542183Y0211888D01*
X0542183Y0212887D02*
X0608605Y0212887D01*
X0608605Y0213885D02*
X0542183Y0213885D01*
X0542183Y0214884D02*
X0608605Y0214884D01*
X0608605Y0215882D02*
X0542183Y0215882D01*
X0542183Y0216881D02*
X0608605Y0216881D01*
X0608605Y0217879D02*
X0542183Y0217879D01*
X0542183Y0218878D02*
X0608605Y0218878D01*
X0608605Y0219876D02*
X0542183Y0219876D01*
X0542183Y0220875D02*
X0608605Y0220875D01*
X0608605Y0221873D02*
X0542183Y0221873D01*
X0542183Y0222872D02*
X0608605Y0222872D01*
X0608605Y0223870D02*
X0542375Y0223870D01*
X0542571Y0224869D02*
X0608605Y0224869D01*
X0608605Y0225867D02*
X0542447Y0225867D01*
X0542183Y0226866D02*
X0608605Y0226866D01*
X0608605Y0227865D02*
X0542183Y0227865D01*
X0542183Y0228863D02*
X0608605Y0228863D01*
X0608605Y0229862D02*
X0542183Y0229862D01*
X0542183Y0230860D02*
X0608605Y0230860D01*
X0608605Y0231859D02*
X0542183Y0231859D01*
X0542183Y0232857D02*
X0608605Y0232857D01*
X0608605Y0233856D02*
X0542183Y0233856D01*
X0542183Y0234854D02*
X0608605Y0234854D01*
X0608605Y0235853D02*
X0542183Y0235853D01*
X0542183Y0236851D02*
X0608605Y0236851D01*
X0608605Y0237850D02*
X0542183Y0237850D01*
X0542183Y0238848D02*
X0608605Y0238848D01*
X0608605Y0239847D02*
X0542183Y0239847D01*
X0542183Y0240845D02*
X0608605Y0240845D01*
X0608605Y0241844D02*
X0542183Y0241844D01*
X0542183Y0242842D02*
X0608605Y0242842D01*
X0608605Y0243841D02*
X0542183Y0243841D01*
X0542183Y0244839D02*
X0608605Y0244839D01*
X0608605Y0245838D02*
X0542183Y0245838D01*
X0542183Y0246836D02*
X0608605Y0246836D01*
X0608605Y0247835D02*
X0542183Y0247835D01*
X0542183Y0248833D02*
X0608605Y0248833D01*
X0608605Y0249832D02*
X0542183Y0249832D01*
X0542183Y0250830D02*
X0608605Y0250830D01*
X0608605Y0251829D02*
X0542183Y0251829D01*
X0542183Y0252827D02*
X0608605Y0252827D01*
X0608605Y0253826D02*
X0542183Y0253826D01*
X0542183Y0254824D02*
X0608605Y0254824D01*
X0608605Y0255823D02*
X0542564Y0255823D01*
X0542571Y0256821D02*
X0608605Y0256821D01*
X0608605Y0257820D02*
X0542258Y0257820D01*
X0541483Y0258818D02*
X0608605Y0258818D01*
X0608605Y0259817D02*
X0514119Y0259817D01*
X0515118Y0260815D02*
X0608605Y0260815D01*
X0608605Y0261814D02*
X0516024Y0261814D01*
X0516024Y0262812D02*
X0608605Y0262812D01*
X0608605Y0263811D02*
X0516024Y0263811D01*
X0516024Y0264809D02*
X0608605Y0264809D01*
X0608605Y0265808D02*
X0515335Y0265808D01*
X0514336Y0266806D02*
X0608605Y0266806D01*
X0608605Y0267805D02*
X0427410Y0267805D01*
X0427410Y0268803D02*
X0608605Y0268803D01*
X0608605Y0269802D02*
X0427410Y0269802D01*
X0427410Y0270800D02*
X0608605Y0270800D01*
X0608605Y0271799D02*
X0427410Y0271799D01*
X0427410Y0272798D02*
X0608605Y0272798D01*
X0608605Y0273796D02*
X0427410Y0273796D01*
X0427410Y0274795D02*
X0608605Y0274795D01*
X0608605Y0275793D02*
X0427410Y0275793D01*
X0427410Y0276792D02*
X0608605Y0276792D01*
X0608605Y0277790D02*
X0427410Y0277790D01*
X0427410Y0278789D02*
X0608605Y0278789D01*
X0608605Y0279787D02*
X0427410Y0279787D01*
X0427410Y0280786D02*
X0608605Y0280786D01*
X0608605Y0281784D02*
X0427410Y0281784D01*
X0427410Y0282783D02*
X0608605Y0282783D01*
X0608605Y0283781D02*
X0427410Y0283781D01*
X0420257Y0283781D02*
X0386503Y0283781D01*
X0386503Y0282783D02*
X0420257Y0282783D01*
X0420257Y0281784D02*
X0386503Y0281784D01*
X0386503Y0280786D02*
X0420257Y0280786D01*
X0420257Y0279787D02*
X0386503Y0279787D01*
X0386503Y0278789D02*
X0420257Y0278789D01*
X0420257Y0277790D02*
X0386503Y0277790D01*
X0386503Y0276792D02*
X0420257Y0276792D01*
X0420257Y0275793D02*
X0386503Y0275793D01*
X0386503Y0274795D02*
X0420257Y0274795D01*
X0420257Y0273796D02*
X0386503Y0273796D01*
X0386503Y0272798D02*
X0420257Y0272798D01*
X0420257Y0271799D02*
X0386503Y0271799D01*
X0386503Y0270800D02*
X0420257Y0270800D01*
X0420257Y0269802D02*
X0386503Y0269802D01*
X0386503Y0268803D02*
X0420257Y0268803D01*
X0420257Y0267805D02*
X0386503Y0267805D01*
X0386503Y0266806D02*
X0420257Y0266806D01*
X0420257Y0265808D02*
X0386503Y0265808D01*
X0386503Y0264809D02*
X0420257Y0264809D01*
X0420257Y0263811D02*
X0386503Y0263811D01*
X0386503Y0262812D02*
X0420257Y0262812D01*
X0420257Y0261814D02*
X0386503Y0261814D01*
X0386503Y0260815D02*
X0420257Y0260815D01*
X0420257Y0259817D02*
X0386503Y0259817D01*
X0386503Y0258818D02*
X0420257Y0258818D01*
X0420257Y0257820D02*
X0386503Y0257820D01*
X0386503Y0256821D02*
X0420257Y0256821D01*
X0420257Y0255823D02*
X0386503Y0255823D01*
X0386503Y0254824D02*
X0420257Y0254824D01*
X0420257Y0253826D02*
X0386503Y0253826D01*
X0386503Y0252827D02*
X0420257Y0252827D01*
X0420257Y0251829D02*
X0386503Y0251829D01*
X0386503Y0250830D02*
X0420257Y0250830D01*
X0420257Y0249832D02*
X0386503Y0249832D01*
X0386503Y0248833D02*
X0420257Y0248833D01*
X0420257Y0247835D02*
X0386503Y0247835D01*
X0386503Y0246836D02*
X0420257Y0246836D01*
X0420257Y0245838D02*
X0386503Y0245838D01*
X0386503Y0244839D02*
X0420257Y0244839D01*
X0420257Y0243841D02*
X0386503Y0243841D01*
X0386503Y0242842D02*
X0420257Y0242842D01*
X0420257Y0241844D02*
X0386503Y0241844D01*
X0386503Y0240845D02*
X0420257Y0240845D01*
X0420257Y0239847D02*
X0386503Y0239847D01*
X0386503Y0238848D02*
X0420257Y0238848D01*
X0420257Y0237850D02*
X0386503Y0237850D01*
X0386503Y0236851D02*
X0420257Y0236851D01*
X0420257Y0235853D02*
X0386503Y0235853D01*
X0386503Y0234854D02*
X0420257Y0234854D01*
X0420257Y0233856D02*
X0386503Y0233856D01*
X0386503Y0232857D02*
X0420257Y0232857D01*
X0420257Y0231859D02*
X0386503Y0231859D01*
X0386503Y0230860D02*
X0420257Y0230860D01*
X0420257Y0229862D02*
X0386503Y0229862D01*
X0386503Y0228863D02*
X0420257Y0228863D01*
X0420257Y0227865D02*
X0386503Y0227865D01*
X0386503Y0226866D02*
X0420257Y0226866D01*
X0420257Y0225867D02*
X0386503Y0225867D01*
X0386503Y0224869D02*
X0420257Y0224869D01*
X0420257Y0223870D02*
X0386503Y0223870D01*
X0386503Y0222872D02*
X0420257Y0222872D01*
X0420257Y0221873D02*
X0386503Y0221873D01*
X0386503Y0220875D02*
X0420257Y0220875D01*
X0420257Y0219876D02*
X0386503Y0219876D01*
X0386503Y0218878D02*
X0420257Y0218878D01*
X0420257Y0217879D02*
X0386503Y0217879D01*
X0386503Y0216881D02*
X0420257Y0216881D01*
X0420257Y0215882D02*
X0386503Y0215882D01*
X0386503Y0214884D02*
X0420257Y0214884D01*
X0420257Y0213885D02*
X0386503Y0213885D01*
X0386503Y0212887D02*
X0420257Y0212887D01*
X0420257Y0211888D02*
X0386503Y0211888D01*
X0386503Y0210890D02*
X0420257Y0210890D01*
X0420257Y0209891D02*
X0386503Y0209891D01*
X0386503Y0208893D02*
X0420257Y0208893D01*
X0420257Y0207894D02*
X0386503Y0207894D01*
X0386503Y0206896D02*
X0420257Y0206896D01*
X0420257Y0205897D02*
X0386503Y0205897D01*
X0386503Y0204899D02*
X0420257Y0204899D01*
X0420257Y0203900D02*
X0386503Y0203900D01*
X0386503Y0202902D02*
X0420257Y0202902D01*
X0420257Y0201903D02*
X0386503Y0201903D01*
X0386503Y0200905D02*
X0420257Y0200905D01*
X0420257Y0199906D02*
X0386503Y0199906D01*
X0386503Y0198908D02*
X0420257Y0198908D01*
X0420257Y0197909D02*
X0386503Y0197909D01*
X0386503Y0196911D02*
X0420257Y0196911D01*
X0420257Y0195912D02*
X0386503Y0195912D01*
X0386503Y0194914D02*
X0420257Y0194914D01*
X0420257Y0193915D02*
X0386503Y0193915D01*
X0386503Y0192917D02*
X0420257Y0192917D01*
X0420257Y0191918D02*
X0386503Y0191918D01*
X0386503Y0190920D02*
X0420257Y0190920D01*
X0420257Y0189921D02*
X0386503Y0189921D01*
X0386503Y0188923D02*
X0420257Y0188923D01*
X0420257Y0187924D02*
X0386503Y0187924D01*
X0386503Y0186926D02*
X0420257Y0186926D01*
X0420257Y0185927D02*
X0386503Y0185927D01*
X0386503Y0184929D02*
X0420257Y0184929D01*
X0420257Y0183930D02*
X0386503Y0183930D01*
X0386503Y0182931D02*
X0420257Y0182931D01*
X0420257Y0181933D02*
X0386503Y0181933D01*
X0386503Y0180934D02*
X0420257Y0180934D01*
X0420257Y0179936D02*
X0386503Y0179936D01*
X0386503Y0178937D02*
X0420257Y0178937D01*
X0420257Y0177939D02*
X0386503Y0177939D01*
X0386503Y0176940D02*
X0420257Y0176940D01*
X0420257Y0175942D02*
X0386503Y0175942D01*
X0386503Y0174943D02*
X0420257Y0174943D01*
X0420257Y0173945D02*
X0386503Y0173945D01*
X0386503Y0172946D02*
X0420257Y0172946D01*
X0420257Y0171948D02*
X0386503Y0171948D01*
X0386503Y0170949D02*
X0420257Y0170949D01*
X0420257Y0169951D02*
X0386503Y0169951D01*
X0386503Y0168952D02*
X0420257Y0168952D01*
X0420257Y0167954D02*
X0386503Y0167954D01*
X0386503Y0166955D02*
X0420257Y0166955D01*
X0420257Y0165957D02*
X0386503Y0165957D01*
X0386503Y0164958D02*
X0420257Y0164958D01*
X0420257Y0163960D02*
X0386503Y0163960D01*
X0386503Y0162961D02*
X0420257Y0162961D01*
X0420257Y0161963D02*
X0386503Y0161963D01*
X0386503Y0160964D02*
X0420257Y0160964D01*
X0420257Y0159966D02*
X0386503Y0159966D01*
X0386503Y0158967D02*
X0420257Y0158967D01*
X0420257Y0157969D02*
X0386503Y0157969D01*
X0386503Y0156970D02*
X0420257Y0156970D01*
X0420257Y0155972D02*
X0386503Y0155972D01*
X0386503Y0154973D02*
X0420257Y0154973D01*
X0420257Y0153975D02*
X0386503Y0153975D01*
X0386503Y0152976D02*
X0420257Y0152976D01*
X0420257Y0151978D02*
X0386503Y0151978D01*
X0386503Y0150979D02*
X0420257Y0150979D01*
X0420257Y0149981D02*
X0386503Y0149981D01*
X0386503Y0148982D02*
X0420257Y0148982D01*
X0420257Y0147984D02*
X0386503Y0147984D01*
X0386503Y0146985D02*
X0420257Y0146985D01*
X0420257Y0145987D02*
X0386503Y0145987D01*
X0386503Y0144988D02*
X0420257Y0144988D01*
X0420257Y0143990D02*
X0386503Y0143990D01*
X0386503Y0142991D02*
X0420257Y0142991D01*
X0420257Y0141993D02*
X0386503Y0141993D01*
X0386503Y0140994D02*
X0420257Y0140994D01*
X0420257Y0139996D02*
X0386503Y0139996D01*
X0386503Y0138997D02*
X0420257Y0138997D01*
X0420257Y0137998D02*
X0386503Y0137998D01*
X0386503Y0137000D02*
X0420257Y0137000D01*
X0420257Y0136001D02*
X0386503Y0136001D01*
X0386503Y0135003D02*
X0420257Y0135003D01*
X0420257Y0134004D02*
X0386503Y0134004D01*
X0386503Y0133006D02*
X0420257Y0133006D01*
X0420257Y0132007D02*
X0386503Y0132007D01*
X0386503Y0131009D02*
X0420257Y0131009D01*
X0420257Y0130010D02*
X0386503Y0130010D01*
X0386503Y0129012D02*
X0420257Y0129012D01*
X0420257Y0128013D02*
X0386503Y0128013D01*
X0386503Y0127015D02*
X0420257Y0127015D01*
X0420257Y0126016D02*
X0386503Y0126016D01*
X0386503Y0125018D02*
X0420257Y0125018D01*
X0420257Y0124019D02*
X0386503Y0124019D01*
X0386503Y0123021D02*
X0420257Y0123021D01*
X0420257Y0122022D02*
X0386503Y0122022D01*
X0386503Y0121024D02*
X0420257Y0121024D01*
X0420257Y0120025D02*
X0386503Y0120025D01*
X0386503Y0119027D02*
X0420257Y0119027D01*
X0420257Y0118028D02*
X0386503Y0118028D01*
X0386503Y0117030D02*
X0420257Y0117030D01*
X0420257Y0116031D02*
X0386503Y0116031D01*
X0386503Y0115033D02*
X0420257Y0115033D01*
X0420257Y0114034D02*
X0386503Y0114034D01*
X0386503Y0113036D02*
X0420257Y0113036D01*
X0420257Y0112037D02*
X0386503Y0112037D01*
X0386503Y0111039D02*
X0420257Y0111039D01*
X0420257Y0110040D02*
X0386503Y0110040D01*
X0386503Y0109042D02*
X0420257Y0109042D01*
X0420257Y0108043D02*
X0386503Y0108043D01*
X0386503Y0107045D02*
X0420257Y0107045D01*
X0420257Y0106046D02*
X0386503Y0106046D01*
X0386503Y0105048D02*
X0420257Y0105048D01*
X0420257Y0104049D02*
X0386503Y0104049D01*
X0386503Y0103051D02*
X0420257Y0103051D01*
X0420257Y0102052D02*
X0386503Y0102052D01*
X0386503Y0101054D02*
X0420257Y0101054D01*
X0420257Y0100055D02*
X0386503Y0100055D01*
X0386503Y0099057D02*
X0420257Y0099057D01*
X0420257Y0098058D02*
X0386503Y0098058D01*
X0386503Y0097060D02*
X0420257Y0097060D01*
X0420257Y0096061D02*
X0386503Y0096061D01*
X0386503Y0095062D02*
X0420257Y0095062D01*
X0420257Y0094064D02*
X0386503Y0094064D01*
X0386503Y0093065D02*
X0420257Y0093065D01*
X0420257Y0092067D02*
X0386503Y0092067D01*
X0386503Y0091068D02*
X0420257Y0091068D01*
X0420257Y0090070D02*
X0386503Y0090070D01*
X0386503Y0089071D02*
X0420257Y0089071D01*
X0420257Y0088073D02*
X0386503Y0088073D01*
X0386503Y0087074D02*
X0420257Y0087074D01*
X0420257Y0086076D02*
X0386503Y0086076D01*
X0386503Y0085077D02*
X0420257Y0085077D01*
X0420257Y0084079D02*
X0386503Y0084079D01*
X0386503Y0083080D02*
X0420257Y0083080D01*
X0420257Y0082082D02*
X0386503Y0082082D01*
X0386503Y0081083D02*
X0420257Y0081083D01*
X0420257Y0080085D02*
X0386503Y0080085D01*
X0386503Y0079086D02*
X0420257Y0079086D01*
X0420257Y0078088D02*
X0386503Y0078088D01*
X0386503Y0077089D02*
X0420257Y0077089D01*
X0420257Y0076091D02*
X0386503Y0076091D01*
X0386503Y0075092D02*
X0420257Y0075092D01*
X0420257Y0074094D02*
X0386503Y0074094D01*
X0386503Y0073095D02*
X0420257Y0073095D01*
X0420257Y0072097D02*
X0386503Y0072097D01*
X0386503Y0071098D02*
X0420257Y0071098D01*
X0420257Y0070100D02*
X0386503Y0070100D01*
X0386503Y0069101D02*
X0420257Y0069101D01*
X0420257Y0068103D02*
X0386503Y0068103D01*
X0386503Y0067104D02*
X0420257Y0067104D01*
X0420257Y0066106D02*
X0386503Y0066106D01*
X0386503Y0065107D02*
X0420257Y0065107D01*
X0420257Y0064109D02*
X0386503Y0064109D01*
X0386503Y0063110D02*
X0420257Y0063110D01*
X0420257Y0062112D02*
X0386503Y0062112D01*
X0386503Y0061113D02*
X0420257Y0061113D01*
X0420257Y0060115D02*
X0386503Y0060115D01*
X0386503Y0059116D02*
X0420257Y0059116D01*
X0420257Y0058118D02*
X0386503Y0058118D01*
X0386503Y0057119D02*
X0420257Y0057119D01*
X0420257Y0056121D02*
X0386503Y0056121D01*
X0386503Y0055122D02*
X0420257Y0055122D01*
X0420257Y0054124D02*
X0386503Y0054124D01*
X0386503Y0053125D02*
X0420257Y0053125D01*
X0420257Y0052127D02*
X0386503Y0052127D01*
X0386503Y0051128D02*
X0420257Y0051128D01*
X0420257Y0050129D02*
X0386503Y0050129D01*
X0386503Y0049131D02*
X0420999Y0049131D01*
X0421998Y0048132D02*
X0386503Y0048132D01*
X0386503Y0047134D02*
X0422996Y0047134D01*
X0423995Y0046135D02*
X0386503Y0046135D01*
X0386503Y0045137D02*
X0486508Y0045137D01*
X0487507Y0044138D02*
X0386503Y0044138D01*
X0386503Y0043140D02*
X0584027Y0043140D01*
X0584027Y0044138D02*
X0582208Y0044138D01*
X0583206Y0045137D02*
X0584027Y0045137D01*
X0584027Y0042141D02*
X0581666Y0042141D01*
X0582664Y0041143D02*
X0584027Y0041143D01*
X0584027Y0040144D02*
X0583663Y0040144D01*
X0584027Y0035152D02*
X0583221Y0035152D01*
X0584027Y0034153D02*
X0582223Y0034153D01*
X0584021Y0033155D02*
X0533331Y0033155D01*
X0532557Y0034153D02*
X0537492Y0034153D01*
X0538076Y0033569D02*
X0541638Y0033569D01*
X0544157Y0036088D01*
X0544157Y0039650D01*
X0541638Y0042169D01*
X0538076Y0042169D01*
X0535557Y0039650D01*
X0535557Y0036088D01*
X0538076Y0033569D01*
X0536493Y0035152D02*
X0533221Y0035152D01*
X0534157Y0036150D02*
X0535557Y0036150D01*
X0535557Y0037149D02*
X0534157Y0037149D01*
X0534157Y0038147D02*
X0535557Y0038147D01*
X0535557Y0039146D02*
X0534157Y0039146D01*
X0533663Y0040144D02*
X0536051Y0040144D01*
X0537050Y0041143D02*
X0532664Y0041143D01*
X0531666Y0042141D02*
X0538048Y0042141D01*
X0537507Y0044138D02*
X0532208Y0044138D01*
X0533206Y0045137D02*
X0536508Y0045137D01*
X0535557Y0046135D02*
X0534157Y0046135D01*
X0534157Y0047134D02*
X0535557Y0047134D01*
X0535557Y0048132D02*
X0534157Y0048132D01*
X0534157Y0049131D02*
X0535557Y0049131D01*
X0536037Y0050129D02*
X0533678Y0050129D01*
X0532679Y0051128D02*
X0537035Y0051128D01*
X0537157Y0052127D02*
X0532557Y0052127D01*
X0532557Y0053125D02*
X0537157Y0053125D01*
X0537157Y0054124D02*
X0532557Y0054124D01*
X0532557Y0055122D02*
X0537157Y0055122D01*
X0537157Y0056121D02*
X0532557Y0056121D01*
X0532557Y0057119D02*
X0537157Y0057119D01*
X0537157Y0058118D02*
X0532557Y0058118D01*
X0532557Y0059116D02*
X0537157Y0059116D01*
X0537157Y0060115D02*
X0532477Y0060115D01*
X0531947Y0061113D02*
X0537157Y0061113D01*
X0537091Y0062112D02*
X0530949Y0062112D01*
X0529950Y0063110D02*
X0536093Y0063110D01*
X0539736Y0067104D02*
X0545878Y0067104D01*
X0546877Y0066106D02*
X0540734Y0066106D01*
X0541733Y0065107D02*
X0547157Y0065107D01*
X0547157Y0064109D02*
X0542388Y0064109D01*
X0542557Y0063110D02*
X0547157Y0063110D01*
X0547157Y0062112D02*
X0542557Y0062112D01*
X0542557Y0061113D02*
X0547157Y0061113D01*
X0547157Y0060115D02*
X0542557Y0060115D01*
X0542557Y0059116D02*
X0547157Y0059116D01*
X0547157Y0058118D02*
X0542557Y0058118D01*
X0542557Y0057119D02*
X0547157Y0057119D01*
X0547157Y0056121D02*
X0542557Y0056121D01*
X0542557Y0055122D02*
X0547157Y0055122D01*
X0547157Y0054124D02*
X0542557Y0054124D01*
X0542557Y0053125D02*
X0547157Y0053125D01*
X0547157Y0052127D02*
X0542557Y0052127D01*
X0542679Y0051128D02*
X0547035Y0051128D01*
X0546037Y0050129D02*
X0543678Y0050129D01*
X0544157Y0049131D02*
X0545557Y0049131D01*
X0545557Y0048132D02*
X0544157Y0048132D01*
X0544157Y0047134D02*
X0545557Y0047134D01*
X0545557Y0046135D02*
X0544157Y0046135D01*
X0543206Y0045137D02*
X0546508Y0045137D01*
X0547507Y0044138D02*
X0542208Y0044138D01*
X0541666Y0042141D02*
X0548048Y0042141D01*
X0548076Y0042169D02*
X0545557Y0039650D01*
X0545557Y0036088D01*
X0548076Y0033569D01*
X0551638Y0033569D01*
X0554157Y0036088D01*
X0554157Y0039650D01*
X0551638Y0042169D01*
X0548076Y0042169D01*
X0547050Y0041143D02*
X0542664Y0041143D01*
X0543663Y0040144D02*
X0546051Y0040144D01*
X0545557Y0039146D02*
X0544157Y0039146D01*
X0544157Y0038147D02*
X0545557Y0038147D01*
X0545557Y0037149D02*
X0544157Y0037149D01*
X0544157Y0036150D02*
X0545557Y0036150D01*
X0546493Y0035152D02*
X0543221Y0035152D01*
X0542223Y0034153D02*
X0547492Y0034153D01*
X0552223Y0034153D02*
X0557492Y0034153D01*
X0556493Y0035152D02*
X0553221Y0035152D01*
X0554157Y0036150D02*
X0555557Y0036150D01*
X0555557Y0037149D02*
X0554157Y0037149D01*
X0554157Y0038147D02*
X0555557Y0038147D01*
X0555557Y0039146D02*
X0554157Y0039146D01*
X0553663Y0040144D02*
X0556051Y0040144D01*
X0557050Y0041143D02*
X0552664Y0041143D01*
X0551666Y0042141D02*
X0558048Y0042141D01*
X0557507Y0044138D02*
X0552208Y0044138D01*
X0553206Y0045137D02*
X0556508Y0045137D01*
X0555557Y0046135D02*
X0554157Y0046135D01*
X0554157Y0047134D02*
X0555557Y0047134D01*
X0555557Y0048132D02*
X0554157Y0048132D01*
X0554157Y0049131D02*
X0555557Y0049131D01*
X0556037Y0050129D02*
X0553678Y0050129D01*
X0552679Y0051128D02*
X0557035Y0051128D01*
X0557157Y0052127D02*
X0552557Y0052127D01*
X0552557Y0053125D02*
X0557157Y0053125D01*
X0557157Y0054124D02*
X0552557Y0054124D01*
X0552557Y0055122D02*
X0557157Y0055122D01*
X0557157Y0056121D02*
X0552557Y0056121D01*
X0552557Y0057119D02*
X0557157Y0057119D01*
X0557157Y0058118D02*
X0552557Y0058118D01*
X0552557Y0059116D02*
X0557157Y0059116D01*
X0557157Y0060115D02*
X0552557Y0060115D01*
X0552557Y0061113D02*
X0557157Y0061113D01*
X0557157Y0062112D02*
X0552557Y0062112D01*
X0552557Y0063110D02*
X0557157Y0063110D01*
X0557157Y0064109D02*
X0552557Y0064109D01*
X0552557Y0065107D02*
X0557157Y0065107D01*
X0557157Y0066106D02*
X0552557Y0066106D01*
X0552557Y0067104D02*
X0557157Y0067104D01*
X0557157Y0068103D02*
X0552300Y0068103D01*
X0551518Y0069101D02*
X0556677Y0069101D01*
X0555678Y0070100D02*
X0550520Y0070100D01*
X0549521Y0071098D02*
X0554680Y0071098D01*
X0583936Y0090070D02*
X0452990Y0090070D01*
X0452990Y0091068D02*
X0582938Y0091068D01*
X0586580Y0095062D02*
X0608605Y0095062D01*
X0608605Y0094064D02*
X0587579Y0094064D01*
X0588577Y0093065D02*
X0608605Y0093065D01*
X0608605Y0092067D02*
X0589248Y0092067D01*
X0589427Y0091068D02*
X0608605Y0091068D01*
X0608605Y0090070D02*
X0589427Y0090070D01*
X0589427Y0089071D02*
X0608605Y0089071D01*
X0608605Y0088073D02*
X0589427Y0088073D01*
X0589427Y0087074D02*
X0608605Y0087074D01*
X0608605Y0086076D02*
X0589427Y0086076D01*
X0589427Y0085077D02*
X0608605Y0085077D01*
X0608605Y0084079D02*
X0589427Y0084079D01*
X0589427Y0083080D02*
X0608605Y0083080D01*
X0608605Y0082082D02*
X0589427Y0082082D01*
X0589427Y0081083D02*
X0608605Y0081083D01*
X0608605Y0080085D02*
X0589427Y0080085D01*
X0589427Y0079086D02*
X0608605Y0079086D01*
X0608605Y0078088D02*
X0589427Y0078088D01*
X0589427Y0077089D02*
X0608605Y0077089D01*
X0608605Y0076091D02*
X0589427Y0076091D01*
X0589427Y0075092D02*
X0608605Y0075092D01*
X0608605Y0074094D02*
X0589427Y0074094D01*
X0589427Y0073095D02*
X0608605Y0073095D01*
X0608605Y0072097D02*
X0589427Y0072097D01*
X0589427Y0071098D02*
X0608605Y0071098D01*
X0608605Y0070100D02*
X0589427Y0070100D01*
X0589427Y0069101D02*
X0608605Y0069101D01*
X0608605Y0068103D02*
X0589427Y0068103D01*
X0589427Y0067104D02*
X0608605Y0067104D01*
X0608605Y0066106D02*
X0589427Y0066106D01*
X0589427Y0065107D02*
X0608605Y0065107D01*
X0608605Y0064109D02*
X0589427Y0064109D01*
X0589427Y0063110D02*
X0608605Y0063110D01*
X0608605Y0062112D02*
X0589427Y0062112D01*
X0589427Y0061113D02*
X0608605Y0061113D01*
X0608605Y0060115D02*
X0589427Y0060115D01*
X0589427Y0059116D02*
X0608605Y0059116D01*
X0608605Y0058118D02*
X0589427Y0058118D01*
X0589427Y0057119D02*
X0608605Y0057119D01*
X0608605Y0056121D02*
X0589427Y0056121D01*
X0589427Y0055122D02*
X0608605Y0055122D01*
X0608605Y0054124D02*
X0589427Y0054124D01*
X0589427Y0053125D02*
X0608605Y0053125D01*
X0608605Y0052127D02*
X0589427Y0052127D01*
X0589427Y0051128D02*
X0608605Y0051128D01*
X0608605Y0050129D02*
X0589427Y0050129D01*
X0589427Y0049131D02*
X0608605Y0049131D01*
X0608605Y0048132D02*
X0589427Y0048132D01*
X0589427Y0047134D02*
X0608605Y0047134D01*
X0608605Y0046135D02*
X0589427Y0046135D01*
X0589427Y0045137D02*
X0608605Y0045137D01*
X0608605Y0044138D02*
X0589427Y0044138D01*
X0589427Y0043140D02*
X0608605Y0043140D01*
X0608605Y0042141D02*
X0589427Y0042141D01*
X0589427Y0041143D02*
X0608605Y0041143D01*
X0608605Y0040144D02*
X0589427Y0040144D01*
X0589427Y0039146D02*
X0608605Y0039146D01*
X0608605Y0038147D02*
X0589427Y0038147D01*
X0589427Y0037149D02*
X0608605Y0037149D01*
X0608605Y0036150D02*
X0589427Y0036150D01*
X0589427Y0035152D02*
X0608605Y0035152D01*
X0608605Y0034153D02*
X0589427Y0034153D01*
X0589427Y0033155D02*
X0608605Y0033155D01*
X0608605Y0032156D02*
X0589427Y0032156D01*
X0589283Y0031158D02*
X0608605Y0031158D01*
X0608605Y0030159D02*
X0588663Y0030159D01*
X0584027Y0050129D02*
X0583678Y0050129D01*
X0584027Y0051128D02*
X0582679Y0051128D01*
X0528048Y0042141D02*
X0501666Y0042141D01*
X0501638Y0042169D02*
X0498076Y0042169D01*
X0495557Y0039650D01*
X0495557Y0036088D01*
X0498076Y0033569D01*
X0501638Y0033569D01*
X0504157Y0036088D01*
X0504157Y0039650D01*
X0501638Y0042169D01*
X0502664Y0041143D02*
X0527050Y0041143D01*
X0526051Y0040144D02*
X0503663Y0040144D01*
X0504157Y0039146D02*
X0525557Y0039146D01*
X0525557Y0038147D02*
X0504157Y0038147D01*
X0504157Y0037149D02*
X0525557Y0037149D01*
X0525557Y0036150D02*
X0504157Y0036150D01*
X0503221Y0035152D02*
X0526493Y0035152D01*
X0527157Y0034153D02*
X0502223Y0034153D01*
X0497492Y0034153D02*
X0492223Y0034153D01*
X0491638Y0033569D02*
X0494157Y0036088D01*
X0494157Y0039650D01*
X0491638Y0042169D01*
X0488076Y0042169D01*
X0485557Y0039650D01*
X0485557Y0036088D01*
X0488076Y0033569D01*
X0491638Y0033569D01*
X0493221Y0035152D02*
X0496493Y0035152D01*
X0495557Y0036150D02*
X0494157Y0036150D01*
X0494157Y0037149D02*
X0495557Y0037149D01*
X0495557Y0038147D02*
X0494157Y0038147D01*
X0494157Y0039146D02*
X0495557Y0039146D01*
X0496051Y0040144D02*
X0493663Y0040144D01*
X0492664Y0041143D02*
X0497050Y0041143D01*
X0498048Y0042141D02*
X0491666Y0042141D01*
X0492208Y0044138D02*
X0497507Y0044138D01*
X0496508Y0045137D02*
X0493206Y0045137D01*
X0494157Y0046135D02*
X0495557Y0046135D01*
X0495557Y0047134D02*
X0494157Y0047134D01*
X0494157Y0048132D02*
X0495557Y0048132D01*
X0495557Y0049131D02*
X0494157Y0049131D01*
X0493678Y0050129D02*
X0496037Y0050129D01*
X0497035Y0051128D02*
X0492679Y0051128D01*
X0487503Y0051596D02*
X0485876Y0049969D01*
X0426101Y0049969D01*
X0424457Y0051613D01*
X0424457Y0052563D01*
X0425424Y0051596D01*
X0487503Y0051596D01*
X0487035Y0051128D02*
X0424942Y0051128D01*
X0424894Y0052127D02*
X0424457Y0052127D01*
X0425941Y0050129D02*
X0486037Y0050129D01*
X0488048Y0042141D02*
X0386503Y0042141D01*
X0386503Y0041143D02*
X0487050Y0041143D01*
X0486051Y0040144D02*
X0386503Y0040144D01*
X0386503Y0039146D02*
X0485557Y0039146D01*
X0485557Y0038147D02*
X0386503Y0038147D01*
X0386503Y0037149D02*
X0485557Y0037149D01*
X0485557Y0036150D02*
X0386503Y0036150D01*
X0386503Y0035152D02*
X0486493Y0035152D01*
X0487492Y0034153D02*
X0386503Y0034153D01*
X0386503Y0033155D02*
X0527157Y0033155D01*
X0527205Y0032156D02*
X0386503Y0032156D01*
X0386503Y0031158D02*
X0527691Y0031158D01*
X0528689Y0030159D02*
X0386503Y0030159D01*
X0499688Y0055122D02*
X0517157Y0055122D01*
X0517157Y0054124D02*
X0500687Y0054124D01*
X0501685Y0053125D02*
X0517157Y0053125D01*
X0517157Y0052127D02*
X0511681Y0052127D01*
X0511638Y0052169D02*
X0508076Y0052169D01*
X0505557Y0049650D01*
X0505557Y0046088D01*
X0508076Y0043569D01*
X0511638Y0043569D01*
X0514157Y0046088D01*
X0514157Y0049650D01*
X0511638Y0052169D01*
X0512679Y0051128D02*
X0517035Y0051128D01*
X0516037Y0050129D02*
X0513678Y0050129D01*
X0514157Y0049131D02*
X0515557Y0049131D01*
X0515557Y0048132D02*
X0514157Y0048132D01*
X0514157Y0047134D02*
X0515557Y0047134D01*
X0515557Y0046135D02*
X0514157Y0046135D01*
X0513206Y0045137D02*
X0516508Y0045137D01*
X0517507Y0044138D02*
X0512208Y0044138D01*
X0507507Y0044138D02*
X0502208Y0044138D01*
X0503206Y0045137D02*
X0506508Y0045137D01*
X0505557Y0046135D02*
X0504157Y0046135D01*
X0504157Y0047134D02*
X0505557Y0047134D01*
X0505557Y0048132D02*
X0504157Y0048132D01*
X0504157Y0049131D02*
X0505557Y0049131D01*
X0506037Y0050129D02*
X0503678Y0050129D01*
X0502679Y0051128D02*
X0507035Y0051128D01*
X0508034Y0052127D02*
X0501957Y0052127D01*
X0521149Y0059116D02*
X0526307Y0059116D01*
X0527157Y0058118D02*
X0522147Y0058118D01*
X0522557Y0057119D02*
X0527157Y0057119D01*
X0527157Y0056121D02*
X0522557Y0056121D01*
X0522557Y0055122D02*
X0527157Y0055122D01*
X0527157Y0054124D02*
X0522557Y0054124D01*
X0522557Y0053125D02*
X0527157Y0053125D01*
X0527157Y0052127D02*
X0522557Y0052127D01*
X0522679Y0051128D02*
X0527035Y0051128D01*
X0526037Y0050129D02*
X0523678Y0050129D01*
X0524157Y0049131D02*
X0525557Y0049131D01*
X0525557Y0048132D02*
X0524157Y0048132D01*
X0524157Y0047134D02*
X0525557Y0047134D01*
X0525557Y0046135D02*
X0524157Y0046135D01*
X0523206Y0045137D02*
X0526508Y0045137D01*
X0527507Y0044138D02*
X0522208Y0044138D01*
X0542246Y0098058D02*
X0608605Y0098058D01*
X0608605Y0097060D02*
X0584583Y0097060D01*
X0585582Y0096061D02*
X0608605Y0096061D01*
X0608605Y0099057D02*
X0542183Y0099057D01*
X0542183Y0100055D02*
X0608605Y0100055D01*
X0608605Y0101054D02*
X0542183Y0101054D01*
X0542183Y0102052D02*
X0608605Y0102052D01*
X0608605Y0103051D02*
X0542183Y0103051D01*
X0542183Y0104049D02*
X0608605Y0104049D01*
X0608605Y0105048D02*
X0542183Y0105048D01*
X0542183Y0106046D02*
X0608605Y0106046D01*
X0608605Y0107045D02*
X0542183Y0107045D01*
X0542183Y0108043D02*
X0608605Y0108043D01*
X0608605Y0109042D02*
X0542183Y0109042D01*
X0542183Y0110040D02*
X0608605Y0110040D01*
X0608605Y0111039D02*
X0542183Y0111039D01*
X0542183Y0112037D02*
X0608605Y0112037D01*
X0608605Y0113036D02*
X0542183Y0113036D01*
X0542183Y0114034D02*
X0608605Y0114034D01*
X0608605Y0115033D02*
X0542183Y0115033D01*
X0542183Y0116031D02*
X0608605Y0116031D01*
X0608605Y0117030D02*
X0542183Y0117030D01*
X0542183Y0118028D02*
X0608605Y0118028D01*
X0608605Y0119027D02*
X0542183Y0119027D01*
X0542183Y0120025D02*
X0608605Y0120025D01*
X0608605Y0121024D02*
X0542183Y0121024D01*
X0542183Y0122022D02*
X0608605Y0122022D01*
X0536779Y0132007D02*
X0489528Y0132007D01*
X0487802Y0129012D02*
X0508686Y0129012D01*
X0514277Y0133006D02*
X0536783Y0133006D01*
X0536783Y0134004D02*
X0515275Y0134004D01*
X0516024Y0135003D02*
X0536783Y0135003D01*
X0536783Y0136001D02*
X0516024Y0136001D01*
X0516024Y0137000D02*
X0536783Y0137000D01*
X0536783Y0137998D02*
X0516024Y0137998D01*
X0515177Y0138997D02*
X0536783Y0138997D01*
X0536783Y0139996D02*
X0514179Y0139996D01*
X0509670Y0139996D02*
X0447990Y0139996D01*
X0447990Y0140994D02*
X0536783Y0140994D01*
X0536783Y0141993D02*
X0447990Y0141993D01*
X0447990Y0142991D02*
X0536783Y0142991D01*
X0536783Y0143990D02*
X0447990Y0143990D01*
X0447990Y0144988D02*
X0536783Y0144988D01*
X0536783Y0145987D02*
X0447990Y0145987D01*
X0447990Y0146985D02*
X0536783Y0146985D01*
X0536783Y0147984D02*
X0447990Y0147984D01*
X0447990Y0148982D02*
X0536783Y0148982D01*
X0536783Y0149981D02*
X0447990Y0149981D01*
X0447990Y0150979D02*
X0536783Y0150979D01*
X0536783Y0151978D02*
X0447990Y0151978D01*
X0447990Y0152976D02*
X0536783Y0152976D01*
X0536783Y0153975D02*
X0513749Y0153975D01*
X0513622Y0153848D02*
X0516024Y0156249D01*
X0516024Y0159646D01*
X0513622Y0162048D01*
X0510226Y0162048D01*
X0507824Y0159646D01*
X0507824Y0156249D01*
X0510226Y0153848D01*
X0513622Y0153848D01*
X0514748Y0154973D02*
X0536783Y0154973D01*
X0536783Y0155972D02*
X0515746Y0155972D01*
X0516024Y0156970D02*
X0536783Y0156970D01*
X0536783Y0157969D02*
X0516024Y0157969D01*
X0516024Y0158967D02*
X0536783Y0158967D01*
X0536561Y0159966D02*
X0515704Y0159966D01*
X0514706Y0160964D02*
X0536396Y0160964D01*
X0536549Y0161963D02*
X0513707Y0161963D01*
X0513622Y0163848D02*
X0510226Y0163848D01*
X0507824Y0166249D01*
X0507824Y0169646D01*
X0510226Y0172048D01*
X0513622Y0172048D01*
X0516024Y0169646D01*
X0516024Y0166249D01*
X0513622Y0163848D01*
X0513734Y0163960D02*
X0536783Y0163960D01*
X0536783Y0164958D02*
X0514733Y0164958D01*
X0515731Y0165957D02*
X0536783Y0165957D01*
X0536783Y0166955D02*
X0516024Y0166955D01*
X0516024Y0167954D02*
X0536783Y0167954D01*
X0536783Y0168952D02*
X0516024Y0168952D01*
X0515719Y0169951D02*
X0536783Y0169951D01*
X0536783Y0170949D02*
X0514721Y0170949D01*
X0513722Y0171948D02*
X0536783Y0171948D01*
X0536783Y0172946D02*
X0442990Y0172946D01*
X0442990Y0171948D02*
X0510126Y0171948D01*
X0509127Y0170949D02*
X0442990Y0170949D01*
X0442990Y0169951D02*
X0508129Y0169951D01*
X0507824Y0168952D02*
X0442990Y0168952D01*
X0442990Y0167954D02*
X0443843Y0167954D01*
X0446737Y0167954D02*
X0507824Y0167954D01*
X0507824Y0166955D02*
X0487219Y0166955D01*
X0487126Y0167048D02*
X0483730Y0167048D01*
X0481328Y0164646D01*
X0481328Y0161249D01*
X0483730Y0158848D01*
X0487126Y0158848D01*
X0489528Y0161249D01*
X0489528Y0164646D01*
X0487126Y0167048D01*
X0488217Y0165957D02*
X0508117Y0165957D01*
X0509115Y0164958D02*
X0489216Y0164958D01*
X0489528Y0163960D02*
X0510114Y0163960D01*
X0510141Y0161963D02*
X0489528Y0161963D01*
X0489528Y0162961D02*
X0536783Y0162961D01*
X0536783Y0173945D02*
X0442990Y0173945D01*
X0442990Y0174943D02*
X0536783Y0174943D01*
X0536783Y0175942D02*
X0442990Y0175942D01*
X0442990Y0176940D02*
X0536783Y0176940D01*
X0536783Y0177939D02*
X0442990Y0177939D01*
X0442990Y0178937D02*
X0536783Y0178937D01*
X0536783Y0179936D02*
X0442990Y0179936D01*
X0442990Y0180934D02*
X0536783Y0180934D01*
X0536783Y0181933D02*
X0442990Y0181933D01*
X0442990Y0182931D02*
X0536783Y0182931D01*
X0536783Y0183930D02*
X0442990Y0183930D01*
X0442990Y0184929D02*
X0536783Y0184929D01*
X0536783Y0185927D02*
X0514206Y0185927D01*
X0513622Y0185344D02*
X0516024Y0187746D01*
X0516024Y0191142D01*
X0513622Y0193544D01*
X0510226Y0193544D01*
X0507824Y0191142D01*
X0507824Y0187746D01*
X0510226Y0185344D01*
X0513622Y0185344D01*
X0515204Y0186926D02*
X0536783Y0186926D01*
X0536783Y0187924D02*
X0516024Y0187924D01*
X0516024Y0188923D02*
X0536783Y0188923D01*
X0536783Y0189921D02*
X0516024Y0189921D01*
X0516024Y0190920D02*
X0536783Y0190920D01*
X0536780Y0191918D02*
X0515248Y0191918D01*
X0514250Y0192917D02*
X0536396Y0192917D01*
X0536396Y0193915D02*
X0489528Y0193915D01*
X0489528Y0192917D02*
X0509599Y0192917D01*
X0508600Y0191918D02*
X0488701Y0191918D01*
X0489528Y0192746D02*
X0487126Y0190344D01*
X0483730Y0190344D01*
X0481328Y0192746D01*
X0481328Y0196142D01*
X0483730Y0198544D01*
X0487126Y0198544D01*
X0489528Y0196142D01*
X0489528Y0192746D01*
X0489528Y0194914D02*
X0536744Y0194914D01*
X0536783Y0195912D02*
X0514191Y0195912D01*
X0513622Y0195344D02*
X0516024Y0197746D01*
X0516024Y0201142D01*
X0513622Y0203544D01*
X0510226Y0203544D01*
X0507824Y0201142D01*
X0507824Y0197746D01*
X0510226Y0195344D01*
X0513622Y0195344D01*
X0515189Y0196911D02*
X0536783Y0196911D01*
X0536783Y0197909D02*
X0516024Y0197909D01*
X0516024Y0198908D02*
X0536783Y0198908D01*
X0536783Y0199906D02*
X0516024Y0199906D01*
X0516024Y0200905D02*
X0536783Y0200905D01*
X0536783Y0201903D02*
X0515263Y0201903D01*
X0514264Y0202902D02*
X0536783Y0202902D01*
X0536783Y0203900D02*
X0437990Y0203900D01*
X0437990Y0202902D02*
X0509584Y0202902D01*
X0508585Y0201903D02*
X0437990Y0201903D01*
X0437990Y0200905D02*
X0507824Y0200905D01*
X0507824Y0199906D02*
X0441776Y0199906D01*
X0442916Y0198908D02*
X0507824Y0198908D01*
X0507824Y0197909D02*
X0487761Y0197909D01*
X0488759Y0196911D02*
X0508659Y0196911D01*
X0509657Y0195912D02*
X0489528Y0195912D01*
X0487702Y0190920D02*
X0507824Y0190920D01*
X0507824Y0189921D02*
X0442990Y0189921D01*
X0442990Y0188923D02*
X0507824Y0188923D01*
X0507824Y0187924D02*
X0442990Y0187924D01*
X0442990Y0186926D02*
X0508644Y0186926D01*
X0509643Y0185927D02*
X0442990Y0185927D01*
X0442990Y0190920D02*
X0473154Y0190920D01*
X0472155Y0191918D02*
X0442990Y0191918D01*
X0443529Y0196911D02*
X0472097Y0196911D01*
X0473095Y0197909D02*
X0443330Y0197909D01*
X0438804Y0199906D02*
X0437990Y0199906D01*
X0437990Y0204899D02*
X0536783Y0204899D01*
X0536783Y0205897D02*
X0437990Y0205897D01*
X0437990Y0206896D02*
X0536783Y0206896D01*
X0536783Y0207894D02*
X0437990Y0207894D01*
X0437990Y0208893D02*
X0536783Y0208893D01*
X0536783Y0209891D02*
X0437990Y0209891D01*
X0437990Y0210890D02*
X0536783Y0210890D01*
X0536783Y0211888D02*
X0437990Y0211888D01*
X0437990Y0212887D02*
X0536783Y0212887D01*
X0536783Y0213885D02*
X0437990Y0213885D01*
X0437990Y0214884D02*
X0536783Y0214884D01*
X0536783Y0215882D02*
X0437990Y0215882D01*
X0437990Y0216881D02*
X0510185Y0216881D01*
X0510226Y0216840D02*
X0513622Y0216840D01*
X0516024Y0219242D01*
X0516024Y0222638D01*
X0513622Y0225040D01*
X0510226Y0225040D01*
X0507824Y0222638D01*
X0507824Y0219242D01*
X0510226Y0216840D01*
X0509186Y0217879D02*
X0437990Y0217879D01*
X0437990Y0218878D02*
X0508188Y0218878D01*
X0507824Y0219876D02*
X0437990Y0219876D01*
X0437990Y0220875D02*
X0507824Y0220875D01*
X0507824Y0221873D02*
X0487160Y0221873D01*
X0487126Y0221840D02*
X0489528Y0224242D01*
X0489528Y0227638D01*
X0487126Y0230040D01*
X0483730Y0230040D01*
X0481328Y0227638D01*
X0481328Y0224242D01*
X0483730Y0221840D01*
X0487126Y0221840D01*
X0488158Y0222872D02*
X0508058Y0222872D01*
X0509056Y0223870D02*
X0489157Y0223870D01*
X0489528Y0224869D02*
X0510055Y0224869D01*
X0510226Y0226840D02*
X0513622Y0226840D01*
X0516024Y0229242D01*
X0516024Y0232638D01*
X0513622Y0235040D01*
X0510226Y0235040D01*
X0507824Y0232638D01*
X0507824Y0229242D01*
X0510226Y0226840D01*
X0510200Y0226866D02*
X0489528Y0226866D01*
X0489528Y0225867D02*
X0536519Y0225867D01*
X0536396Y0224869D02*
X0513793Y0224869D01*
X0514792Y0223870D02*
X0536591Y0223870D01*
X0536783Y0222872D02*
X0515790Y0222872D01*
X0516024Y0221873D02*
X0536783Y0221873D01*
X0536783Y0220875D02*
X0516024Y0220875D01*
X0516024Y0219876D02*
X0536783Y0219876D01*
X0536783Y0218878D02*
X0515660Y0218878D01*
X0514662Y0217879D02*
X0536783Y0217879D01*
X0536783Y0216881D02*
X0513663Y0216881D01*
X0513649Y0226866D02*
X0536783Y0226866D01*
X0536783Y0227865D02*
X0514647Y0227865D01*
X0515646Y0228863D02*
X0536783Y0228863D01*
X0536783Y0229862D02*
X0516024Y0229862D01*
X0516024Y0230860D02*
X0536783Y0230860D01*
X0536783Y0231859D02*
X0516024Y0231859D01*
X0515805Y0232857D02*
X0536783Y0232857D01*
X0536783Y0233856D02*
X0514807Y0233856D01*
X0513808Y0234854D02*
X0536783Y0234854D01*
X0536783Y0235853D02*
X0432990Y0235853D01*
X0432990Y0236851D02*
X0536783Y0236851D01*
X0536783Y0237850D02*
X0432990Y0237850D01*
X0432990Y0238848D02*
X0536783Y0238848D01*
X0536783Y0239847D02*
X0432990Y0239847D01*
X0432990Y0240845D02*
X0536783Y0240845D01*
X0536783Y0241844D02*
X0432990Y0241844D01*
X0432990Y0242842D02*
X0536783Y0242842D01*
X0536783Y0243841D02*
X0432990Y0243841D01*
X0432990Y0244839D02*
X0536783Y0244839D01*
X0536783Y0245838D02*
X0432990Y0245838D01*
X0432990Y0246836D02*
X0536783Y0246836D01*
X0536783Y0247835D02*
X0432990Y0247835D01*
X0432990Y0248833D02*
X0536783Y0248833D01*
X0536783Y0249832D02*
X0514134Y0249832D01*
X0513622Y0249320D02*
X0516024Y0251722D01*
X0516024Y0255118D01*
X0513622Y0257520D01*
X0510226Y0257520D01*
X0507824Y0255118D01*
X0507824Y0251722D01*
X0510226Y0249320D01*
X0513622Y0249320D01*
X0515132Y0250830D02*
X0536783Y0250830D01*
X0536783Y0251829D02*
X0516024Y0251829D01*
X0516024Y0252827D02*
X0536783Y0252827D01*
X0536783Y0253826D02*
X0516024Y0253826D01*
X0516024Y0254824D02*
X0536783Y0254824D01*
X0536402Y0255823D02*
X0515320Y0255823D01*
X0514321Y0256821D02*
X0536396Y0256821D01*
X0536708Y0257820D02*
X0489528Y0257820D01*
X0489528Y0258818D02*
X0537484Y0258818D01*
X0509729Y0259817D02*
X0489528Y0259817D01*
X0489528Y0260118D02*
X0487126Y0262520D01*
X0483730Y0262520D01*
X0481328Y0260118D01*
X0481328Y0256722D01*
X0483730Y0254320D01*
X0487126Y0254320D01*
X0489528Y0256722D01*
X0489528Y0260118D01*
X0488831Y0260815D02*
X0508731Y0260815D01*
X0507824Y0261814D02*
X0487833Y0261814D01*
X0483023Y0261814D02*
X0477833Y0261814D01*
X0478831Y0260815D02*
X0482025Y0260815D01*
X0481328Y0259817D02*
X0479528Y0259817D01*
X0479528Y0258818D02*
X0481328Y0258818D01*
X0481328Y0257820D02*
X0479528Y0257820D01*
X0479528Y0256821D02*
X0481328Y0256821D01*
X0482227Y0255823D02*
X0478629Y0255823D01*
X0477630Y0254824D02*
X0483226Y0254824D01*
X0487630Y0254824D02*
X0507824Y0254824D01*
X0507824Y0253826D02*
X0432990Y0253826D01*
X0432990Y0254824D02*
X0473226Y0254824D01*
X0472227Y0255823D02*
X0432990Y0255823D01*
X0432990Y0252827D02*
X0507824Y0252827D01*
X0507824Y0251829D02*
X0432990Y0251829D01*
X0432990Y0250830D02*
X0508716Y0250830D01*
X0509714Y0249832D02*
X0432990Y0249832D01*
X0433759Y0260815D02*
X0472025Y0260815D01*
X0473023Y0261814D02*
X0433378Y0261814D01*
X0433011Y0262812D02*
X0507824Y0262812D01*
X0507824Y0263811D02*
X0432159Y0263811D01*
X0420257Y0284780D02*
X0386503Y0284780D01*
X0386503Y0285778D02*
X0420257Y0285778D01*
X0420257Y0286777D02*
X0386503Y0286777D01*
X0386503Y0287775D02*
X0420257Y0287775D01*
X0420257Y0288774D02*
X0386503Y0288774D01*
X0386503Y0289772D02*
X0420257Y0289772D01*
X0420257Y0290771D02*
X0386503Y0290771D01*
X0386503Y0291769D02*
X0420257Y0291769D01*
X0420257Y0292768D02*
X0386503Y0292768D01*
X0386503Y0293766D02*
X0420257Y0293766D01*
X0420257Y0294765D02*
X0386503Y0294765D01*
X0386503Y0295763D02*
X0420257Y0295763D01*
X0420257Y0296762D02*
X0386503Y0296762D01*
X0386503Y0297760D02*
X0420257Y0297760D01*
X0420257Y0298759D02*
X0386503Y0298759D01*
X0386503Y0299757D02*
X0420257Y0299757D01*
X0420257Y0300756D02*
X0386503Y0300756D01*
X0386503Y0301754D02*
X0420257Y0301754D01*
X0420257Y0302753D02*
X0386503Y0302753D01*
X0386503Y0303751D02*
X0420257Y0303751D01*
X0420257Y0304750D02*
X0386503Y0304750D01*
X0386503Y0305748D02*
X0420257Y0305748D01*
X0420257Y0306747D02*
X0386503Y0306747D01*
X0386503Y0307745D02*
X0420257Y0307745D01*
X0420257Y0308744D02*
X0386503Y0308744D01*
X0386503Y0309742D02*
X0420513Y0309742D01*
X0421511Y0310741D02*
X0386503Y0310741D01*
X0386503Y0311739D02*
X0422510Y0311739D01*
X0423508Y0312738D02*
X0386503Y0312738D01*
X0386503Y0313736D02*
X0424507Y0313736D01*
X0488629Y0255823D02*
X0508528Y0255823D01*
X0509527Y0256821D02*
X0489528Y0256821D01*
X0510040Y0234854D02*
X0432990Y0234854D01*
X0432990Y0233856D02*
X0509042Y0233856D01*
X0508043Y0232857D02*
X0432990Y0232857D01*
X0432990Y0231859D02*
X0507824Y0231859D01*
X0507824Y0230860D02*
X0437551Y0230860D01*
X0438174Y0229862D02*
X0473551Y0229862D01*
X0472553Y0228863D02*
X0438378Y0228863D01*
X0433029Y0230860D02*
X0432990Y0230860D01*
X0437990Y0222872D02*
X0472698Y0222872D01*
X0473696Y0221873D02*
X0437990Y0221873D01*
X0477160Y0221873D02*
X0483696Y0221873D01*
X0482698Y0222872D02*
X0478158Y0222872D01*
X0479157Y0223870D02*
X0481699Y0223870D01*
X0481328Y0224869D02*
X0479528Y0224869D01*
X0479528Y0225867D02*
X0481328Y0225867D01*
X0481328Y0226866D02*
X0479528Y0226866D01*
X0479302Y0227865D02*
X0481554Y0227865D01*
X0482553Y0228863D02*
X0478303Y0228863D01*
X0477305Y0229862D02*
X0483551Y0229862D01*
X0487305Y0229862D02*
X0507824Y0229862D01*
X0508203Y0228863D02*
X0488303Y0228863D01*
X0489302Y0227865D02*
X0509201Y0227865D01*
X0483095Y0197909D02*
X0477761Y0197909D01*
X0478759Y0196911D02*
X0482097Y0196911D01*
X0481328Y0195912D02*
X0479528Y0195912D01*
X0479528Y0194914D02*
X0481328Y0194914D01*
X0481328Y0193915D02*
X0479528Y0193915D01*
X0479528Y0192917D02*
X0481328Y0192917D01*
X0482155Y0191918D02*
X0478701Y0191918D01*
X0477702Y0190920D02*
X0483154Y0190920D01*
X0483637Y0166955D02*
X0477219Y0166955D01*
X0478217Y0165957D02*
X0482639Y0165957D01*
X0481640Y0164958D02*
X0479216Y0164958D01*
X0479528Y0163960D02*
X0481328Y0163960D01*
X0481328Y0162961D02*
X0479528Y0162961D01*
X0479528Y0161963D02*
X0481328Y0161963D01*
X0481613Y0160964D02*
X0479243Y0160964D01*
X0478244Y0159966D02*
X0482612Y0159966D01*
X0483610Y0158967D02*
X0477246Y0158967D01*
X0473610Y0158967D02*
X0447990Y0158967D01*
X0447990Y0157969D02*
X0507824Y0157969D01*
X0507824Y0158967D02*
X0487246Y0158967D01*
X0488244Y0159966D02*
X0508144Y0159966D01*
X0509142Y0160964D02*
X0489243Y0160964D01*
X0472612Y0159966D02*
X0447990Y0159966D01*
X0447990Y0156970D02*
X0507824Y0156970D01*
X0508102Y0155972D02*
X0447990Y0155972D01*
X0447990Y0154973D02*
X0509100Y0154973D01*
X0510099Y0153975D02*
X0447990Y0153975D01*
X0448323Y0165957D02*
X0472639Y0165957D01*
X0473637Y0166955D02*
X0447910Y0166955D01*
X0477661Y0136001D02*
X0483195Y0136001D01*
X0482197Y0135003D02*
X0478659Y0135003D01*
X0479528Y0134004D02*
X0481328Y0134004D01*
X0481328Y0133006D02*
X0479528Y0133006D01*
X0479528Y0132007D02*
X0481328Y0132007D01*
X0481328Y0131009D02*
X0479528Y0131009D01*
X0478801Y0130010D02*
X0482055Y0130010D01*
X0483054Y0129012D02*
X0477802Y0129012D01*
X0197216Y0144988D02*
X0197088Y0144988D01*
X0197216Y0145987D02*
X0196089Y0145987D01*
X0195091Y0146985D02*
X0197216Y0146985D01*
X0197216Y0147984D02*
X0194092Y0147984D01*
X0192074Y0148982D02*
X0197216Y0148982D01*
X0197216Y0149981D02*
X0192074Y0149981D01*
X0192074Y0150979D02*
X0197216Y0150979D01*
X0197216Y0151978D02*
X0192074Y0151978D01*
X0192074Y0152976D02*
X0197216Y0152976D01*
X0197216Y0153975D02*
X0192074Y0153975D01*
X0192074Y0154973D02*
X0197216Y0154973D01*
X0197216Y0155972D02*
X0192074Y0155972D01*
X0192074Y0156970D02*
X0197216Y0156970D01*
X0197216Y0157969D02*
X0192074Y0157969D01*
X0192074Y0158967D02*
X0197216Y0158967D01*
X0197216Y0159966D02*
X0192074Y0159966D01*
X0192074Y0160964D02*
X0197216Y0160964D01*
X0197216Y0161963D02*
X0192074Y0161963D01*
X0192074Y0162961D02*
X0197216Y0162961D01*
X0197216Y0163960D02*
X0192074Y0163960D01*
X0192074Y0164958D02*
X0197216Y0164958D01*
X0197216Y0165957D02*
X0192074Y0165957D01*
X0192074Y0166955D02*
X0197216Y0166955D01*
X0197216Y0167954D02*
X0192074Y0167954D01*
X0192074Y0168952D02*
X0197216Y0168952D01*
X0197216Y0169951D02*
X0192074Y0169951D01*
X0192074Y0170949D02*
X0197216Y0170949D01*
X0197216Y0171948D02*
X0192074Y0171948D01*
X0192074Y0172946D02*
X0197216Y0172946D01*
X0197216Y0173945D02*
X0192074Y0173945D01*
X0192074Y0174943D02*
X0197216Y0174943D01*
X0197216Y0175942D02*
X0192074Y0175942D01*
X0192074Y0176940D02*
X0197216Y0176940D01*
X0197216Y0177939D02*
X0192074Y0177939D01*
X0192074Y0178937D02*
X0197216Y0178937D01*
X0197216Y0179936D02*
X0192074Y0179936D01*
X0192074Y0180934D02*
X0197216Y0180934D01*
X0197216Y0181933D02*
X0192074Y0181933D01*
X0192074Y0182931D02*
X0197216Y0182931D01*
X0197216Y0183930D02*
X0192074Y0183930D01*
X0192074Y0184929D02*
X0197216Y0184929D01*
X0197216Y0185927D02*
X0192074Y0185927D01*
X0192074Y0186926D02*
X0197216Y0186926D01*
X0197216Y0187924D02*
X0192074Y0187924D01*
X0192074Y0188923D02*
X0197216Y0188923D01*
X0197216Y0189921D02*
X0192074Y0189921D01*
X0192074Y0141993D02*
X0192447Y0141993D01*
X0192074Y0140994D02*
X0193279Y0140994D01*
X0193279Y0139996D02*
X0192074Y0139996D01*
X0192074Y0138997D02*
X0193279Y0138997D01*
X0193279Y0137998D02*
X0192074Y0137998D01*
X0192074Y0137000D02*
X0193279Y0137000D01*
X0193279Y0136001D02*
X0191546Y0136001D01*
X0175563Y0123021D02*
X0172230Y0123021D01*
X0155673Y0094064D02*
X0151143Y0094064D01*
X0152141Y0093065D02*
X0154675Y0093065D01*
X0154520Y0088073D02*
X0152321Y0088073D01*
X0151425Y0087074D02*
X0155391Y0087074D01*
X0157099Y0086076D02*
X0151139Y0086076D01*
X0152137Y0085077D02*
X0170057Y0085077D01*
X0155688Y0084079D02*
X0152616Y0084079D01*
X0152928Y0083080D02*
X0154689Y0083080D01*
X0154229Y0082082D02*
X0152928Y0082082D01*
X0152736Y0081083D02*
X0153918Y0081083D01*
X0153918Y0080085D02*
X0152322Y0080085D01*
X0151429Y0079086D02*
X0154100Y0079086D01*
X0154513Y0078088D02*
X0149639Y0078088D01*
X0147280Y0078088D02*
X0142928Y0078088D01*
X0142928Y0079086D02*
X0145490Y0079086D01*
X0144597Y0080085D02*
X0142623Y0080085D01*
X0142155Y0081083D02*
X0144183Y0081083D01*
X0143991Y0082082D02*
X0141157Y0082082D01*
X0141408Y0083080D02*
X0143991Y0083080D01*
X0144303Y0084079D02*
X0142313Y0084079D01*
X0142727Y0085077D02*
X0144782Y0085077D01*
X0145780Y0086076D02*
X0142928Y0086076D01*
X0142928Y0087074D02*
X0145494Y0087074D01*
X0144598Y0088073D02*
X0142625Y0088073D01*
X0142159Y0089071D02*
X0144185Y0089071D01*
X0143991Y0090070D02*
X0141161Y0090070D01*
X0142729Y0077089D02*
X0155376Y0077089D01*
X0155760Y0076091D02*
X0142315Y0076091D01*
X0141412Y0075092D02*
X0155760Y0075092D01*
X0155760Y0074094D02*
X0141153Y0074094D01*
X0142151Y0073095D02*
X0155760Y0073095D01*
X0155760Y0072097D02*
X0142621Y0072097D01*
X0142928Y0071098D02*
X0155760Y0071098D01*
X0155760Y0070100D02*
X0142928Y0070100D01*
X0142730Y0069101D02*
X0155760Y0069101D01*
X0155760Y0068103D02*
X0142317Y0068103D01*
X0141416Y0067104D02*
X0155760Y0067104D01*
X0155760Y0066106D02*
X0141149Y0066106D01*
X0142147Y0065107D02*
X0155760Y0065107D01*
X0155760Y0064109D02*
X0142620Y0064109D01*
X0142139Y0049131D02*
X0144176Y0049131D01*
X0144590Y0048132D02*
X0142616Y0048132D01*
X0142928Y0047134D02*
X0145474Y0047134D01*
X0145800Y0046135D02*
X0142928Y0046135D01*
X0142735Y0045137D02*
X0144802Y0045137D01*
X0144312Y0044138D02*
X0142322Y0044138D01*
X0141428Y0043140D02*
X0143991Y0043140D01*
X0143991Y0042141D02*
X0139635Y0042141D01*
X0149688Y0038147D02*
X0157041Y0038147D01*
X0155367Y0039146D02*
X0151450Y0039146D01*
X0152331Y0040144D02*
X0154510Y0040144D01*
X0154699Y0045137D02*
X0152117Y0045137D01*
X0151119Y0046135D02*
X0155697Y0046135D01*
X0161222Y0046135D02*
X0170057Y0046135D01*
X0170057Y0036150D02*
X0088073Y0036150D01*
X0087497Y0035152D02*
X0170057Y0035152D01*
X0170057Y0034153D02*
X0086673Y0034153D01*
X0085674Y0033155D02*
X0170057Y0033155D01*
X0170057Y0032156D02*
X0084283Y0032156D01*
X0082381Y0031158D02*
X0170057Y0031158D01*
X0170987Y0030159D02*
X0070580Y0030159D01*
X0071513Y0031158D02*
X0074538Y0031158D01*
X0072636Y0032156D02*
X0071927Y0032156D01*
X0069509Y0029161D02*
X0171986Y0029161D01*
X0075569Y0149981D02*
X0036109Y0149981D01*
X0036109Y0150979D02*
X0075569Y0150979D01*
X0075569Y0151978D02*
X0036109Y0151978D01*
X0036109Y0152976D02*
X0075569Y0152976D01*
X0075569Y0153975D02*
X0036109Y0153975D01*
X0036109Y0154973D02*
X0075569Y0154973D01*
X0075569Y0155972D02*
X0036109Y0155972D01*
X0036109Y0156970D02*
X0075569Y0156970D01*
X0075569Y0157969D02*
X0036109Y0157969D01*
X0036109Y0158967D02*
X0051924Y0158967D01*
X0052673Y0158657D02*
X0054836Y0158657D01*
X0056835Y0159485D01*
X0058364Y0161014D01*
X0059192Y0163012D01*
X0059192Y0165175D01*
X0058364Y0167174D01*
X0056835Y0168703D01*
X0054836Y0169531D01*
X0052673Y0169531D01*
X0050675Y0168703D01*
X0049146Y0167174D01*
X0048318Y0165175D01*
X0048318Y0163012D01*
X0049146Y0161014D01*
X0050675Y0159485D01*
X0052673Y0158657D01*
X0050194Y0159966D02*
X0036109Y0159966D01*
X0036109Y0160964D02*
X0049195Y0160964D01*
X0048753Y0161963D02*
X0036109Y0161963D01*
X0036109Y0162961D02*
X0048339Y0162961D01*
X0048318Y0163960D02*
X0036109Y0163960D01*
X0036109Y0164958D02*
X0048318Y0164958D01*
X0048642Y0165957D02*
X0036109Y0165957D01*
X0036109Y0166955D02*
X0049055Y0166955D01*
X0049926Y0167954D02*
X0036109Y0167954D01*
X0036109Y0168952D02*
X0051277Y0168952D01*
X0056233Y0168952D02*
X0075569Y0168952D01*
X0075569Y0167954D02*
X0057584Y0167954D01*
X0058454Y0166955D02*
X0075569Y0166955D01*
X0075569Y0165957D02*
X0058868Y0165957D01*
X0059192Y0164958D02*
X0075569Y0164958D01*
X0075569Y0163960D02*
X0059192Y0163960D01*
X0059171Y0162961D02*
X0075569Y0162961D01*
X0075569Y0161963D02*
X0058757Y0161963D01*
X0058314Y0160964D02*
X0075569Y0160964D01*
X0075569Y0159966D02*
X0057316Y0159966D01*
X0055586Y0158967D02*
X0075569Y0158967D01*
X0075569Y0169951D02*
X0036109Y0169951D01*
X0036109Y0170949D02*
X0075569Y0170949D01*
X0075569Y0171948D02*
X0036109Y0171948D01*
X0036109Y0172946D02*
X0075569Y0172946D01*
X0075569Y0173945D02*
X0036109Y0173945D01*
X0036109Y0174943D02*
X0075569Y0174943D01*
X0075569Y0175942D02*
X0036109Y0175942D01*
X0036109Y0176940D02*
X0075569Y0176940D01*
X0075569Y0177939D02*
X0036109Y0177939D01*
X0036109Y0178937D02*
X0051996Y0178937D01*
X0052673Y0178657D02*
X0054836Y0178657D01*
X0056835Y0179485D01*
X0058364Y0181014D01*
X0059192Y0183012D01*
X0059192Y0185175D01*
X0058364Y0187174D01*
X0056835Y0188703D01*
X0054836Y0189531D01*
X0052673Y0189531D01*
X0050675Y0188703D01*
X0049146Y0187174D01*
X0048318Y0185175D01*
X0048318Y0183012D01*
X0049146Y0181014D01*
X0050675Y0179485D01*
X0052673Y0178657D01*
X0050224Y0179936D02*
X0036109Y0179936D01*
X0036109Y0180934D02*
X0049225Y0180934D01*
X0048765Y0181933D02*
X0036109Y0181933D01*
X0036109Y0182931D02*
X0048351Y0182931D01*
X0048318Y0183930D02*
X0036109Y0183930D01*
X0036109Y0184929D02*
X0048318Y0184929D01*
X0048629Y0185927D02*
X0036109Y0185927D01*
X0036109Y0186926D02*
X0049043Y0186926D01*
X0049896Y0187924D02*
X0036109Y0187924D01*
X0036109Y0188923D02*
X0051205Y0188923D01*
X0056305Y0188923D02*
X0075569Y0188923D01*
X0075569Y0189921D02*
X0036109Y0189921D01*
X0036109Y0190920D02*
X0075569Y0190920D01*
X0075569Y0191918D02*
X0036109Y0191918D01*
X0036109Y0192917D02*
X0075569Y0192917D01*
X0075569Y0193915D02*
X0036109Y0193915D01*
X0036109Y0194914D02*
X0075569Y0194914D01*
X0075569Y0195912D02*
X0036109Y0195912D01*
X0036109Y0196911D02*
X0075569Y0196911D01*
X0075569Y0197909D02*
X0036109Y0197909D01*
X0036109Y0198908D02*
X0052068Y0198908D01*
X0052673Y0198657D02*
X0054836Y0198657D01*
X0056835Y0199485D01*
X0058364Y0201014D01*
X0059192Y0203012D01*
X0059192Y0205175D01*
X0058364Y0207174D01*
X0056835Y0208703D01*
X0054836Y0209531D01*
X0052673Y0209531D01*
X0050675Y0208703D01*
X0049146Y0207174D01*
X0048318Y0205175D01*
X0048318Y0203012D01*
X0049146Y0201014D01*
X0050675Y0199485D01*
X0052673Y0198657D01*
X0050253Y0199906D02*
X0036109Y0199906D01*
X0036109Y0200905D02*
X0049255Y0200905D01*
X0048777Y0201903D02*
X0036109Y0201903D01*
X0036109Y0202902D02*
X0048364Y0202902D01*
X0048318Y0203900D02*
X0036109Y0203900D01*
X0036109Y0204899D02*
X0048318Y0204899D01*
X0048617Y0205897D02*
X0036109Y0205897D01*
X0036109Y0206896D02*
X0049030Y0206896D01*
X0049866Y0207894D02*
X0036109Y0207894D01*
X0036109Y0208893D02*
X0051133Y0208893D01*
X0056377Y0208893D02*
X0075569Y0208893D01*
X0075569Y0209891D02*
X0036109Y0209891D01*
X0036109Y0210890D02*
X0075569Y0210890D01*
X0075569Y0211888D02*
X0036109Y0211888D01*
X0036109Y0212887D02*
X0075569Y0212887D01*
X0075569Y0213885D02*
X0036109Y0213885D01*
X0036109Y0214884D02*
X0075569Y0214884D01*
X0075569Y0215882D02*
X0036109Y0215882D01*
X0036109Y0216881D02*
X0075569Y0216881D01*
X0075569Y0217879D02*
X0036109Y0217879D01*
X0036109Y0218878D02*
X0075569Y0218878D01*
X0075569Y0219876D02*
X0036109Y0219876D01*
X0036109Y0220875D02*
X0075569Y0220875D01*
X0075569Y0221873D02*
X0036109Y0221873D01*
X0036109Y0222872D02*
X0075569Y0222872D01*
X0075569Y0223870D02*
X0036109Y0223870D01*
X0036109Y0224869D02*
X0075569Y0224869D01*
X0075569Y0225867D02*
X0036109Y0225867D01*
X0036109Y0226866D02*
X0075569Y0226866D01*
X0075569Y0227865D02*
X0036109Y0227865D01*
X0036109Y0228863D02*
X0075569Y0228863D01*
X0075569Y0229862D02*
X0036109Y0229862D01*
X0036109Y0230860D02*
X0075569Y0230860D01*
X0075569Y0231859D02*
X0036109Y0231859D01*
X0036109Y0232857D02*
X0075569Y0232857D01*
X0075569Y0233856D02*
X0036109Y0233856D01*
X0036109Y0234854D02*
X0075569Y0234854D01*
X0075569Y0235853D02*
X0036109Y0235853D01*
X0036109Y0236851D02*
X0075569Y0236851D01*
X0075569Y0237850D02*
X0036109Y0237850D01*
X0036109Y0238848D02*
X0075569Y0238848D01*
X0075569Y0239847D02*
X0036109Y0239847D01*
X0036109Y0240845D02*
X0075569Y0240845D01*
X0075569Y0241844D02*
X0036109Y0241844D01*
X0036109Y0242842D02*
X0048348Y0242842D01*
X0048721Y0242688D02*
X0046723Y0243516D01*
X0045193Y0245045D01*
X0044365Y0247043D01*
X0044365Y0249206D01*
X0045193Y0251205D01*
X0046723Y0252734D01*
X0048721Y0253562D01*
X0058758Y0253562D01*
X0060756Y0252734D01*
X0062286Y0251205D01*
X0063113Y0249206D01*
X0063113Y0247043D01*
X0062286Y0245045D01*
X0060756Y0243516D01*
X0058758Y0242688D01*
X0048721Y0242688D01*
X0046398Y0243841D02*
X0036109Y0243841D01*
X0036109Y0244839D02*
X0045399Y0244839D01*
X0044865Y0245838D02*
X0036109Y0245838D01*
X0036109Y0246836D02*
X0044451Y0246836D01*
X0044365Y0247835D02*
X0036109Y0247835D01*
X0036109Y0248833D02*
X0044365Y0248833D01*
X0044624Y0249832D02*
X0036109Y0249832D01*
X0036109Y0250830D02*
X0045038Y0250830D01*
X0045817Y0251829D02*
X0036109Y0251829D01*
X0036109Y0252827D02*
X0046947Y0252827D01*
X0036109Y0253826D02*
X0075569Y0253826D01*
X0075569Y0254824D02*
X0036109Y0254824D01*
X0036109Y0255823D02*
X0075569Y0255823D01*
X0075569Y0256821D02*
X0036109Y0256821D01*
X0060531Y0252827D02*
X0075569Y0252827D01*
X0075569Y0251829D02*
X0061662Y0251829D01*
X0062441Y0250830D02*
X0075569Y0250830D01*
X0075569Y0249832D02*
X0062854Y0249832D01*
X0063113Y0248833D02*
X0075569Y0248833D01*
X0075569Y0247835D02*
X0063113Y0247835D01*
X0063028Y0246836D02*
X0075569Y0246836D01*
X0075569Y0245838D02*
X0062614Y0245838D01*
X0062080Y0244839D02*
X0075569Y0244839D01*
X0075569Y0243841D02*
X0061081Y0243841D01*
X0059130Y0242842D02*
X0075569Y0242842D01*
X0075569Y0207894D02*
X0057643Y0207894D01*
X0058479Y0206896D02*
X0075569Y0206896D01*
X0075569Y0205897D02*
X0058893Y0205897D01*
X0059192Y0204899D02*
X0075569Y0204899D01*
X0075569Y0203900D02*
X0059192Y0203900D01*
X0059146Y0202902D02*
X0075569Y0202902D01*
X0075569Y0201903D02*
X0058732Y0201903D01*
X0058255Y0200905D02*
X0075569Y0200905D01*
X0075569Y0199906D02*
X0057256Y0199906D01*
X0055442Y0198908D02*
X0075569Y0198908D01*
X0075569Y0187924D02*
X0057614Y0187924D01*
X0058467Y0186926D02*
X0075569Y0186926D01*
X0075569Y0185927D02*
X0058880Y0185927D01*
X0059192Y0184929D02*
X0075569Y0184929D01*
X0075569Y0183930D02*
X0059192Y0183930D01*
X0059158Y0182931D02*
X0075569Y0182931D01*
X0075569Y0181933D02*
X0058745Y0181933D01*
X0058285Y0180934D02*
X0075569Y0180934D01*
X0075569Y0179936D02*
X0057286Y0179936D01*
X0055514Y0178937D02*
X0075569Y0178937D01*
X0541836Y0365659D02*
X0548116Y0365659D01*
X0547187Y0366658D02*
X0542405Y0366658D01*
X0558081Y0374646D02*
X0608605Y0374646D01*
X0608605Y0375644D02*
X0559969Y0375644D01*
X0560907Y0376643D02*
X0608605Y0376643D01*
X0608605Y0377641D02*
X0561321Y0377641D01*
X0561550Y0378640D02*
X0608605Y0378640D01*
X0608605Y0379638D02*
X0561550Y0379638D01*
X0561280Y0380637D02*
X0608605Y0380637D01*
X0608605Y0381635D02*
X0560866Y0381635D01*
X0560805Y0352678D02*
X0559825Y0352678D01*
D22*
X0539483Y0367672D03*
X0535546Y0386373D03*
X0551294Y0417869D03*
X0582790Y0417869D03*
X0598538Y0402121D03*
X0598538Y0370625D03*
X0598538Y0339129D03*
X0598538Y0307633D03*
X0563105Y0297790D03*
X0543420Y0287948D03*
X0539483Y0256452D03*
X0555231Y0252515D03*
X0568026Y0253499D03*
X0572948Y0253499D03*
X0598538Y0244641D03*
X0577869Y0230861D03*
X0577869Y0225940D03*
X0598538Y0213145D03*
X0577869Y0201334D03*
X0577869Y0195428D03*
X0598538Y0181649D03*
X0577869Y0168853D03*
X0577869Y0163932D03*
X0598538Y0150152D03*
X0579837Y0137357D03*
X0579837Y0132436D03*
X0598538Y0118656D03*
X0598538Y0087160D03*
X0563105Y0080271D03*
X0598538Y0055664D03*
X0519798Y0079286D03*
X0519798Y0095034D03*
X0511924Y0095034D03*
X0511924Y0102908D03*
X0519798Y0102908D03*
X0504050Y0102908D03*
X0504050Y0095034D03*
X0495192Y0086176D03*
X0472554Y0102908D03*
X0450290Y0134030D03*
X0472554Y0150152D03*
X0445290Y0165212D03*
X0472554Y0181649D03*
X0440290Y0197180D03*
X0472554Y0213145D03*
X0435290Y0228755D03*
X0472554Y0244641D03*
X0430290Y0261314D03*
X0393814Y0276137D03*
X0393814Y0307633D03*
X0421373Y0323381D03*
X0448932Y0343066D03*
X0473538Y0317475D03*
X0483381Y0311570D03*
X0492239Y0335192D03*
X0503755Y0334639D03*
X0511924Y0350940D03*
X0492239Y0350940D03*
X0456806Y0370625D03*
X0456806Y0417869D03*
X0393814Y0402121D03*
X0362318Y0402121D03*
X0362318Y0417869D03*
X0315074Y0417869D03*
X0299326Y0417869D03*
X0283578Y0417869D03*
X0267830Y0417869D03*
X0252082Y0417869D03*
X0236334Y0417869D03*
X0236334Y0402121D03*
X0236334Y0394247D03*
X0244208Y0394247D03*
X0252082Y0394247D03*
X0252082Y0402121D03*
X0228460Y0394247D03*
X0228460Y0386373D03*
X0236334Y0386373D03*
X0244208Y0386373D03*
X0252082Y0386373D03*
X0252082Y0378499D03*
X0252082Y0370625D03*
X0244208Y0370625D03*
X0244208Y0378499D03*
X0236334Y0378499D03*
X0236334Y0370625D03*
X0236334Y0362751D03*
X0244208Y0362751D03*
X0252082Y0362751D03*
X0252082Y0354877D03*
X0244208Y0354877D03*
X0236334Y0354877D03*
X0236334Y0347003D03*
X0244208Y0347003D03*
X0252082Y0347003D03*
X0252082Y0339129D03*
X0244208Y0339129D03*
X0236334Y0339129D03*
X0236334Y0327318D03*
X0244208Y0327318D03*
X0252082Y0327318D03*
X0228460Y0327318D03*
X0220586Y0327318D03*
X0212712Y0327318D03*
X0204837Y0327318D03*
X0204837Y0386373D03*
X0212712Y0386373D03*
X0220586Y0386373D03*
X0220586Y0394247D03*
X0212712Y0394247D03*
X0204837Y0394247D03*
X0204837Y0402121D03*
X0220586Y0402121D03*
X0204837Y0417869D03*
X0173341Y0417869D03*
X0157593Y0417869D03*
X0157593Y0423774D03*
X0149719Y0423774D03*
X0149719Y0417869D03*
X0143814Y0417869D03*
X0143814Y0423774D03*
X0149719Y0404089D03*
X0118223Y0374562D03*
X0112318Y0374562D03*
X0112318Y0368656D03*
X0112318Y0362751D03*
X0118223Y0362751D03*
X0118223Y0368656D03*
X0087712Y0287948D03*
X0082790Y0287948D03*
X0112318Y0270231D03*
X0118223Y0270231D03*
X0124129Y0270231D03*
X0130034Y0270231D03*
X0135940Y0270231D03*
X0173341Y0244641D03*
X0173341Y0236767D03*
X0181215Y0236767D03*
X0181215Y0244641D03*
X0189089Y0244641D03*
X0189089Y0236767D03*
X0189089Y0228893D03*
X0181215Y0228893D03*
X0173341Y0228893D03*
X0173341Y0221019D03*
X0181215Y0221019D03*
X0189089Y0221019D03*
X0189089Y0213145D03*
X0181215Y0213145D03*
X0173341Y0213145D03*
X0130034Y0185586D03*
X0130034Y0177712D03*
X0126097Y0169837D03*
X0118223Y0169837D03*
X0118223Y0161963D03*
X0126097Y0161963D03*
X0133971Y0161963D03*
X0133971Y0154089D03*
X0126097Y0154089D03*
X0118223Y0154089D03*
X0118223Y0146215D03*
X0126097Y0146215D03*
X0133971Y0146215D03*
X0141845Y0146215D03*
X0149719Y0146215D03*
X0157593Y0146215D03*
X0165467Y0146215D03*
X0173341Y0146215D03*
X0181215Y0146215D03*
X0181215Y0154089D03*
X0173341Y0154089D03*
X0165467Y0154089D03*
X0157593Y0154089D03*
X0149719Y0154089D03*
X0141845Y0154089D03*
X0141845Y0161963D03*
X0149719Y0161963D03*
X0157593Y0161963D03*
X0165467Y0161963D03*
X0173341Y0161963D03*
X0181215Y0161963D03*
X0181215Y0169837D03*
X0173341Y0169837D03*
X0165467Y0169837D03*
X0157593Y0169837D03*
X0149719Y0169837D03*
X0141845Y0169837D03*
X0133971Y0169837D03*
X0110349Y0169837D03*
X0102475Y0169837D03*
X0094601Y0169837D03*
X0086727Y0169837D03*
X0086727Y0161963D03*
X0094601Y0161963D03*
X0102475Y0161963D03*
X0110349Y0161963D03*
X0110349Y0154089D03*
X0102475Y0154089D03*
X0094601Y0154089D03*
X0086727Y0154089D03*
X0086727Y0146215D03*
X0094601Y0146215D03*
X0102475Y0146215D03*
X0110349Y0146215D03*
X0110349Y0112751D03*
X0094601Y0112751D03*
X0094601Y0102908D03*
X0110349Y0102908D03*
X0126097Y0102908D03*
X0126097Y0112751D03*
X0141845Y0112751D03*
X0157593Y0112751D03*
X0157593Y0102908D03*
X0141845Y0102908D03*
X0178263Y0090113D03*
X0179247Y0069444D03*
X0185152Y0069444D03*
X0181215Y0051727D03*
X0181215Y0039916D03*
X0110349Y0039916D03*
X0094601Y0039916D03*
X0047357Y0039916D03*
X0047357Y0071412D03*
X0047357Y0102908D03*
X0086727Y0177712D03*
X0094601Y0177712D03*
X0094601Y0185586D03*
X0086727Y0185586D03*
X0094601Y0197397D03*
X0094601Y0213145D03*
X0094601Y0228893D03*
X0110349Y0228893D03*
X0063105Y0228893D03*
X0047357Y0228893D03*
X0157593Y0177712D03*
X0181215Y0177712D03*
X0393814Y0181649D03*
X0393814Y0150152D03*
X0393814Y0118656D03*
X0393814Y0087160D03*
X0413499Y0079286D03*
X0413499Y0071412D03*
X0413499Y0063538D03*
X0413499Y0055664D03*
X0413499Y0047790D03*
X0393814Y0055664D03*
X0539483Y0130467D03*
X0539483Y0160979D03*
X0547357Y0173774D03*
X0539483Y0193460D03*
X0547357Y0205271D03*
X0551294Y0221019D03*
X0539483Y0224956D03*
X0598538Y0276137D03*
X0551294Y0323381D03*
X0523735Y0319444D03*
X0472554Y0276137D03*
X0393814Y0339129D03*
X0393814Y0370625D03*
X0315074Y0370625D03*
X0283578Y0370625D03*
X0283578Y0402121D03*
X0315074Y0402121D03*
X0283578Y0339129D03*
D23*
X0219050Y0277869D02*
X0202633Y0277869D01*
X0199916Y0275152D01*
X0199916Y0064030D01*
X0205822Y0058125D01*
X0223046Y0058125D01*
X0224778Y0056393D01*
X0224778Y0047869D01*
X0214778Y0047869D02*
X0214778Y0052613D01*
X0213696Y0053696D01*
X0203853Y0053696D01*
X0195979Y0061570D01*
X0195979Y0142278D01*
X0192042Y0146215D01*
X0181215Y0146215D01*
X0178263Y0141294D02*
X0173341Y0146215D01*
X0178263Y0141294D02*
X0178263Y0090113D01*
X0158460Y0080428D02*
X0158460Y0052475D01*
X0203853Y0065999D02*
X0207790Y0062062D01*
X0232397Y0062062D01*
X0234778Y0059680D01*
X0234778Y0047869D01*
X0244778Y0047869D02*
X0244778Y0063952D01*
X0242731Y0065999D01*
X0210743Y0065999D01*
X0207790Y0068952D01*
X0207790Y0183617D01*
X0209523Y0185349D01*
X0219050Y0185349D01*
X0219050Y0169089D02*
X0234129Y0169089D01*
X0238302Y0164916D01*
X0219050Y0139089D02*
X0214444Y0139089D01*
X0211727Y0136373D01*
X0211727Y0071904D01*
X0213696Y0069936D01*
X0252574Y0069936D01*
X0254778Y0067731D01*
X0254778Y0047869D01*
X0264778Y0047869D02*
X0264778Y0071019D01*
X0261924Y0073873D01*
X0221570Y0073873D01*
X0219050Y0076393D01*
X0219050Y0092830D01*
X0203853Y0065999D02*
X0203853Y0230861D01*
X0204601Y0231609D01*
X0219050Y0231609D01*
X0219050Y0215349D02*
X0235113Y0215349D01*
X0238302Y0212160D01*
X0238302Y0258420D02*
X0235113Y0261609D01*
X0219050Y0261609D01*
X0219050Y0122830D02*
X0235113Y0122830D01*
X0238302Y0119641D01*
X0430290Y0060526D02*
X0432200Y0058617D01*
X0517830Y0058617D01*
X0519857Y0056589D01*
X0519857Y0047869D01*
X0529857Y0047869D02*
X0529857Y0059385D01*
X0526688Y0062554D01*
X0437121Y0062554D01*
X0435290Y0064385D01*
X0435290Y0228755D01*
X0430290Y0260330D02*
X0430290Y0261314D01*
X0430290Y0060526D01*
X0440290Y0068243D02*
X0442042Y0066491D01*
X0536530Y0066491D01*
X0539857Y0063164D01*
X0539857Y0047869D01*
X0549857Y0047869D02*
X0549857Y0066944D01*
X0546373Y0070428D01*
X0445979Y0070428D01*
X0445290Y0071117D01*
X0445290Y0165212D01*
X0450290Y0134030D02*
X0450290Y0075960D01*
X0451885Y0074365D01*
X0555231Y0074365D01*
X0559857Y0069739D01*
X0559857Y0047869D01*
X0529857Y0037869D02*
X0529857Y0032810D01*
X0532593Y0030074D01*
X0584759Y0030074D01*
X0586727Y0032042D01*
X0586727Y0091097D01*
X0582790Y0095034D01*
X0541452Y0095034D01*
X0539483Y0097003D01*
X0539483Y0130467D01*
X0539483Y0160979D01*
X0539483Y0193460D01*
X0539483Y0224956D01*
X0539483Y0256452D01*
X0440290Y0197180D02*
X0440290Y0068243D01*
X0519798Y0079286D02*
X0562121Y0079286D01*
X0563105Y0080271D01*
D24*
X0563105Y0297790D02*
X0563105Y0331255D01*
X0561137Y0333223D01*
X0505034Y0333223D01*
X0503755Y0334503D01*
X0503755Y0334639D01*
X0539483Y0367672D02*
X0540900Y0369089D01*
X0554050Y0369089D01*
X0561688Y0369089D01*
X0563105Y0367672D01*
X0563105Y0331255D01*
X0172357Y0119641D02*
X0170389Y0121609D01*
X0079837Y0121609D01*
X0077869Y0123578D01*
X0077869Y0265310D01*
X0074916Y0268263D01*
X0053877Y0268263D01*
X0053739Y0268125D01*
X0172357Y0119641D02*
X0172357Y0032042D01*
X0174326Y0030074D01*
X0233381Y0030074D01*
X0234778Y0031471D01*
X0234778Y0037869D01*
D25*
X0495192Y0086176D02*
X0566058Y0086176D01*
X0569857Y0082377D01*
X0569857Y0047869D01*
X0579857Y0047869D01*
D26*
X0499857Y0047869D02*
X0499857Y0051983D01*
X0498145Y0053696D01*
X0426294Y0053696D01*
X0425310Y0054680D01*
X0425310Y0306649D01*
X0427278Y0308617D01*
X0480428Y0308617D01*
X0483381Y0311570D01*
X0473538Y0314523D02*
X0471570Y0312554D01*
X0426294Y0312554D01*
X0422357Y0308617D01*
X0422357Y0050743D01*
X0425231Y0047869D01*
X0489857Y0047869D01*
X0475428Y0162948D02*
X0447554Y0162948D01*
X0445290Y0165212D01*
X0443026Y0194444D02*
X0440290Y0197180D01*
X0443026Y0194444D02*
X0475428Y0194444D01*
X0475428Y0225940D02*
X0438105Y0225940D01*
X0435290Y0228755D01*
X0433184Y0258420D02*
X0430290Y0261314D01*
X0433184Y0258420D02*
X0475428Y0258420D01*
X0473538Y0314523D02*
X0473538Y0317475D01*
X0158460Y0090428D02*
X0148460Y0090428D01*
X0148460Y0042475D02*
X0158460Y0042475D01*
D27*
X0259050Y0092830D02*
X0259050Y0102003D01*
X0263893Y0106845D01*
X0297357Y0106845D01*
X0340463Y0063739D01*
X0351589Y0063739D01*
X0351491Y0043853D02*
X0339680Y0043853D01*
X0290704Y0092830D01*
X0289050Y0092830D01*
X0279050Y0122830D02*
X0299089Y0122830D01*
X0338180Y0083739D01*
X0351589Y0083739D01*
X0351491Y0103893D02*
X0336727Y0103893D01*
X0301530Y0139089D01*
X0289050Y0139089D01*
X0309168Y0153105D02*
X0262908Y0153105D01*
X0259050Y0149247D01*
X0259050Y0139089D01*
X0279050Y0169089D02*
X0314837Y0169089D01*
X0340109Y0143818D01*
X0351589Y0143818D01*
X0351589Y0123818D02*
X0338455Y0123818D01*
X0309168Y0153105D01*
X0322200Y0185349D02*
X0343617Y0163932D01*
X0351491Y0163932D01*
X0351491Y0183617D02*
X0347554Y0183617D01*
X0329837Y0201334D01*
X0265861Y0201334D01*
X0259050Y0194523D01*
X0259050Y0185349D01*
X0289050Y0185349D02*
X0322200Y0185349D01*
X0350936Y0203858D02*
X0339444Y0215349D01*
X0279050Y0215349D01*
X0289050Y0231609D02*
X0316806Y0231609D01*
X0334487Y0249291D01*
X0351589Y0249291D01*
X0351589Y0269291D02*
X0333818Y0269291D01*
X0311137Y0246609D01*
X0263893Y0246609D01*
X0259050Y0241767D01*
X0259050Y0231609D01*
X0279050Y0261609D02*
X0305467Y0261609D01*
X0333149Y0289291D01*
X0351589Y0289291D01*
X0351589Y0309527D02*
X0333849Y0309527D01*
X0333774Y0309601D01*
X0302042Y0277869D01*
X0289050Y0277869D01*
X0298341Y0292869D02*
X0265861Y0292869D01*
X0259050Y0286058D01*
X0259050Y0277869D01*
X0298341Y0292869D02*
X0333774Y0328302D01*
X0334759Y0329286D01*
X0334999Y0329527D01*
X0351589Y0329527D01*
X0331806Y0348971D02*
X0330822Y0347987D01*
X0290704Y0307869D01*
X0279050Y0307869D01*
X0331806Y0348971D02*
X0332362Y0349527D01*
X0351589Y0349527D01*
X0351589Y0203858D02*
X0350936Y0203858D01*
D28*
X0238302Y0212160D02*
X0238302Y0164916D01*
X0238302Y0119641D01*
X0238302Y0081255D01*
X0240271Y0079286D01*
X0265861Y0079286D01*
X0273735Y0071412D01*
X0273735Y0048912D01*
X0274778Y0047869D01*
X0284778Y0047869D01*
X0238302Y0212160D02*
X0238302Y0258420D01*
X0238302Y0305664D01*
X0236097Y0307869D01*
X0219050Y0307869D01*
M02*
