%
M48
M72
T01C0.01575
T02C0.03200
T03C0.03543
T04C0.03600
T05C0.03937
T06C0.04000
T07C0.04055
T08C0.05118
T09C0.05512
T10C0.06693
T11C0.12992
%
T01
X47357Y39916
X47357Y71412
X47357Y102908
X94601Y102908
X110349Y102908
X110349Y112751
X94601Y112751
X126097Y112751
X126097Y102908
X141845Y102908
X157593Y102908
X157593Y112751
X141845Y112751
X178263Y90113
X179247Y69444
X185152Y69444
X181215Y51727
X181215Y39916
X110349Y39916
X94601Y39916
X94601Y146215
X86727Y146215
X86727Y154089
X94601Y154089
X102475Y154089
X110349Y154089
X110349Y146215
X102475Y146215
X118223Y146215
X126097Y146215
X133971Y146215
X141845Y146215
X149719Y146215
X157593Y146215
X165467Y146215
X173341Y146215
X181215Y146215
X181215Y154089
X173341Y154089
X165467Y154089
X157593Y154089
X149719Y154089
X141845Y154089
X133971Y154089
X126097Y154089
X118223Y154089
X118223Y161963
X126097Y161963
X133971Y161963
X141845Y161963
X149719Y161963
X157593Y161963
X165467Y161963
X173341Y161963
X181215Y161963
X181215Y169837
X173341Y169837
X165467Y169837
X157593Y169837
X149719Y169837
X141845Y169837
X133971Y169837
X126097Y169837
X118223Y169837
X110349Y169837
X102475Y169837
X94601Y169837
X86727Y169837
X86727Y161963
X94601Y161963
X102475Y161963
X110349Y161963
X94601Y177712
X86727Y177712
X86727Y185586
X94601Y185586
X94601Y197397
X94601Y213145
X94601Y228893
X110349Y228893
X63105Y228893
X47357Y228893
X112318Y270231
X118223Y270231
X124129Y270231
X130034Y270231
X135940Y270231
X173341Y244641
X173341Y236767
X181215Y236767
X181215Y244641
X189089Y244641
X189089Y236767
X189089Y228893
X181215Y228893
X173341Y228893
X173341Y221019
X181215Y221019
X189089Y221019
X189089Y213145
X181215Y213145
X173341Y213145
X130034Y185586
X130034Y177712
X157593Y177712
X181215Y177712
X87712Y287948
X82790Y287948
X112318Y362751
X118223Y362751
X118223Y368656
X112318Y368656
X112318Y374562
X118223Y374562
X149719Y404089
X149719Y417869
X143814Y417869
X143814Y423774
X149719Y423774
X157593Y423774
X157593Y417869
X173341Y417869
X204837Y417869
X204837Y402121
X204837Y394247
X212712Y394247
X220586Y394247
X228460Y394247
X236334Y394247
X244208Y394247
X252082Y394247
X252082Y402121
X236334Y402121
X220586Y402121
X220586Y386373
X212712Y386373
X204837Y386373
X228460Y386373
X236334Y386373
X244208Y386373
X252082Y386373
X252082Y378499
X252082Y370625
X244208Y370625
X244208Y378499
X236334Y378499
X236334Y370625
X236334Y362751
X244208Y362751
X252082Y362751
X252082Y354877
X244208Y354877
X236334Y354877
X236334Y347003
X244208Y347003
X252082Y347003
X252082Y339129
X244208Y339129
X236334Y339129
X236334Y327318
X244208Y327318
X252082Y327318
X228460Y327318
X220586Y327318
X212712Y327318
X204837Y327318
X283578Y339129
X283578Y370625
X315074Y370625
X315074Y402121
X315074Y417869
X299326Y417869
X283578Y417869
X267830Y417869
X252082Y417869
X236334Y417869
X283578Y402121
X362318Y402121
X362318Y417869
X393814Y402121
X393814Y370625
X393814Y339129
X421373Y323381
X448932Y343066
X473538Y317475
X483381Y311570
X492239Y335192
X503755Y334639
X511924Y350940
X492239Y350940
X456806Y370625
X456806Y417869
X535546Y386373
X539483Y367672
X551294Y323381
X523735Y319444
X563105Y297790
X543420Y287948
X539483Y256452
X555231Y252515
X568026Y253499
X572948Y253499
X598538Y244641
X577869Y230861
X577869Y225940
X598538Y213145
X577869Y201334
X577869Y195428
X598538Y181649
X577869Y168853
X577869Y163932
X598538Y150152
X579837Y137357
X579837Y132436
X598538Y118656
X598538Y87160
X563105Y80271
X598538Y55664
X519798Y79286
X519798Y95034
X511924Y95034
X511924Y102908
X519798Y102908
X504050Y102908
X504050Y95034
X495192Y86176
X472554Y102908
X450290Y134030
X472554Y150152
X445290Y165212
X472554Y181649
X440290Y197180
X472554Y213145
X435290Y228755
X472554Y244641
X430290Y261314
X393814Y276137
X393814Y307633
X472554Y276137
X539483Y224956
X551294Y221019
X547357Y205271
X539483Y193460
X547357Y173774
X539483Y160979
X539483Y130467
X413499Y79286
X413499Y71412
X413499Y63538
X413499Y55664
X413499Y47790
X393814Y55664
X393814Y87160
X393814Y118656
X393814Y150152
X393814Y181649
X598538Y276137
X598538Y307633
X598538Y339129
X598538Y370625
X598538Y402121
X582790Y417869
X551294Y417869
T02
X516924Y288932
X506924Y288932
X485428Y288932
X475428Y288932
X511924Y263420
X511924Y253420
X511924Y230940
X511924Y220940
X511924Y199444
X511924Y189444
X511924Y167948
X511924Y157948
X511924Y136452
X511924Y126452
X485428Y132436
X475428Y132436
X475428Y162948
X485428Y162948
X485428Y194444
X475428Y194444
X475428Y225940
X485428Y225940
X485428Y258420
X475428Y258420
T03
X102121Y410586
X97003Y380822
T04
X194778Y47869
X204778Y47869
X214778Y47869
X224778Y47869
X234778Y47869
X244778Y47869
X254778Y47869
X264778Y47869
X274778Y47869
X284778Y47869
X284778Y37869
X274778Y37869
X264778Y37869
X254778Y37869
X244778Y37869
X234778Y37869
X224778Y37869
X214778Y37869
X204778Y37869
X194778Y37869
X489857Y37869
X499857Y37869
X509857Y37869
X519857Y37869
X529857Y37869
X539857Y37869
X549857Y37869
X559857Y37869
X569857Y37869
X579857Y37869
X579857Y47869
X569857Y47869
X559857Y47869
X549857Y47869
X539857Y47869
X529857Y47869
X519857Y47869
X509857Y47869
X499857Y47869
X489857Y47869
T05
X148460Y50467
X148460Y42475
X138460Y46491
X138460Y54483
X138460Y62475
X138460Y70467
X138460Y78460
X138460Y86452
X148460Y90428
X148460Y82436
X148460Y74444
X148460Y58460
T06
X554050Y339089
X554050Y349089
X554050Y359089
X554050Y369089
X554050Y379089
T07
X158460Y90428
X158460Y80428
X158460Y52475
X158460Y42475
T08
X219050Y92830
X219050Y122830
X219050Y139089
X219050Y169089
X219050Y185349
X219050Y215349
X219050Y231609
X219050Y261609
X219050Y277869
X219050Y307869
X259050Y277869
X279050Y261609
X289050Y277869
X279050Y307869
X351589Y309527
X351589Y289291
X351589Y269291
X351589Y249291
X351589Y203858
X351589Y183858
X351589Y163858
X351589Y143818
X351589Y123818
X351589Y103818
X351589Y83739
X351589Y63739
X351589Y43739
X289050Y92830
X259050Y92830
X279050Y122830
X289050Y139089
X259050Y139089
X279050Y169089
X289050Y185349
X259050Y185349
X279050Y215349
X289050Y231609
X259050Y231609
X351589Y329527
X351589Y349527
X53573Y389070
X53573Y409070
X53739Y268125
X53739Y248125
X53755Y204094
X53755Y184094
X53755Y164094
X53755Y144094
X53755Y124094
T09
X52278Y298656
X52278Y357908
T10
X65940Y98204
X65940Y34739
T11
X78460Y41491
X78460Y91452
M30
